<?xml version="1.0" encoding="utf-8"?>
<!-- Generator: Adobe Illustrator 15.0.0, SVG Export Plug-In . SVG Version: 6.00 Build 0)  -->
<!DOCTYPE svg PUBLIC "-//W3C//DTD SVG 1.1//EN" "http://www.w3.org/Graphics/SVG/1.1/DTD/svg11.dtd">
<svg version="1.1" id="Layer_1" xmlns="http://www.w3.org/2000/svg" xmlns:xlink="http://www.w3.org/1999/xlink" x="0px" y="0px"
	 width="216px" height="180px" viewBox="0 0 216 180" enable-background="new 0 0 216 180" xml:space="preserve">
<g id="cat_x28_a_x29_">
	<g id="Layer_1_1_">
	</g>
	<g id="Cata">
		<g>
			<path fill="#684C32" d="M99.468,180.001c-17.271-0.323-37.481-4.123-54.967-17.271c-10.545-7.933-18.124-18.039-22.791-30.285
				c-2.756-7.231-6.659-13.562-12.049-19.262C-2.732,100.078-3.293,80.635,8.51,66.951c6.821-7.907,12.272-16.445,16.666-25.848
				c5.47-11.708,13.152-21.9,22.67-30.727c9.737-9.032,20.807-11.403,33.291-6.78c3.434,1.273,6.797,2.771,10.086,4.383
				c8.959,4.391,17.343,4.133,26.062-1.287c14.561-9.049,28.688-8.813,40.218,0.061c7.937,6.108,13.517,14.183,18.095,22.938
				c2.229,4.265,4.129,8.703,6.078,13.105c1.37,3.096,3.562,5.057,6.861,6.014c20.49,5.952,30.102,21.315,26.84,42.639
				c-1.915,12.517-7.467,22.959-17.579,30.797c-5.051,3.914-9.36,8.396-12.854,13.783
				C165.121,166.577,140.213,179.96,99.468,180.001z"/>
			<path fill="#FEFEFE" d="M82.436,22.004c12.266,5.817,24.763,7.257,37.615,1.973c6.576-1.942,6.524-1.939,6.906,4.724
				c0.236,4.113,2.953,6.405,6.661,6.89c5.04,0.658,8.905,2.384,12.233,6.552c3.684,4.609,8.145,3.24,9.846-2.417
				c0.35-1.159,0.684-2.323,1.972-2.643c1.61-0.401,2.272,0.833,3.097,1.932c1.889,2.527,2.232,5.96,4.834,8.05
				c2.685,4.81,3.738,10.212,5.66,15.297c0.682,1.799-0.058,3.108-0.861,4.621c-3.715,6.981-2.531,12.879,3.619,18.094
				c1.4,1.189,2.762,2.094,2.928,4.252c1.727,22.41-3.157,42.354-21.312,57.453c-2.675-0.73-1.368-2.425-0.784-3.731
				c1.377-3.074,2.067-6.261,2.396-9.607c1.371-13.979-7.077-22.74-17.821-28.127c-24.639-12.354-49.515-11.971-73.292,3.11
				c-4.961,3.146-8.835,7.443-11.514,12.856c-4.282,8.652-3.342,16.672,2.021,24.449c1.131,1.642,2.543,3.104,3.408,4.91
				c0.445,0.928,1.312,2.297-0.927,2.248c-13.565-7.926-21.763-19.988-26.946-34.414c-0.731-2.037-0.201-2.604,1.869-2.566
				c3.631,0.064,6.842-1.326,9.76-3.354c7.133-4.953,8.762-13.43,3.666-20.447c-3.99-5.5-8.41-10.688-12.557-16.079
				c-3.037-3.947-3.666-8.03-1.822-12.975c5.628-15.093,13.08-28.944,25.133-39.996c2.18,1.918,2.391,2.117,0.547,4.057
				c-1.603,1.685-2.158,3.47-2.101,5.62c-0.063,2.162-0.979,4.222-0.883,6.395c0.137,3.029,2.343,4.519,4.11,2.496
				c5.513-6.311,13.442-8.383,20.213-12.436C82.483,27.307,80.643,24.068,82.436,22.004z"/>
			<path fill="#F5E0CA" d="M59.12,152.891c1.306-1.101,0.062-1.69-0.521-2.334c-14.152-15.562-8.242-32.521,6.233-42.941
				c17.526-12.619,37.175-13.766,57.564-10.202c13.263,2.313,24.381,8.612,32.188,19.646c5.979,8.443,5.376,17.682,1.291,26.824
				c-0.452,1.012-1.704,1.793-0.243,2.902c-9.291,8.309-20.479,12.73-32.479,15.156c-18.654,3.771-37.027,2.481-54.916-4.174
				C65.003,156.562,61.703,155.355,59.12,152.891z"/>
			<path fill="#FAF1E8" d="M165.6,47.065c-4.062-0.393-3.164-4.59-5.119-6.586c-0.877-0.894-0.92-2.963-2.529-2.649
				c-1.747,0.339-0.989,1.986-1.036,3.28c-0.078,2.153-0.646,4.411-3.242,4.872c-3.835,0.681-7.909-0.038-9.63-3.479
				c-2.41-4.83-6.326-5.104-10.646-5.425c-3.646-0.27-8.438-4.41-7.707-7.567c1.306-5.625-1.268-6.204-5.633-5.533
				c1.233-0.813,2.439-1.677,3.713-2.435c14.24-8.494,21.957-6.976,31.717,6.354C159.789,33.783,163.38,40.075,165.6,47.065z"/>
			<path fill="#FAF1E8" d="M185.857,90.44c1.056-1.62,3.393,0.81,8.143-0.94c5.456-2.01,7.113-2.465,6.205,4.961
				c-1.006,8.229-4.289,12.701-10.337,14.281c-3.291,0.857-5.722,1.004-4.742-3.678C186.27,99.646,184.498,92.525,185.857,90.44z"/>
			<path fill="#FAF1E8" d="M84.313,22.844c-0.639-0.293-1.262-0.562-1.879-0.819c0-0.007,0-0.013,0-0.02
				c-10.654-6.566-16.727-6.302-24.213,1.055c-2.439,2.3-5.341,5.098-8.158,8.691c-4.502,5.739-5.438,6.75-10.625,16.656
				c4.062-0.393,6.277-4.432,8.233-6.427c0.876-0.894,0.92-2.963,2.531-2.649c1.747,0.339,0.989,1.986,1.036,3.28
				c0.078,2.153,0.646,4.411,3.242,4.872c3.834,0.681,7.91-0.038,9.629-3.479c2.41-4.83,6.326-5.104,10.648-5.425
				c3.646-0.27,8.439-4.41,7.707-7.567c-1.305-5.625,2.729-6.838,7.096-6.167C87.407,24.125,85.875,23.562,84.313,22.844z"/>
			<path fill="#EE5D4B" d="M68.813,21.571c6.389-1.469,13.875,3.772,12.33,8.431c-0.416,1.253-3.707,2.723-5.994,3.349
				c-5.105,1.397-9.42,4.044-12.914,8.044c-1.52,1.74-3.258,3.925-5.854,2.529c-2.646-1.421-2.371-4.35-1.756-6.729
				C56.719,29.094,62.233,23.084,68.813,21.571z"/>
			<path fill="#63503C" d="M107.782,82.75c-2.188-0.656-5.454-0.665-8.75,0.136c-0.989,0.24-2.264-0.342-3.312-0.776
				c-1.259-0.521-2.447-1.335-1.684-2.991c0.617-1.338,1.779-1.36,2.953-0.782c1.471,0.724,2.931,1.053,3.957-0.533
				c1.125-1.736,0.051-3.014-1.092-4.361c-1.607-1.894-2.627-4.231-0.281-6.108c2.562-2.049,5.701-2.049,8.314-0.089
				c2.402,1.803,1.546,4.192-0.111,6.07c-1.234,1.397-2.004,2.783-0.938,4.396c1.057,1.598,2.57,0.939,3.993,0.297
				c1.165-0.525,2.405-0.495,3.002,0.784c0.749,1.607-0.485,2.455-1.694,3.045C111.115,82.34,109.363,83.226,107.782,82.75z"/>
			<path fill="#65513E" d="M145.124,81.969c-4.233-0.34-7.549-0.584-10.856-0.883c-1.556-0.14-3.793,0.377-3.748-2.078
				c0.043-2.402,2.168-2.037,3.785-1.944c4.312,0.248,8.619,0.554,12.928,0.872c1.472,0.108,3.317,0.04,3.289,2.125
				c-0.029,2.12-1.813,1.937-3.328,1.911C146.197,81.957,145.197,81.969,145.124,81.969z"/>
			<path fill="#655742" d="M138.32,61.537c0.367,2.121-1.35,2.501-2.865,1.72c-4.119-2.121-7.883-2.116-11.365,1.235
				c-0.807,0.776-1.785,0.822-2.656,0.03c-0.675-0.611-0.888-1.369-0.408-2.211c1.619-2.855,4.291-4.063,7.383-4.366
				C131.723,57.62,137.955,59.416,138.32,61.537z"/>
			<path fill="#615340" d="M74.268,58.111c2.912,0.069,5.629,0.784,7.885,2.676c1.043,0.874,1.938,2.041,0.758,3.408
				c-0.938,1.086-1.998,0.79-3.086-0.003c-3.434-2.505-6.947-3.106-10.469-0.148c-1.092,0.917-2.142,0.999-2.985-0.191
				c-0.813-1.148-0.304-2.234,0.577-3.117C68.96,58.719,71.512,58.125,74.268,58.111z"/>
			<path fill="#665847" d="M73.569,75.708c-2.866-0.465-5.985-0.979-9.108-1.471c-1.375-0.216-2.836-0.498-2.603-2.276
				c0.215-1.64,1.605-2,3.045-1.788c3.289,0.483,6.57,1.031,9.849,1.595c1.396,0.239,2.785,0.802,2.322,2.513
				C76.668,75.783,75.291,76.096,73.569,75.708z"/>
			<path fill="#695747" d="M134.371,82.878c2.582,0.754,5.779,1.662,8.958,2.632c1.181,0.36,2.235,1.053,1.832,2.482
				c-0.478,1.695-1.849,1.646-3.246,1.263c-3.046-0.836-6.103-1.64-9.129-2.544c-1.343-0.4-2.567-1.151-1.998-2.838
				C131.266,82.465,132.555,82.63,134.371,82.878z"/>
			<path fill="#65513E" d="M61.76,81.969c4.235-0.34,7.551-0.584,10.858-0.883c1.555-0.14,3.792,0.377,3.748-2.078
				c-0.044-2.402-2.171-2.037-3.785-1.944c-4.312,0.248-8.621,0.554-12.929,0.872c-1.471,0.108-3.317,0.04-3.289,2.125
				c0.031,2.12,1.814,1.937,3.326,1.911C60.688,81.957,61.686,81.969,61.76,81.969z"/>
			<path fill="#695747" d="M72.514,82.878c-2.582,0.754-5.779,1.662-8.957,2.632c-1.182,0.36-2.236,1.053-1.834,2.482
				c0.479,1.695,1.85,1.646,3.246,1.263c3.047-0.836,6.104-1.64,9.131-2.544c1.342-0.4,2.567-1.151,1.996-2.838
				C75.62,82.465,74.332,82.63,72.514,82.878z"/>
			<path fill="#645545" d="M140.404,69.759c1.673-0.113,2.886-0.036,3.146,1.429c0.245,1.382-0.72,2.143-1.897,2.47
				c-3.012,0.836-6.043,1.607-9.082,2.336c-1.217,0.292-2.371,0.04-2.854-1.268c-0.524-1.426,0.452-2.229,1.597-2.562
				C134.46,71.244,137.659,70.476,140.404,69.759z"/>
			<path fill="#ED5D4B" d="M138.475,21.52c8.687,0.586,16.428,9.277,16.02,17.928c-0.073,1.556-0.281,3.013-1.793,3.82
				c-1.61,0.858-3.105,0.046-4.047-1.024c-4.689-5.349-10.861-7.85-17.482-9.855c-4.138-1.253-4.499-3.855-1.561-7.128
				C131.873,22.743,135.279,21.305,138.475,21.52z"/>
		</g>
		<path fill="#FAF1E8" d="M39.913,95.154c-7.745-9.049-12.917-14.213-15.582-21.131c-1.457-3.784-4.181-1.833-5.871-0.126
			c-10.045,10.137-5.309,28.283,7.414,34.598C35.48,112.104,47.659,104.204,39.913,95.154z"/>
	</g>
	<g id="Layer_2">
		<path fill="#FAF1E8" d="M189.25,65.875c-6.939,0.931-11.818,6.461-11.246,10.729c0.296,2.203,2.066,3.988,4.664,5.068
			c1.193,0.495,0.912-0.98,0.912-0.98c-0.08-2.161,0.816-3.608,2.295-3.754s3.551,0.969,3.812,3.289c0,0,0.097,0.769,0.189,1.417
			c0.126,0.893,0.918,1.168,1.311,1.174c0.429,0.007,0.396,0.196,1.506-0.079c1.108-0.276,1.043-1.177,0.994-1.582l-0.25-2.031
			c-0.129-0.96,0.562-2.688,2.188-3.125s2.997,0.915,3.125,1.875c0,0,0.145,2.132,0.973,1.663c2.369-1.758,3.715-4.022,3.407-6.306
			C202.557,68.965,196.188,64.944,189.25,65.875z"/>
	</g>
</g>
<g id="grid">
	<g>
		<path fill="#FFFFFF" d="M42.294,174.701c-5.227-0.001-9.607-4.088-9.972-9.305l-3.993-57.111c-0.187-2.665,0.677-5.243,2.43-7.26
			c1.752-2.017,4.185-3.228,6.85-3.414l43.394-3.033c0.235-0.018,0.472-0.025,0.705-0.025c5.225,0,9.604,4.086,9.969,9.303
			l3.993,57.111c0.187,2.664-0.676,5.242-2.429,7.258c-1.753,2.018-4.186,3.23-6.851,3.416l-43.394,3.035
			C42.761,174.691,42.525,174.7,42.294,174.701z"/>
		<g>
			<path fill="#665847" d="M81.706,98.553c3.123-0.001,5.758,2.418,5.979,5.581l3.993,57.112c0.231,3.305-2.261,6.174-5.567,6.404
				l-43.395,3.035c-0.141,0.01-0.282,0.016-0.422,0.016c-3.125-0.002-5.76-2.42-5.981-5.583l-3.993-57.112
				c-0.231-3.307,2.263-6.174,5.566-6.404l43.395-3.033C81.423,98.559,81.565,98.553,81.706,98.553 M81.707,90.553L81.707,90.553
				h-0.002c-0.327,0-0.658,0.012-0.982,0.035l-43.395,3.033c-3.729,0.26-7.135,1.958-9.588,4.779
				c-2.454,2.824-3.662,6.432-3.401,10.164l3.993,57.109c0.512,7.305,6.645,13.025,13.961,13.025c0.326,0,0.654-0.012,0.979-0.033
				l43.396-3.035c3.73-0.261,7.138-1.959,9.591-4.783c2.454-2.822,3.661-6.432,3.4-10.16l-3.994-57.111
				C95.154,96.271,89.022,90.553,81.707,90.553L81.707,90.553z"/>
		</g>
	</g>
	<path fill="#EE5D4B" d="M82.882,101.63l-45.887,3.21c-0.552,0.038-0.968,0.516-0.93,1.067l0.56,7.979
		c0.037,0.551,0.517,0.965,1.066,0.927l45.888-3.208c0.551-0.04,0.967-0.516,0.928-1.067l-0.558-7.979
		C83.91,102.006,83.433,101.592,82.882,101.63z"/>
	<path fill="#EE5D4B" d="M84.854,115.525c-0.038-0.551-0.515-0.965-1.065-0.928l-45.89,3.209c-0.551,0.039-0.966,0.518-0.928,1.065
		l0.559,7.983c0.038,0.551,0.516,0.965,1.066,0.926l45.889-3.207c0.551-0.039,0.966-0.517,0.929-1.066L84.854,115.525z"/>
	<path fill="#EE5D4B" d="M85.762,128.493c-0.036-0.552-0.516-0.965-1.067-0.927l-45.887,3.21c-0.552,0.038-0.967,0.515-0.929,1.065
		l0.559,7.98c0.039,0.553,0.518,0.967,1.066,0.93l45.888-3.209c0.551-0.04,0.967-0.518,0.929-1.069L85.762,128.493z"/>
	<path fill="#EE5D4B" d="M86.669,141.462c-0.037-0.552-0.517-0.966-1.067-0.927l-45.887,3.209c-0.552,0.038-0.968,0.516-0.929,1.066
		l0.559,7.98c0.038,0.553,0.517,0.967,1.066,0.928l45.888-3.209c0.551-0.039,0.967-0.517,0.929-1.067L86.669,141.462z"/>
	<path fill="#EE5D4B" d="M87.575,154.43c-0.036-0.551-0.516-0.965-1.067-0.926l-45.887,3.209c-0.552,0.038-0.967,0.516-0.929,1.065
		l0.559,7.979c0.039,0.555,0.518,0.969,1.067,0.93l45.887-3.209c0.552-0.039,0.967-0.517,0.93-1.068L87.575,154.43z"/>
</g>
<g id="left_arm">
	<g>
		<path fill="#684C32" d="M19.452,127.25l5.485-2.562c-1.38-2.812-1.208-10.453,1.875-9.5c2.625,0.812,5.162,1.149,7.231,1.188
			c3.631,0.063,6.842-1.791,9.76-3.817c7.133-4.953,8.762-13.43,3.666-20.447c-3.99-5.5-8.41-10.688-12.557-16.079
			c-3.037-3.947-3.666-8.03-1.822-12.975c0.986-2.644,2.032-5.246,3.144-7.805H17.311c-2.651,4.057-5.567,7.953-8.801,11.701
			C-3.293,80.637-2.732,100.08,9.661,113.186C13.72,117.477,16.935,122.127,19.452,127.25z"/>
	</g>
	<path fill="#FAF1E8" d="M39.913,95.154c-7.745-9.049-12.917-14.213-15.582-21.131c-1.457-3.784-4.181-1.833-5.871-0.126
		c-10.045,10.137-5.309,28.283,7.414,34.598C35.48,112.104,47.659,104.204,39.913,95.154z"/>
</g>
</svg>
