<?xml version="1.0" encoding="utf-8"?>
<!-- Generator: Adobe Illustrator 16.0.4, SVG Export Plug-In . SVG Version: 6.00 Build 0)  -->
<!DOCTYPE svg PUBLIC "-//W3C//DTD SVG 1.1//EN" "http://www.w3.org/Graphics/SVG/1.1/DTD/svg11.dtd">
<svg version="1.1" id="Layer_1" xmlns="http://www.w3.org/2000/svg" xmlns:xlink="http://www.w3.org/1999/xlink" x="0px" y="0px"
	 width="36px" height="42px" viewBox="7.5 30.5 36 42" enable-background="new 7.5 30.5 36 42" xml:space="preserve">
<g id="Layer_1_1_">
</g>
<g id="pictograms">
	<g>
		<path fill="#EE5D4B" d="M23.607,60.182c1.527,1.762,2.356,1.762,3.891-0.016c0,0,8.132-9.02,9.396-10.361
			c1.266-1.343,0.269-3.281-1.826-3.281l-4.073,0.006V33.938c0-1.342-1.093-2.438-2.425-2.438H22.43
			c-1.334,0-2.425,1.096-2.425,2.438v12.584l-4.087-0.004c-2.096-0.002-3.287,1.652-1.802,3.25
			C15.603,51.365,23.607,60.182,23.607,60.182z"/>
		<path fill="#EE5D4B" d="M40.051,64.398H10.949c-1.347,0-2.449,1.102-2.449,2.449v2.203c0,1.348,1.102,2.449,2.449,2.449h29.102
			c1.348,0,2.449-1.102,2.449-2.449v-2.203C42.5,65.5,41.398,64.398,40.051,64.398z"/>
	</g>
</g>
</svg>
