<?xml version="1.0" encoding="utf-8"?>
<!-- Generator: Adobe Illustrator 16.0.4, SVG Export Plug-In . SVG Version: 6.00 Build 0)  -->
<!DOCTYPE svg PUBLIC "-//W3C//DTD SVG 1.1//EN" "http://www.w3.org/Graphics/SVG/1.1/DTD/svg11.dtd">
<svg version="1.1" id="Layer_1" xmlns="http://www.w3.org/2000/svg" xmlns:xlink="http://www.w3.org/1999/xlink" x="0px" y="0px"
	 width="38px" height="38px" viewBox="8.5 28.5 38 38" enable-background="new 8.5 28.5 38 38" xml:space="preserve">
<g id="Layer_1_1_">
</g>
<g id="pictograms">
	<g>
		<path fill="#684C32" d="M28.857,41.66c-1.707-1.451-4.269-1.439-5.955,0.025c-0.176,0.151-0.342,0.317-0.493,0.496
			c-1.634,1.924-1.397,4.815,0.524,6.45c1.707,1.449,4.268,1.438,5.955-0.026c0.176-0.152,0.342-0.32,0.493-0.498
			c0.791-0.933,1.173-2.115,1.074-3.334C30.355,43.557,29.789,42.449,28.857,41.66z"/>
		<path fill="#684C32" d="M40.229,34.771c-7.029-7.029-18.428-7.027-25.456,0c-7.03,7.03-7.03,18.426,0,25.457
			c7.028,7.028,18.427,7.028,25.456,0C47.258,53.199,47.258,41.801,40.229,34.771z M36.032,56.545
			c-0.369,0.346-0.828,0.537-1.296,0.578c-0.645,0.057-1.307-0.176-1.783-0.686l-3.917-4.199c-0.035-0.037-0.06-0.078-0.091-0.117
			c-2.604,1.125-5.739,0.744-7.985-1.166c-3.205-2.721-3.599-7.543-0.874-10.746c0.25-0.297,0.525-0.574,0.816-0.828
			c2.815-2.443,7.084-2.465,9.93-0.047c1.553,1.318,2.499,3.164,2.664,5.193c0.139,1.711-0.297,3.379-1.227,4.791l3.869,4.147
			C36.959,54.346,36.912,55.725,36.032,56.545z"/>
	</g>
</g>
</svg>
