<?xml version="1.0" encoding="utf-8"?>
<!-- Generator: Adobe Illustrator 16.0.4, SVG Export Plug-In . SVG Version: 6.00 Build 0)  -->
<!DOCTYPE svg PUBLIC "-//W3C//DTD SVG 1.1//EN" "http://www.w3.org/Graphics/SVG/1.1/DTD/svg11.dtd">
<svg version="1.1" xmlns="http://www.w3.org/2000/svg" xmlns:xlink="http://www.w3.org/1999/xlink" x="0px" y="0px" width="100px"
	 height="39px" viewBox="0 0 100 39" enable-background="new 0 0 100 39" xml:space="preserve">
<g id="Layer_1">
</g>
<g id="pictograms">
	<g>
		<path fill="#ED5D4B" d="M4.232,38.5c-2.058,0-3.732-1.645-3.732-3.666V10.861c0-2.02,1.674-3.663,3.732-3.663h41.584
			c0.173,0,0.334-0.089,0.425-0.237l3.714-5.994C50.139,0.67,50.37,0.5,50.59,0.5c0.219,0,0.45,0.168,0.636,0.462l3.783,6.002
			c0.092,0.146,0.251,0.233,0.423,0.233h40.336c2.058,0,3.732,1.643,3.732,3.663v23.973c0,2.021-1.675,3.666-3.732,3.666H4.232z"/>
		<path fill="#FFFFFF" d="M50.59,1.002c0.032,0.014,0.116,0.074,0.212,0.227l3.784,6.002c0.183,0.291,0.502,0.467,0.846,0.467
			h40.336C97.55,7.698,99,9.117,99,10.861v23.973C99,36.58,97.55,38,95.768,38H4.232C2.45,38,1,36.58,1,34.834V10.861
			c0-1.744,1.45-3.163,3.232-3.163h41.584c0.346,0,0.668-0.179,0.85-0.473L50.38,1.23C50.475,1.077,50.558,1.017,50.59,1.002
			 M50.59,0c-0.385,0-0.77,0.235-1.06,0.704l-3.714,5.994H4.232C1.905,6.698,0,8.572,0,10.861v23.973C0,37.126,1.905,39,4.232,39
			h91.536c2.328,0,4.232-1.874,4.232-4.166V10.861c0-2.289-1.904-4.163-4.232-4.163H55.432l-3.783-6.002
			C51.356,0.232,50.973,0,50.59,0L50.59,0z"/>
	</g>
	<g>
		<path fill="#FFFFFF" d="M9.105,28.949h-0.08c-0.239-0.02-0.438-0.221-0.438-0.48V15.426c0-0.26,0.219-0.479,0.479-0.479h0.06
			h2.553c3.85,0,6.981,3.161,6.981,7.021s-3.132,6.981-6.981,6.981H9.105z M11.678,27.969c3.312,0,6.004-2.68,6.004-6.001
			c0-3.341-2.692-6.021-6.004-6.042H9.563v12.043H11.678z"/>
		<path fill="#FFFFFF" d="M25.278,19.146c2.574,0,4.628,2.241,4.628,4.902c0,2.66-2.055,4.9-4.628,4.9
			c-2.553,0-4.627-2.24-4.627-4.9C20.651,21.388,22.726,19.146,25.278,19.146z M25.278,27.989c1.995,0,3.67-1.761,3.67-3.94
			c0-2.182-1.675-3.961-3.67-3.961c-1.994,0-3.67,1.779-3.67,3.961C21.608,26.229,23.284,27.989,25.278,27.989z"/>
		<path fill="#FFFFFF" d="M34.451,28.869c-0.1-0.04-0.159-0.12-0.199-0.221l-3.67-8.762c-0.101-0.239,0.02-0.52,0.238-0.619
			c0.24-0.101,0.539,0.02,0.619,0.26l3.251,7.722l2.254-5.382c0.08-0.18,0.279-0.299,0.458-0.299c0.2,0,0.399,0.119,0.479,0.299
			l2.254,5.382l3.231-7.722c0.099-0.24,0.399-0.36,0.618-0.26c0.239,0.1,0.359,0.38,0.259,0.619l-3.649,8.723
			c-0.04,0.1-0.101,0.18-0.18,0.24c-0.08,0.06-0.16,0.1-0.24,0.1h-0.039h-0.06c-0.16-0.02-0.339-0.141-0.379-0.301l-0.021-0.02
			l-2.274-5.421l-2.254,5.401c0,0-0.02,0.02-0.02,0.039c-0.061,0.181-0.259,0.301-0.419,0.301c-0.061,0-0.12-0.02-0.18-0.04
			C34.491,28.909,34.472,28.889,34.451,28.869z"/>
		<path fill="#FFFFFF" d="M53.737,23.148c0-1.66-1.337-3.021-3.013-3.021c-1.655,0-2.991,1.361-3.031,3.021v5.32v0.08
			c-0.021,0.08-0.04,0.16-0.101,0.221c-0.08,0.119-0.219,0.18-0.358,0.18h-0.119c-0.141-0.04-0.261-0.141-0.319-0.26
			c-0.02-0.021-0.02-0.041-0.02-0.061s-0.021-0.039-0.021-0.039v-0.121v-5.32v-0.16v-3.341c0-0.261,0.199-0.48,0.479-0.48
			c0.259,0,0.459,0.22,0.459,0.48v0.94c0.718-0.861,1.814-1.421,3.031-1.421c2.194,0,3.97,1.8,3.97,3.981v5.32
			c0,0.28-0.22,0.48-0.479,0.48c-0.259,0-0.478-0.2-0.478-0.48V23.148z"/>
		<path fill="#FFFFFF" d="M57.524,15.426c0-0.26,0.22-0.479,0.479-0.479c0.279,0,0.499,0.22,0.499,0.479v13.043
			c0,0.26-0.22,0.48-0.499,0.48c-0.259,0-0.479-0.221-0.479-0.48V15.426z"/>
		<path fill="#FFFFFF" d="M64.923,19.146c2.573,0,4.628,2.241,4.628,4.902c0,2.66-2.055,4.9-4.628,4.9
			c-2.554,0-4.628-2.24-4.628-4.9C60.295,21.388,62.369,19.146,64.923,19.146z M64.923,27.989c1.995,0,3.67-1.761,3.67-3.94
			c0-2.182-1.675-3.961-3.67-3.961s-3.671,1.779-3.671,3.961C61.252,26.229,62.928,27.989,64.923,27.989z"/>
		<path fill="#FFFFFF" d="M79.82,19.627v8.842c0,0.26-0.219,0.48-0.479,0.48s-0.479-0.221-0.479-0.48v-1.46
			c-0.838,1.16-2.175,1.94-3.67,1.94c-2.573,0-4.628-2.221-4.628-4.9c0-2.682,2.055-4.902,4.628-4.902
			c1.495,0,2.832,0.761,3.67,1.921v-1.44c0-0.279,0.219-0.48,0.479-0.48S79.82,19.348,79.82,19.627z M78.863,24.049
			c0-2.201-1.655-3.961-3.67-3.961c-1.995,0-3.67,1.76-3.67,3.961c0,2.199,1.675,3.94,3.67,3.94
			C77.208,27.989,78.863,26.248,78.863,24.049z"/>
		<path fill="#FFFFFF" d="M90.19,27.049c-0.857,1.16-2.214,1.9-3.75,1.9c-2.633,0-4.728-2.201-4.728-4.881
			c0-2.721,2.095-4.922,4.728-4.922c1.536,0,2.893,0.761,3.75,1.921v-5.642c0-0.26,0.22-0.479,0.499-0.479
			c0.259,0,0.479,0.22,0.479,0.479v8.442v0.2v4.4c0,0.26-0.22,0.48-0.479,0.48c-0.279,0-0.499-0.221-0.499-0.48V27.049z
			 M90.19,24.229v-0.32c-0.08-2.101-1.735-3.781-3.75-3.781c-2.054,0-3.749,1.761-3.749,3.941c0,2.16,1.695,3.9,3.749,3.9
			C88.455,27.969,90.11,26.309,90.19,24.229z"/>
	</g>
</g>
</svg>
