<?xml version="1.0" encoding="utf-8"?>
<!-- Generator: Adobe Illustrator 16.0.4, SVG Export Plug-In . SVG Version: 6.00 Build 0)  -->
<!DOCTYPE svg PUBLIC "-//W3C//DTD SVG 1.1//EN" "http://www.w3.org/Graphics/SVG/1.1/DTD/svg11.dtd">
<svg version="1.1" xmlns="http://www.w3.org/2000/svg" xmlns:xlink="http://www.w3.org/1999/xlink" x="0px" y="0px" width="440px"
	 height="344px" viewBox="0 0 440 344" enable-background="new 0 0 440 344" xml:space="preserve">
<g id="Layer_1">
</g>
<g id="person">
	<path fill="#FFFFFF" d="M20,61v-4.059c0,0,0.235-2.491,2.902-3.265c0,0,4.296-1.764,7.66-3.41c1.74-0.852,2.114-1.363,3.869-2.236
		c0,0,0.184-1.014,0.117-1.617h1.373c0,0,0.313,0.206,0-2.177c0,0-1.673-0.499-1.751-4.293c0,0-1.257,0.477-1.334-1.823
		c-0.052-1.558-1.124-2.911,0.419-4.028l-0.784-2.382c0,0-1.569-9.617,2.94-8.205c-1.902-2.558,10.784-5.116,11.608,3
		c0,0,0.588,4.382,0,7.381c0,0,1.853-0.241,0.614,3.766c0,0-0.68,2.881-1.726,2.234c0,0,0.171,3.646-1.477,4.265
		c0,0,0.117,1.94,0.117,2.072l1.569,0.265c0,0-0.236,1.589,0.039,1.765c0,0,1.86,1.434,4.077,2.074
		c4.275,1.233,9.334,3.352,9.334,5.204c0,0,0.431,2.471,0.431,5.47H20z"/>
</g>
<g id="phone">
	<path fill="#FFFFFF" d="M110.229,24.311c0,0-2.177,10.912,11.004,24.223c0.122,0.123,0.24,0.234,0.36,0.355
		c0.119,0.12,0.229,0.242,0.352,0.364c13.18,13.312,24.448,11.581,24.448,11.581c3.825-0.262,5.853-9.24,0.196-10.75
		c-6.667-1.777-7.987-2.72-10.122-2.598c-2.264,0.131-1.472,3.261-3.416,3.648c-1.88,0.377-5.6-2.057-8.482-5.046
		c-2.961-2.913-5.321-6.623-4.871-8.438c0.467-1.879,3.65-0.997,3.866-3.197c0.202-2.076-0.717-3.395-2.304-9.95
		C119.913,18.943,110.635,20.596,110.229,24.311z"/>
</g>
<g id="store_locator">
	<path fill="#FFFFFF" d="M220.251,21C212.379,21,206,27.38,206,35.251c0,7.872,14.25,25.65,14.25,25.65S234.5,43.123,234.5,35.251
		C234.5,27.38,228.122,21,220.251,21z M220.251,38.101c-3.148,0-5.701-2.552-5.701-5.7c0-3.148,2.553-5.701,5.701-5.701
		c3.147,0,5.7,2.552,5.7,5.701C225.951,35.548,223.398,38.101,220.251,38.101z"/>
</g>
<g id="manifying_glass">
	<path fill-rule="evenodd" clip-rule="evenodd" fill="#FFFFFF" d="M294.559,47.568c5.299,5.298,13.467,5.975,19.5,2.033
		c0.158,0.3,0.346,0.586,0.596,0.837l9.57,9.57c1.322,1.321,3.463,1.321,4.785,0c1.32-1.321,1.32-3.463,0-4.785l-9.568-9.569
		c-0.254-0.25-0.541-0.44-0.838-0.594c3.941-6.035,3.266-14.203-2.035-19.502c-6.078-6.078-15.932-6.078-22.01,0
		S288.48,41.491,294.559,47.568z M298.386,29.387c3.964-3.964,10.39-3.964,14.354,0c3.965,3.963,3.965,10.389,0,14.354
		c-3.965,3.965-10.391,3.965-14.354,0C294.425,39.775,294.425,33.35,298.386,29.387z"/>
</g>
<g id="wishlist">
	<path fill-rule="evenodd" clip-rule="evenodd" fill="#FFFFFF" d="M408.75,24c-3.002,0-5.412,1.048-7.539,3.114
		c0,0-0.004,0-0.004,0.001h-0.001l-1.205,1.479l-1.207-1.391c-0.001,0-0.001,0-0.005-0.001l0,0l0,0
		C396.662,25.138,394.254,24,391.25,24s-5.832,1.138-7.954,3.202C381.169,29.264,380,32.01,380,34.928
		c0,2.92,1.168,5.661,3.294,7.725l14.93,14.629c0.47,0.46,1.11,0.719,1.777,0.719c0.668,0,1.307-0.258,1.775-0.719l14.929-14.628
		c2.127-2.062,3.295-4.805,3.295-7.725c0-2.917-1.168-5.664-3.295-7.726C414.583,25.138,411.755,24,408.75,24L408.75,24z"/>
</g>
<g id="basket">
	<g>
		<path fill="#FFFFFF" d="M420,127.458c0-0.003,0-0.008,0-0.012c0-0.048-0.004-0.095-0.007-0.142
			c-0.002-0.027-0.006-0.055-0.009-0.081c-0.003-0.025-0.005-0.051-0.011-0.076c-0.137-0.86-0.829-1.53-1.688-1.604h-36.41
			c-1.036,0-1.875,0.86-1.875,1.922c0,1.062,0.839,1.923,1.875,1.923h1.661l4.021,16.489l0.002-0.001
			c0.207,0.836,0.938,1.457,1.815,1.457c0.004,0,0.007-0.001,0.011-0.001v0.001h21.239c0.878,0,1.61-0.621,1.812-1.458l0.008,0
			l4.019-16.487h1.661c1.036,0,1.875-0.861,1.875-1.923c0-0.001,0-0.001,0-0.003C420,127.461,420,127.46,420,127.458
			 M394.375,141.566c0,1.062-0.839,1.922-1.875,1.922s-1.875-0.86-1.875-1.922v-10.254c0-1.062,0.839-1.922,1.875-1.922
			s1.875,0.86,1.875,1.922V141.566z M401.875,141.566c0,1.062-0.839,1.922-1.875,1.922s-1.875-0.86-1.875-1.922v-10.254
			c0-1.062,0.839-1.922,1.875-1.922s1.875,0.86,1.875,1.922V141.566z M409.375,141.566c0,1.062-0.839,1.922-1.875,1.922
			s-1.875-0.86-1.875-1.922v-10.254c0-1.062,0.839-1.922,1.875-1.922s1.875,0.86,1.875,1.922V141.566z M402.114,115.697l4.146,8.031
			h4.243l-5.074-9.829l-0.007,0.004c-0.31-0.632-0.938-1.069-1.673-1.069c-1.036,0-1.875,0.86-1.875,1.922
			c0,0.343,0.094,0.658,0.249,0.938L402.114,115.697z M397.89,115.697l-0.01-0.006c0.151-0.279,0.245-0.593,0.245-0.936
			c0-1.062-0.839-1.922-1.875-1.922c-0.735,0-1.363,0.437-1.673,1.067l-0.003-0.002l-5.075,9.829h4.244L397.89,115.697z"/>
	</g>
</g>
<g id="delivery">
	<g id="Your_Icon">
		<path fill="#FFFFFF" d="M32.219,139.666c0,2.331-1.893,4.221-4.229,4.221c-2.334,0-4.228-1.89-4.228-4.221
			s1.894-4.221,4.228-4.221C30.326,135.445,32.219,137.335,32.219,139.666z M60,133.612v4.534c0,0.836-0.682,1.517-1.518,1.517
			h-0.695c0-3.028-2.461-5.482-5.488-5.482c-3.028,0-5.488,2.454-5.488,5.482H33.486c0-3.028-2.461-5.482-5.494-5.482
			c-3.039,0-5.5,2.454-5.5,5.482h-0.971c-0.836,0-1.521-0.681-1.521-1.517v-6.142h0.006v-11.744c0-0.385,0.289-0.707,0.664-0.75
			c0.032-0.011,0.064-0.011,0.097-0.011h26.028c0.835,0,1.842,0.601,2.238,1.335l4.027,7.455c0.395,0.734,1.355,1.586,2.133,1.898
			l3.397,1.35C59.368,131.843,60,132.782,60,133.612z M50.947,129.56l-3.768-6.85c-0.204-0.364-0.708-0.665-1.127-0.665h-3.536
			c-0.418,0-0.761,0.343-0.761,0.761v6.657c0,0.418,0.343,0.761,0.761,0.761h8.04C50.975,130.225,51.15,129.925,50.947,129.56z
			 M20.67,119.5v0.011c0.032-0.011,0.065-0.011,0.098-0.011H20.67z M52.299,135.445c-2.332,0-4.222,1.89-4.222,4.221
			s1.89,4.221,4.222,4.221s4.221-1.89,4.221-4.221S54.629,135.445,52.299,135.445z"/>
	</g>
</g>
<g id="Detailed_Icons">
	<path fill="#FFFFFF" d="M130,112c-11.028,0-20,7.371-20,16.432c0,4.874,2.611,9.469,7.163,12.606l0.605,0.417l-0.187,0.711
		c-0.73,2.782-2.306,4.416-2.321,4.43c-0.453,0.454-0.615,1.158-0.422,1.836c0.011,0.043,0.026,0.083,0.04,0.115
		c0.28,0.653,0.925,1.074,1.643,1.074c4.37,0,7.995-2.505,10.267-4.606l0.344-0.317l0.467,0.045c0.834,0.081,1.642,0.122,2.4,0.122
		c11.028,0,20-7.373,20-16.433C150,119.371,141.028,112,130,112z M138.914,132.584h-17.167c-0.557,0-1.009-0.452-1.009-1.01
		c0-0.557,0.452-1.009,1.009-1.009h17.167c0.558,0,1.01,0.452,1.01,1.009C139.923,132.132,139.471,132.584,138.914,132.584z
		 M138.914,126.671h-17.167c-0.557,0-1.009-0.452-1.009-1.009c0-0.558,0.452-1.009,1.009-1.009h17.167
		c0.558,0,1.01,0.451,1.01,1.009C139.923,126.219,139.471,126.671,138.914,126.671z"/>
</g>
<g id="card">
	<path fill-rule="evenodd" clip-rule="evenodd" fill="#FFFFFF" d="M238.125,144.5h-36.25c-1.036,0-1.875-0.839-1.875-1.875V128.25
		h40v14.375C240,143.661,239.161,144.5,238.125,144.5 M203.75,140.75h7.5v-1.875h-7.5V140.75z M222.5,135.125h-18.75V137h18.75
		V135.125z M200,118.875c0-1.036,0.839-1.875,1.875-1.875h36.25c1.036,0,1.875,0.839,1.875,1.875v5.625h-40V118.875z"/>
</g>
<g id="confimration">
	<path fill="#FFFFFF" d="M310,111c-11.045,0-20,8.954-20,20s8.955,20,20,20c11.046,0,20-8.954,20-20S321.046,111,310,111z
		 M321.41,126.921l-12.26,12.259c-0.564,0.565-1.309,0.852-2.055,0.852c-0.666,0-1.334-0.229-1.88-0.692l-6.45-5.486
		c-1.223-1.037-1.369-2.871-0.332-4.092c1.039-1.221,2.874-1.37,4.092-0.331l4.412,3.75l10.366-10.366
		c1.134-1.134,2.971-1.134,4.106,0C322.543,123.949,322.543,125.787,321.41,126.921z"/>
</g>
<g id="visa">
	<path fill="#FFFFFF" d="M60,233c0,1.104-0.896,2-2,2H22c-1.104,0-2-0.896-2-2v-24c0-1.104,0.896-2,2-2h36c1.104,0,2,0.896,2,2V233z
		"/>
	<g>
		<g>
			<g>
				<polygon fill="#0066B2" points="38.275,225.344 36.161,225.344 37.483,217.218 39.598,217.218 				"/>
				<path fill="#0066B2" d="M34.381,217.218l-2.018,5.59l-0.238-1.206l0.001,0.003l-0.713-3.654c0,0-0.085-0.732-1.005-0.732h-3.333
					l-0.039,0.137c0,0,1.02,0.213,2.212,0.93l1.837,7.06h2.206l3.365-8.126H34.381z"/>
				<path fill="#0066B2" d="M51.021,225.344h1.941l-1.693-8.126h-1.701c-0.786,0-0.977,0.605-0.977,0.605l-3.154,7.521h2.205
					l0.441-1.207h2.689L51.021,225.344z M48.694,222.469l1.111-3.039l0.626,3.039H48.694z"/>
				<path fill="#0066B2" d="M45.604,219.171l0.302-1.745c0,0-0.934-0.354-1.903-0.354c-1.051,0-3.543,0.463-3.543,2.691
					c0,2.1,2.926,2.124,2.926,3.229c0,1.102-2.625,0.906-3.49,0.209l-0.316,1.826c0,0,0.946,0.458,2.388,0.458
					c1.445,0,3.625-0.749,3.625-2.782c0-2.112-2.955-2.311-2.955-3.227C42.637,218.555,44.697,218.673,45.604,219.171z"/>
			</g>
			<path fill="#F9A533" d="M32.126,221.604l-0.713-3.654c0,0-0.085-0.732-1.005-0.732h-3.333l-0.039,0.137
				c0,0,1.602,0.333,3.139,1.576C31.646,220.122,32.126,221.604,32.126,221.604z"/>
		</g>
	</g>
	<g>
		<path fill="#FFFFFF" d="M58,297H22c-1.104,0-2,0.896-2,2v24c0,1.104,0.896,2,2,2h36c1.104,0,2-0.896,2-2v-24
			C60,297.896,59.104,297,58,297z M31.086,315.844l-1.835-7.052c-0.041-0.024-0.083-0.053-0.124-0.076
			c-0.068-0.039-0.136-0.077-0.203-0.113c-0.102-0.056-0.201-0.106-0.298-0.155c-0.061-0.029-0.123-0.062-0.181-0.089
			c-0.116-0.054-0.225-0.101-0.331-0.145c-0.059-0.024-0.115-0.048-0.17-0.069c-0.1-0.039-0.196-0.075-0.282-0.105
			c-0.05-0.017-0.093-0.03-0.138-0.045c-0.059-0.02-0.118-0.039-0.167-0.053c-0.035-0.011-0.069-0.021-0.099-0.029
			c-0.045-0.013-0.086-0.024-0.117-0.032c-0.017-0.004-0.039-0.01-0.051-0.013c-0.026-0.007-0.054-0.013-0.054-0.013l0.039-0.137
			h3.333c0.919,0,1.005,0.732,1.005,0.732l0.713,3.654l-0.001-0.003l0.238,1.206l2.018-5.59h2.277l-3.365,8.126H31.086z
			 M36.161,315.844l1.322-8.126h2.115l-1.323,8.126H36.161z M41.967,315.984c-1.442,0-2.388-0.458-2.388-0.458l0.316-1.826
			c0.864,0.697,3.49,0.893,3.49-0.209c0-1.104-2.926-1.129-2.926-3.229c0-2.229,2.493-2.691,3.543-2.691
			c0.97,0,1.903,0.354,1.903,0.354l-0.302,1.745c-0.907-0.498-2.967-0.616-2.967,0.305c0,0.916,2.955,1.114,2.955,3.227
			C45.592,315.235,43.412,315.984,41.967,315.984z M51.021,315.844l-0.249-1.207h-2.689l-0.441,1.207h-2.205l3.154-7.521
			c0,0,0.191-0.605,0.977-0.605h1.701l1.693,8.126H51.021z"/>
		<polygon fill="#FFFFFF" points="48.694,312.469 50.431,312.469 49.805,309.43 		"/>
	</g>
</g>
<g id="maestro">
	<g>
		<path fill="#FFFFFF" d="M150,233c0,1.104-0.896,2-2,2h-36c-1.104,0-2-0.896-2-2v-24c0-1.104,0.896-2,2-2h36c1.104,0,2,0.896,2,2
			V233z"/>
		<g>
			<path fill-rule="evenodd" clip-rule="evenodd" fill="#009DDD" d="M130,226.337c1.463-1.322,2.385-3.238,2.385-5.368
				c0-2.129-0.922-4.046-2.385-5.38c-1.278-1.164-2.982-1.874-4.856-1.874c-4.004,0-7.256,3.25-7.256,7.254s3.252,7.242,7.256,7.242
				C127.018,228.211,128.722,227.5,130,226.337L130,226.337z"/>
			<path fill-rule="evenodd" clip-rule="evenodd" fill="#009DDD" d="M130,226.337c1.463-1.322,2.385-3.238,2.385-5.368
				c0-2.129-0.922-4.046-2.385-5.38V226.337L130,226.337z"/>
			<path fill-rule="evenodd" clip-rule="evenodd" fill="#ED1C2E" d="M134.87,213.715c-1.874,0-3.577,0.71-4.87,1.874
				c-0.254,0.242-0.496,0.497-0.724,0.767h1.461c0.199,0.241,0.386,0.511,0.556,0.765h-2.57c-0.156,0.258-0.298,0.513-0.427,0.77
				h3.408c0.114,0.254,0.228,0.509,0.312,0.764h-4.018c-0.085,0.258-0.156,0.514-0.212,0.781h4.443
				c0.101,0.484,0.156,1.01,0.156,1.534c0,0.796-0.128,1.578-0.37,2.301h-4.018c0.085,0.255,0.184,0.511,0.298,0.767h3.408
				c-0.127,0.257-0.254,0.525-0.411,0.766h-2.57c0.17,0.271,0.354,0.525,0.554,0.77h1.461c-0.224,0.269-0.467,0.522-0.737,0.766
				c1.292,1.163,2.996,1.874,4.87,1.874c4.004,0,7.242-3.238,7.242-7.242S138.874,213.715,134.87,213.715L134.87,213.715z"/>
			<polygon fill-rule="evenodd" clip-rule="evenodd" fill="#003473" points="124.007,222.984 123.1,222.984 123.639,220.161 
				122.403,222.984 121.635,222.984 121.479,220.173 120.885,222.984 120.06,222.984 120.756,219.309 122.19,219.309 
				122.206,221.579 123.199,219.309 124.718,219.309 124.007,222.984 			"/>
			<path fill-rule="evenodd" clip-rule="evenodd" fill="#003473" d="M134.089,222.944c-0.255,0.07-0.439,0.099-0.652,0.099
				c-0.457,0-0.711-0.227-0.711-0.653c0-0.086,0.014-0.187,0.029-0.27l0.056-0.299l0.043-0.228l0.411-2.285h0.896l-0.128,0.681
				h0.454l-0.114,0.725h-0.468l-0.242,1.25c0,0.056-0.013,0.098-0.013,0.127c0,0.154,0.098,0.213,0.312,0.213
				c0.098,0,0.185,0,0.24-0.026L134.089,222.944L134.089,222.944z"/>
			<path fill-rule="evenodd" clip-rule="evenodd" fill="#003473" d="M130.513,220.941c0,0.368,0.21,0.638,0.68,0.823
				c0.383,0.156,0.441,0.199,0.441,0.341c0,0.185-0.171,0.27-0.527,0.27c-0.285,0-0.524-0.043-0.824-0.13l-0.127,0.699h0.043
				l0.17,0.028c0.057,0.012,0.127,0.028,0.241,0.028c0.212,0.014,0.384,0.027,0.497,0.027c0.965,0,1.406-0.312,1.406-0.994
				c0-0.412-0.184-0.652-0.64-0.836c-0.383-0.145-0.425-0.187-0.425-0.328c0-0.156,0.156-0.241,0.438-0.241
				c0.186,0,0.428,0.013,0.669,0.043l0.127-0.683c-0.241-0.041-0.595-0.07-0.81-0.07
				C130.852,219.919,130.497,220.388,130.513,220.941L130.513,220.941z"/>
			<path fill-rule="evenodd" clip-rule="evenodd" fill="#003473" d="M126.932,222.984h-0.752l0.014-0.312
				c-0.228,0.243-0.538,0.356-0.95,0.356c-0.484,0-0.823-0.326-0.823-0.81c0-0.724,0.582-1.151,1.588-1.151
				c0.102,0,0.229,0,0.37,0.015c0.029-0.099,0.029-0.141,0.029-0.185c0-0.197-0.156-0.284-0.582-0.284
				c-0.256,0-0.541,0.043-0.739,0.087l-0.128,0.041l-0.084,0.016l0.127-0.667c0.456-0.129,0.752-0.171,1.08-0.171
				c0.78,0,1.192,0.312,1.192,0.879c0,0.156-0.014,0.256-0.084,0.598l-0.185,1.053l-0.03,0.196l-0.028,0.156l-0.015,0.101V222.984
				L126.932,222.984z M126.322,221.651c-0.1-0.014-0.142-0.014-0.212-0.014c-0.512,0-0.768,0.155-0.768,0.453
				c0,0.187,0.128,0.299,0.328,0.299C126.039,222.39,126.308,222.091,126.322,221.651L126.322,221.651z"/>
			<path fill-rule="evenodd" clip-rule="evenodd" fill="#003473" d="M129.887,222.915c-0.297,0.086-0.597,0.128-0.923,0.128
				c-1.008,0-1.533-0.468-1.533-1.349c0-1.022,0.666-1.775,1.576-1.775c0.753,0,1.221,0.425,1.221,1.078
				c0,0.229-0.028,0.44-0.113,0.738h-1.788c-0.015,0.058-0.015,0.072-0.015,0.1c0,0.341,0.27,0.524,0.794,0.524
				c0.328,0,0.612-0.056,0.938-0.198L129.887,222.915L129.887,222.915z M129.461,221.141c0-0.073,0-0.114,0-0.157
				c0-0.242-0.157-0.383-0.427-0.383c-0.284,0-0.497,0.185-0.582,0.54H129.461L129.461,221.141z"/>
			<path fill-rule="evenodd" clip-rule="evenodd" fill="#003473" d="M139.514,221.622c-0.128,0.994-0.824,1.436-1.747,1.436
				c-1.022,0-1.433-0.609-1.433-1.379c0-1.05,0.695-1.772,1.774-1.772c0.937,0,1.434,0.594,1.434,1.348
				C139.542,221.438,139.542,221.454,139.514,221.622L139.514,221.622z M138.605,221.267c0-0.312-0.128-0.61-0.497-0.61
				c-0.454,0-0.752,0.555-0.752,1.022c0,0.412,0.198,0.681,0.525,0.681c0.198,0,0.609-0.269,0.696-0.737
				C138.592,221.522,138.605,221.396,138.605,221.267L138.605,221.267z"/>
			<polygon fill-rule="evenodd" clip-rule="evenodd" fill="#FFFFFF" points="124.235,222.772 123.327,222.772 123.866,219.948 
				122.63,222.772 121.807,222.772 121.664,219.961 121.125,222.772 120.301,222.772 120.998,219.095 122.417,219.095 
				122.489,221.366 123.483,219.095 124.945,219.095 124.235,222.772 			"/>
			<path fill-rule="evenodd" clip-rule="evenodd" fill="#FFFFFF" d="M134.316,222.731c-0.256,0.069-0.439,0.097-0.654,0.097
				c-0.454,0-0.71-0.226-0.71-0.652c0-0.085,0.014-0.171,0.028-0.27l0.058-0.296l0.042-0.229l0.413-2.287h0.894l-0.128,0.682h0.468
				l-0.126,0.724h-0.47l-0.227,1.25c-0.014,0.058-0.028,0.099-0.028,0.129c0,0.155,0.099,0.227,0.312,0.227
				c0.099,0,0.184-0.015,0.241-0.028L134.316,222.731L134.316,222.731z"/>
			<path fill-rule="evenodd" clip-rule="evenodd" fill="#003473" d="M136.63,220.642l-0.015-0.098l0.171-0.469
				c-0.042,0-0.057,0-0.07-0.013c-0.043,0-0.072-0.016-0.072-0.016c-0.029,0-0.056,0-0.084,0c-0.299,0-0.512,0.126-0.797,0.48
				l0.101-0.538h-0.937l-0.556,2.995h0.896c0.128-0.694,0.184-1.078,0.254-1.405c0.116-0.537,0.513-0.781,0.812-0.724
				c0.027,0,0.055,0,0.098,0.015l0.058,0.027L136.63,220.642L136.63,220.642z"/>
			<path fill-rule="evenodd" clip-rule="evenodd" fill="#FFFFFF" d="M136.943,219.804c-0.071-0.027-0.086-0.027-0.1-0.027
				c-0.043-0.014-0.072-0.014-0.072-0.026c-0.027,0-0.055,0-0.099,0c-0.298,0-0.511,0.125-0.781,0.481l0.086-0.455h-0.823
				l-0.554,2.996h0.908c0.325-1.831,0.454-2.159,0.895-2.159c0.028,0,0.071,0.016,0.113,0.016l0.098,0.027L136.943,219.804
				L136.943,219.804z"/>
			<path fill-rule="evenodd" clip-rule="evenodd" fill="#FFFFFF" d="M130.737,220.729c0,0.368,0.213,0.637,0.697,0.821
				c0.369,0.156,0.425,0.199,0.425,0.34c0,0.187-0.17,0.271-0.524,0.271c-0.271,0-0.525-0.041-0.822-0.127l-0.115,0.697h0.042
				l0.156,0.041c0.057,0,0.141,0.016,0.242,0.016c0.213,0.028,0.383,0.028,0.51,0.028c0.953,0,1.407-0.313,1.407-0.995
				c0-0.411-0.185-0.653-0.654-0.838c-0.384-0.144-0.425-0.186-0.425-0.327c0-0.156,0.156-0.239,0.455-0.239
				c0.17,0,0.426,0.013,0.652,0.041l0.127-0.682c-0.242-0.041-0.595-0.058-0.793-0.058
				C131.094,219.719,130.737,220.173,130.737,220.729L130.737,220.729z"/>
			<path fill-rule="evenodd" clip-rule="evenodd" fill="#FFFFFF" d="M127.161,222.772h-0.739l0.014-0.312
				c-0.227,0.242-0.541,0.356-0.951,0.356c-0.482,0-0.823-0.328-0.823-0.812c0-0.724,0.582-1.149,1.59-1.149
				c0.098,0,0.227,0,0.37,0.015c0.027-0.101,0.027-0.141,0.027-0.186c0-0.199-0.156-0.268-0.582-0.268
				c-0.254,0-0.54,0.027-0.738,0.068l-0.128,0.042l-0.085,0.017l0.128-0.669c0.454-0.112,0.739-0.156,1.079-0.156
				c0.781,0,1.179,0.298,1.179,0.867c0,0.155-0.015,0.27-0.071,0.597l-0.184,1.062l-0.029,0.186l-0.028,0.158l-0.014,0.099
				L127.161,222.772L127.161,222.772z M126.506,221.438c-0.099-0.015-0.142-0.015-0.198-0.015c-0.51,0-0.765,0.156-0.765,0.456
				c0,0.183,0.113,0.312,0.309,0.312C126.223,222.19,126.493,221.879,126.506,221.438L126.506,221.438z"/>
			<path fill-rule="evenodd" clip-rule="evenodd" fill="#FFFFFF" d="M130.127,222.702c-0.313,0.086-0.609,0.126-0.923,0.126
				c-1.007,0-1.533-0.469-1.533-1.347c0-1.023,0.668-1.775,1.576-1.775c0.739,0,1.207,0.427,1.207,1.079
				c0,0.227-0.028,0.44-0.099,0.737h-1.803c0,0.057,0,0.071,0,0.1c0,0.342,0.256,0.525,0.78,0.525c0.326,0,0.626-0.057,0.938-0.184
				L130.127,222.702L130.127,222.702z M129.646,220.926c0-0.056,0-0.113,0-0.156c0-0.242-0.158-0.382-0.427-0.382
				c-0.284,0-0.482,0.198-0.567,0.538H129.646L129.646,220.926z"/>
			<path fill-rule="evenodd" clip-rule="evenodd" fill="#FFFFFF" d="M139.754,221.41c-0.143,0.992-0.838,1.434-1.76,1.434
				c-1.008,0-1.42-0.61-1.42-1.378c0-1.049,0.695-1.774,1.775-1.774c0.937,0,1.434,0.597,1.434,1.351
				C139.783,221.226,139.783,221.238,139.754,221.41L139.754,221.41z M138.818,221.026c0-0.312-0.128-0.597-0.498-0.597
				c-0.455,0-0.738,0.539-0.738,1.024c0,0.395,0.199,0.666,0.512,0.666c0.198,0,0.624-0.271,0.694-0.725
				C138.818,221.281,138.818,221.156,138.818,221.026L138.818,221.026z"/>
		</g>
	</g>
	<g>
		<path fill="#FFFFFF" d="M133.877,312.879c0-0.03,0.014-0.071,0.028-0.129l0.227-1.25h0.47l0.126-0.724h-0.468l0.128-0.682h-0.894
			l-0.413,2.287l-0.042,0.229l-0.058,0.296c-0.014,0.099-0.028,0.185-0.028,0.27c0,0.427,0.256,0.652,0.71,0.652
			c0.214,0,0.398-0.027,0.654-0.097l0.113-0.654c-0.057,0.014-0.142,0.028-0.241,0.028
			C133.976,313.105,133.877,313.034,133.877,312.879z"/>
		<path fill="#FFFFFF" d="M136.943,310.804c-0.071-0.027-0.086-0.027-0.1-0.027c-0.043-0.014-0.072-0.014-0.072-0.026
			c-0.027,0-0.055,0-0.099,0c-0.298,0-0.511,0.125-0.781,0.481l0.086-0.455h-0.823l-0.554,2.996h0.908
			c0.325-1.831,0.454-2.159,0.895-2.159c0.028,0,0.071,0.016,0.113,0.016l0.098,0.027L136.943,310.804z"/>
		<path fill="#FFFFFF" d="M130.737,311.729c0,0.368,0.213,0.637,0.697,0.821c0.369,0.156,0.425,0.199,0.425,0.34
			c0,0.187-0.17,0.271-0.524,0.271c-0.271,0-0.525-0.041-0.822-0.127l-0.115,0.697h0.042l0.156,0.041
			c0.057,0,0.141,0.016,0.242,0.016c0.213,0.028,0.383,0.028,0.51,0.028c0.953,0,1.407-0.313,1.407-0.995
			c0-0.411-0.185-0.653-0.654-0.838c-0.384-0.144-0.425-0.186-0.425-0.327c0-0.156,0.156-0.239,0.455-0.239
			c0.17,0,0.426,0.013,0.652,0.041l0.127-0.682c-0.242-0.041-0.595-0.058-0.793-0.058
			C131.094,310.719,130.737,311.173,130.737,311.729z"/>
		<path fill="#FFFFFF" d="M130.355,312.522c0.071-0.297,0.099-0.511,0.099-0.737c0-0.652-0.468-1.079-1.207-1.079
			c-0.908,0-1.576,0.752-1.576,1.775c0,0.878,0.525,1.347,1.533,1.347c0.313,0,0.61-0.04,0.923-0.126l0.143-0.738
			c-0.312,0.127-0.612,0.184-0.938,0.184c-0.524,0-0.78-0.184-0.78-0.525c0-0.028,0-0.043,0-0.1H130.355z M129.219,311.388
			c0.27,0,0.427,0.14,0.427,0.382c0,0.043,0,0.101,0,0.156h-0.994C128.737,311.586,128.935,311.388,129.219,311.388z"/>
		<polygon fill="#FFFFFF" points="123.483,310.095 122.489,312.366 122.417,310.095 120.998,310.095 120.301,313.772 
			121.125,313.772 121.664,310.961 121.807,313.772 122.63,313.772 123.866,310.948 123.327,313.772 124.235,313.772 
			124.945,310.095 		"/>
		<path fill="#FFFFFF" d="M126.322,310.719c-0.34,0-0.625,0.044-1.079,0.156l-0.128,0.669l0.085-0.017l0.128-0.042
			c0.198-0.041,0.483-0.068,0.738-0.068c0.426,0,0.582,0.068,0.582,0.268c0,0.045,0,0.085-0.027,0.186
			c-0.143-0.015-0.271-0.015-0.37-0.015c-1.008,0-1.59,0.426-1.59,1.149c0,0.483,0.34,0.812,0.823,0.812
			c0.411,0,0.724-0.114,0.951-0.356l-0.014,0.312h0.739l0.015-0.085l0.014-0.099l0.028-0.158l0.029-0.186l0.184-1.062
			c0.057-0.327,0.071-0.441,0.071-0.597C127.501,311.017,127.104,310.719,126.322,310.719z M125.852,313.19
			c-0.196,0-0.309-0.129-0.309-0.312c0-0.3,0.255-0.456,0.765-0.456c0.057,0,0.1,0,0.198,0.015
			C126.493,312.879,126.223,313.19,125.852,313.19z"/>
		<path fill="#FFFFFF" d="M138.349,310.691c-1.08,0-1.775,0.726-1.775,1.774c0,0.768,0.412,1.378,1.42,1.378
			c0.922,0,1.618-0.441,1.76-1.434c0.028-0.172,0.028-0.185,0.028-0.368C139.783,311.288,139.286,310.691,138.349,310.691z
			 M138.788,312.396c-0.07,0.453-0.496,0.725-0.694,0.725c-0.312,0-0.512-0.271-0.512-0.666c0-0.485,0.283-1.024,0.738-1.024
			c0.369,0,0.498,0.284,0.498,0.597C138.818,312.156,138.818,312.281,138.788,312.396z"/>
		<path fill="#FFFFFF" d="M148,297h-36c-1.104,0-2,0.896-2,2v24c0,1.104,0.896,2,2,2h36c1.104,0,2-0.896,2-2v-24
			C150,297.896,149.104,297,148,297z M134.87,319.211c-1.874,0-3.577-0.711-4.87-1.874c-1.278,1.163-2.982,1.874-4.856,1.874
			c-4.004,0-7.256-3.238-7.256-7.242s3.252-7.254,7.256-7.254c1.874,0,3.578,0.71,4.856,1.874c1.292-1.164,2.996-1.874,4.87-1.874
			c4.004,0,7.242,3.25,7.242,7.254S138.874,319.211,134.87,319.211z"/>
	</g>
</g>
<g id="mastercard">
	<g id="payment_shapes_v2">
		<path fill="#FFFFFF" d="M240,233c0,1.104-0.896,2-2,2h-36c-1.104,0-2-0.896-2-2v-24c0-1.104,0.896-2,2-2h36c1.104,0,2,0.896,2,2
			V233z"/>
	</g>
	<g>
		<g>
			<path fill="#F28527" d="M217.104,220.962c0-3.97,3.22-7.186,7.187-7.186c3.969,0,7.188,3.216,7.188,7.186
				c0,3.968-3.219,7.187-7.188,7.187C220.324,228.148,217.104,224.93,217.104,220.962L217.104,220.962z"/>
			<path fill="#ED2129" d="M219.475,215.614c0.005,0-0.374,0.326-0.627,0.65h1.277c0,0,0.439,0.473,0.6,0.828h-2.5
				c0,0-0.242,0.379-0.401,0.703h3.303c0,0,0.303,0.564,0.371,0.863h-4.02c0,0-0.14,0.392-0.195,0.68l4.399-0.008
				c0.121,0.555,0.414,2.16-0.191,3.936l-3.996,0.004c0.062,0.213,0.173,0.503,0.276,0.713h3.432
				c-0.139,0.29-0.341,0.652-0.456,0.836l-2.517,0.001c0.131,0.202,0.346,0.519,0.484,0.663h1.551
				c-0.292,0.4-0.785,0.813-0.785,0.813h-0.012l0.016,0.008c-1.273,1.146-2.958,1.844-4.805,1.844c-3.971,0-7.188-3.219-7.188-7.187
				c0-3.97,3.216-7.186,7.188-7.186C216.522,213.776,218.206,214.472,219.475,215.614L219.475,215.614z"/>
			<path fill="#323678" d="M215.932,219.942l-0.114,0.645l-0.63-0.014c0,0-0.316,0.082-0.316,0.213c0,0.136,0.232,0.3,0.581,0.451
				c0.349,0.148,0.366,0.56,0.332,0.842c-0.034,0.283-0.083,0.869-1.096,0.897c-0.58,0.017-0.895-0.099-0.895-0.099l0.133-0.663
				c0,0,0.745,0.198,0.913,0.082c0.164-0.117,0.365-0.315,0.048-0.446c-0.315-0.135-0.827-0.35-0.827-0.881s0.215-0.828,0.547-0.979
				C214.939,219.843,215.52,219.86,215.932,219.942L215.932,219.942z"/>
			<polygon fill="#323678" points="210.952,222.899 210.217,222.899 210.643,220.38 209.738,222.886 209.233,222.886 
				209.108,220.278 208.667,222.899 207.971,222.899 208.626,219.054 209.467,219.054 209.762,221.269 210.74,219.054 
				211.604,219.054 210.952,222.899 			"/>
			<path fill="#323678" d="M216.587,222.954c-0.24,0-0.41-0.055-0.511-0.154c-0.103-0.107-0.153-0.27-0.153-0.477
				c0-0.057,0.005-0.108,0.012-0.152c0.005-0.058,0.017-0.117,0.022-0.188l0.441-2.461h0.688l-0.102,0.48h0.645l-0.109,0.609h-0.642
				l-0.176,1.048c-0.01,0.071-0.023,0.137-0.035,0.215c-0.01,0.069-0.017,0.141-0.017,0.187c0,0.109,0.017,0.174,0.062,0.213
				c0.04,0.039,0.106,0.064,0.199,0.064c0.034,0,0.078-0.008,0.137-0.025c0.057-0.021,0.108-0.039,0.142-0.061h0.058l-0.111,0.617
				c-0.078,0.029-0.158,0.045-0.242,0.06C216.809,222.948,216.707,222.954,216.587,222.954L216.587,222.954z"/>
			<path fill="#323678" d="M221.518,220.812c-0.148-0.116-0.482-0.091-0.553,0.145l-0.328,1.942h-0.688l0.495-2.896h0.687
				l-0.016,0.234c0.133-0.132,0.277-0.244,0.646-0.232C221.783,220.007,221.541,220.434,221.518,220.812L221.518,220.812z"/>
			<path fill="#323678" d="M222.818,222.977c-0.379,0-0.682-0.129-0.887-0.384c-0.211-0.254-0.311-0.624-0.311-1.104
				c0-0.376,0.045-0.716,0.135-1.023c0.092-0.308,0.223-0.571,0.381-0.792c0.158-0.217,0.346-0.388,0.568-0.508
				c0.215-0.125,0.449-0.188,0.693-0.188c0.193,0,0.373,0.033,0.545,0.085c0.082,0.028,0.24,0.104,0.24,0.104l-0.158,0.912
				c-0.08-0.1-0.16-0.18-0.24-0.24c-0.119-0.074-0.264-0.121-0.42-0.121c-0.285,0-0.518,0.153-0.703,0.463
				c-0.184,0.308-0.275,0.699-0.275,1.179c0,0.309,0.053,0.532,0.154,0.671c0.102,0.129,0.25,0.199,0.441,0.199
				c0.176,0,0.342-0.046,0.494-0.137c0.074-0.049,0.145-0.101,0.215-0.155l-0.162,0.871c0,0-0.08,0.04-0.121,0.052
				c-0.096,0.039-0.182,0.062-0.254,0.088C223.074,222.964,222.961,222.977,222.818,222.977L222.818,222.977z"/>
			<path fill="#323678" d="M212.642,222.8c-0.027,0.025-0.058,0.039-0.078,0.053c-0.076,0.038-0.137,0.07-0.201,0.096
				c-0.061,0.016-0.148,0.028-0.259,0.028c-0.178,0-0.324-0.067-0.434-0.2c-0.113-0.137-0.17-0.316-0.17-0.53
				c0-0.23,0.041-0.425,0.119-0.586c0.081-0.153,0.199-0.289,0.359-0.379c0.148-0.091,0.324-0.155,0.522-0.191l0.142-0.024
				c0.165-0.03,0.334-0.053,0.523-0.061c0-0.018,0-0.031,0.005-0.053c0.007-0.026,0.007-0.049,0.007-0.078
				c0-0.124-0.041-0.209-0.125-0.262c-0.086-0.047-0.212-0.07-0.376-0.07h-0.034c-0.103,0.006-0.215,0.032-0.34,0.075
				c-0.137,0.055-0.238,0.091-0.308,0.133h-0.062l0.102-0.685c0.08-0.033,0.206-0.062,0.369-0.094
				c0.081-0.021,0.162-0.029,0.24-0.037c0.087-0.016,0.176-0.016,0.263-0.016c0.335,0,0.577,0.061,0.74,0.176
				c0.156,0.117,0.23,0.3,0.23,0.555c0,0.031,0,0.078-0.005,0.132c-0.005,0.055-0.01,0.099-0.017,0.145l-0.336,1.974h-0.683
				l0.052-0.307c-0.039,0.039-0.096,0.084-0.154,0.139C212.701,222.754,212.67,222.776,212.642,222.8L212.642,222.8z
				 M212.642,221.599c-0.076,0.014-0.137,0.039-0.187,0.062c-0.081,0.039-0.137,0.093-0.176,0.161
				c-0.047,0.07-0.065,0.162-0.065,0.277c0,0.102,0.029,0.168,0.081,0.206c0.056,0.04,0.132,0.065,0.238,0.065
				c0.033,0,0.069-0.008,0.108-0.025c0.034-0.006,0.067-0.021,0.109-0.04c0.07-0.043,0.146-0.099,0.215-0.16l0.103-0.617
				c-0.12,0.017-0.238,0.032-0.34,0.058C212.701,221.585,212.67,221.59,212.642,221.599L212.642,221.599z"/>
			<path fill="#323678" d="M218.584,220.504c-0.091,0.015-0.178,0.062-0.245,0.14c-0.098,0.106-0.17,0.246-0.221,0.431h0.466h0.46
				c0-0.031,0.005-0.056,0.005-0.087c0-0.021,0.007-0.053,0.007-0.074c0-0.141-0.034-0.241-0.097-0.318
				c-0.062-0.067-0.148-0.106-0.267-0.106C218.658,220.488,218.619,220.495,218.584,220.504L218.584,220.504z M218.584,222.323
				h0.103c0.146,0,0.289-0.03,0.423-0.102c0.133-0.07,0.25-0.147,0.349-0.23h0.08l-0.131,0.746
				c-0.129,0.078-0.272,0.141-0.421,0.178c-0.125,0.039-0.26,0.054-0.402,0.062h-0.062c-0.37,0-0.648-0.106-0.846-0.332
				c-0.198-0.215-0.295-0.516-0.295-0.899c0-0.262,0.034-0.508,0.098-0.727c0.061-0.222,0.157-0.413,0.276-0.586
				c0.12-0.16,0.262-0.284,0.438-0.385c0.125-0.061,0.258-0.105,0.393-0.129c0.062-0.008,0.125-0.008,0.188-0.008
				c0.318,0,0.556,0.082,0.722,0.264c0.16,0.166,0.238,0.431,0.238,0.767c0,0.116-0.007,0.231-0.022,0.348
				c-0.017,0.108-0.04,0.226-0.067,0.332h-1.058h-0.535v0.028v0.031c0,0.202,0.058,0.354,0.159,0.471
				C218.295,222.246,218.42,222.305,218.584,222.323L218.584,222.323z"/>
			<path fill="#323678" d="M225.023,222.8c-0.029,0.025-0.057,0.039-0.084,0.053c-0.068,0.038-0.137,0.07-0.199,0.096
				c-0.061,0.016-0.148,0.028-0.256,0.028c-0.182,0-0.326-0.067-0.439-0.2c-0.111-0.137-0.164-0.316-0.164-0.53
				c0-0.23,0.043-0.425,0.121-0.586c0.078-0.153,0.197-0.289,0.352-0.379c0.146-0.091,0.326-0.155,0.529-0.191
				c0.045-0.009,0.092-0.016,0.141-0.024c0.158-0.03,0.334-0.053,0.518-0.061c0.006-0.018,0.006-0.031,0.012-0.053
				c0-0.026,0.004-0.049,0.004-0.078c0-0.124-0.047-0.209-0.125-0.262c-0.084-0.047-0.209-0.07-0.373-0.07h-0.035
				c-0.107,0.006-0.221,0.032-0.342,0.075c-0.137,0.055-0.236,0.091-0.307,0.133h-0.061l0.096-0.685
				c0.08-0.033,0.205-0.062,0.373-0.094c0.082-0.021,0.16-0.029,0.24-0.037c0.086-0.016,0.17-0.016,0.264-0.016
				c0.332,0,0.576,0.061,0.736,0.176c0.154,0.117,0.232,0.3,0.232,0.555c0,0.031,0,0.078-0.006,0.132
				c-0.006,0.055-0.012,0.099-0.018,0.145l-0.334,1.974h-0.682l0.051-0.307c-0.045,0.039-0.096,0.084-0.158,0.139L225.023,222.8
				L225.023,222.8z M225.023,221.599c-0.074,0.014-0.137,0.039-0.193,0.062c-0.072,0.039-0.135,0.093-0.176,0.161
				c-0.039,0.07-0.062,0.162-0.062,0.277c0,0.102,0.029,0.168,0.088,0.206c0.049,0.04,0.127,0.065,0.23,0.065
				c0.033,0,0.072-0.008,0.113-0.025c0.035-0.006,0.068-0.021,0.102-0.04c0.08-0.043,0.148-0.099,0.217-0.16l0.107-0.617
				c-0.123,0.017-0.236,0.032-0.346,0.058C225.076,221.585,225.047,221.59,225.023,221.599L225.023,221.599z"/>
			<path fill="#323678" d="M227.924,220.812c-0.15-0.116-0.484-0.091-0.555,0.145l-0.33,1.942h-0.686l0.494-2.896h0.686
				l-0.014,0.234c0.131-0.132,0.275-0.244,0.645-0.232C228.186,220.007,227.943,220.434,227.924,220.812L227.924,220.812z"/>
			<path fill-rule="evenodd" clip-rule="evenodd" fill="#323678" d="M229.273,220.617c-0.033,0.017-0.068,0.04-0.098,0.063
				c-0.09,0.061-0.164,0.155-0.229,0.261c-0.049,0.108-0.094,0.231-0.123,0.395c-0.035,0.152-0.053,0.308-0.053,0.456
				c0,0.177,0.035,0.301,0.094,0.379c0.061,0.082,0.152,0.122,0.273,0.122c0.043,0,0.088-0.009,0.135-0.031
				c0.023-0.009,0.041-0.016,0.062-0.032c0.068-0.039,0.131-0.078,0.193-0.131l0.242-1.427c-0.039-0.022-0.082-0.046-0.145-0.06
				c-0.059-0.025-0.109-0.033-0.156-0.033C229.396,220.579,229.336,220.595,229.273,220.617L229.273,220.617z M229.273,222.747
				c-0.053,0.046-0.107,0.092-0.17,0.131c-0.059,0.031-0.113,0.061-0.164,0.076c-0.059,0.015-0.127,0.022-0.201,0.022
				c-0.211,0-0.375-0.091-0.5-0.271c-0.119-0.182-0.18-0.444-0.18-0.776c0-0.28,0.027-0.539,0.094-0.778
				c0.062-0.238,0.154-0.455,0.268-0.64c0.115-0.184,0.246-0.325,0.398-0.433c0.146-0.1,0.297-0.154,0.455-0.16h0.023
				c0.117,0,0.221,0.016,0.307,0.043c0.086,0.031,0.176,0.086,0.266,0.155l0.152-1.011h0.688l-0.629,3.793h-0.688l0.053-0.298
				C229.379,222.653,229.324,222.7,229.273,222.747L229.273,222.747z"/>
			<path fill="#FFFFFF" d="M216.072,219.837l-0.117,0.65l-0.63-0.02c0,0-0.312,0.082-0.312,0.216c0,0.133,0.228,0.298,0.578,0.448
				c0.348,0.148,0.365,0.563,0.331,0.846c-0.031,0.283-0.082,0.866-1.094,0.897c-0.581,0.013-0.896-0.102-0.896-0.102l0.131-0.664
				c0,0,0.748,0.198,0.914,0.082c0.166-0.116,0.363-0.313,0.048-0.446c-0.314-0.135-0.828-0.35-0.828-0.881
				c0-0.527,0.215-0.828,0.547-0.978S215.656,219.755,216.072,219.837L216.072,219.837z"/>
			<polygon fill="#FFFFFF" points="211.088,222.797 210.355,222.797 210.781,220.276 209.876,222.781 209.37,222.781 
				209.249,220.176 208.806,222.797 208.111,222.797 208.764,218.95 209.605,218.95 209.9,221.164 210.876,218.95 211.741,218.95 
				211.088,222.797 			"/>
			<path fill="#FFFFFF" d="M216.725,222.852c-0.237,0-0.409-0.055-0.512-0.155c-0.1-0.109-0.153-0.271-0.153-0.479
				c0-0.053,0.008-0.108,0.012-0.155c0.006-0.051,0.017-0.113,0.024-0.184l0.439-2.461h0.688l-0.099,0.481h0.642l-0.108,0.608
				h-0.642l-0.176,1.047c-0.012,0.071-0.023,0.141-0.035,0.218c-0.01,0.067-0.016,0.139-0.016,0.182c0,0.108,0.016,0.18,0.062,0.219
				c0.041,0.039,0.107,0.061,0.197,0.061c0.036,0,0.081-0.008,0.138-0.021c0.058-0.024,0.107-0.039,0.142-0.063h0.057l-0.108,0.617
				c-0.081,0.031-0.16,0.047-0.244,0.062C216.948,222.843,216.845,222.852,216.725,222.852L216.725,222.852z"/>
			<path fill="#FFFFFF" d="M221.658,220.707c-0.15-0.116-0.486-0.091-0.553,0.148l-0.33,1.941h-0.686l0.491-2.897h0.687
				l-0.014,0.234c0.131-0.133,0.275-0.244,0.643-0.231C221.922,219.903,221.674,220.333,221.658,220.707L221.658,220.707z"/>
			<path fill="#FFFFFF" d="M222.955,222.875c-0.379,0-0.678-0.133-0.885-0.387c-0.209-0.255-0.311-0.625-0.311-1.102
				c0-0.378,0.043-0.719,0.135-1.026c0.092-0.307,0.221-0.567,0.383-0.793c0.158-0.215,0.344-0.385,0.566-0.508
				c0.215-0.125,0.449-0.188,0.693-0.188c0.191,0,0.373,0.033,0.545,0.088c0.082,0.027,0.24,0.103,0.24,0.103l-0.16,0.914
				c-0.078-0.102-0.158-0.181-0.238-0.242c-0.121-0.075-0.264-0.122-0.422-0.122c-0.283,0-0.518,0.156-0.699,0.465
				c-0.188,0.307-0.277,0.7-0.277,1.177c0,0.309,0.051,0.534,0.152,0.671c0.102,0.133,0.25,0.203,0.445,0.203
				c0.176,0,0.34-0.05,0.492-0.141c0.074-0.047,0.143-0.097,0.215-0.155l-0.16,0.871c0,0-0.082,0.04-0.123,0.058
				c-0.096,0.036-0.182,0.059-0.254,0.082C223.213,222.856,223.1,222.875,222.955,222.875L222.955,222.875z"/>
			<path fill="#FFFFFF" d="M212.78,222.696c-0.027,0.025-0.057,0.037-0.079,0.055c-0.076,0.039-0.137,0.068-0.199,0.092
				c-0.062,0.014-0.148,0.032-0.261,0.032c-0.176,0-0.324-0.071-0.431-0.202c-0.113-0.139-0.171-0.313-0.171-0.532
				c0-0.229,0.038-0.423,0.119-0.586c0.081-0.152,0.198-0.282,0.357-0.378c0.148-0.091,0.324-0.153,0.524-0.192l0.141-0.022
				c0.166-0.031,0.336-0.055,0.523-0.062c0-0.014,0-0.031,0.005-0.052c0.006-0.024,0.006-0.048,0.006-0.079
				c0-0.12-0.04-0.206-0.126-0.261c-0.085-0.047-0.208-0.071-0.374-0.071h-0.035c-0.102,0.01-0.216,0.032-0.341,0.078
				c-0.136,0.057-0.237,0.096-0.308,0.134h-0.061l0.102-0.688c0.08-0.031,0.206-0.061,0.37-0.092
				c0.078-0.023,0.159-0.032,0.238-0.037c0.086-0.018,0.177-0.018,0.262-0.018c0.337,0,0.578,0.062,0.736,0.178
				c0.163,0.115,0.237,0.302,0.237,0.556c0,0.031,0,0.075-0.006,0.132c-0.006,0.055-0.012,0.099-0.018,0.145l-0.335,1.974h-0.681
				l0.051-0.309c-0.039,0.038-0.095,0.086-0.154,0.138C212.837,222.648,212.809,222.673,212.78,222.696L212.78,222.696z
				 M212.78,221.493c-0.073,0.019-0.135,0.039-0.188,0.062c-0.079,0.039-0.137,0.091-0.176,0.163
				c-0.045,0.07-0.063,0.161-0.063,0.275c0,0.102,0.03,0.172,0.081,0.21c0.057,0.039,0.13,0.062,0.24,0.062
				c0.034,0,0.067-0.008,0.106-0.023c0.035-0.009,0.069-0.024,0.108-0.039c0.075-0.046,0.147-0.099,0.216-0.163l0.102-0.615
				c-0.118,0.017-0.237,0.031-0.34,0.056C212.837,221.48,212.809,221.485,212.78,221.493L212.78,221.493z"/>
			<path fill="#FFFFFF" d="M218.723,220.399c-0.09,0.018-0.176,0.062-0.245,0.139c-0.097,0.11-0.169,0.247-0.222,0.432h0.466h0.459
				c0-0.031,0.005-0.053,0.005-0.084c0-0.025,0.006-0.057,0.006-0.077c0-0.141-0.034-0.237-0.096-0.316
				c-0.062-0.067-0.15-0.108-0.268-0.108C218.797,220.384,218.755,220.392,218.723,220.399L218.723,220.399z M218.723,222.218h0.103
				c0.147,0,0.289-0.03,0.427-0.1c0.129-0.07,0.248-0.146,0.344-0.229h0.08l-0.129,0.746c-0.13,0.078-0.272,0.138-0.42,0.177
				c-0.125,0.039-0.262,0.055-0.404,0.062h-0.062c-0.37,0-0.65-0.109-0.848-0.333c-0.198-0.214-0.295-0.516-0.295-0.901
				c0-0.263,0.036-0.509,0.098-0.724c0.062-0.225,0.159-0.418,0.278-0.586c0.117-0.16,0.259-0.287,0.437-0.385
				c0.125-0.063,0.256-0.11,0.393-0.133c0.061-0.008,0.125-0.008,0.186-0.008c0.319,0,0.559,0.084,0.723,0.264
				c0.159,0.168,0.24,0.43,0.24,0.771c0,0.116-0.005,0.231-0.022,0.348c-0.02,0.105-0.039,0.222-0.069,0.331h-1.057h-0.534v0.029
				v0.031c0,0.201,0.056,0.354,0.159,0.469C218.434,222.141,218.557,222.203,218.723,222.218L218.723,222.218z"/>
			<path fill="#FFFFFF" d="M225.162,222.696c-0.027,0.025-0.059,0.037-0.086,0.055c-0.068,0.039-0.137,0.068-0.199,0.092
				c-0.061,0.014-0.148,0.032-0.254,0.032c-0.184,0-0.326-0.071-0.439-0.202c-0.113-0.139-0.166-0.313-0.166-0.532
				c0-0.229,0.043-0.423,0.121-0.586c0.08-0.152,0.199-0.282,0.354-0.378c0.148-0.091,0.324-0.153,0.527-0.192
				c0.045-0.008,0.092-0.015,0.143-0.022c0.158-0.031,0.334-0.055,0.518-0.062c0.006-0.014,0.006-0.031,0.01-0.052
				c0-0.024,0.008-0.048,0.008-0.079c0-0.12-0.047-0.206-0.129-0.261c-0.082-0.047-0.209-0.071-0.373-0.071h-0.033
				c-0.109,0.01-0.223,0.032-0.34,0.078c-0.137,0.057-0.24,0.096-0.309,0.134h-0.062l0.098-0.688
				c0.08-0.031,0.205-0.061,0.375-0.092c0.078-0.023,0.158-0.032,0.238-0.037c0.086-0.018,0.17-0.018,0.262-0.018
				c0.336,0,0.578,0.062,0.74,0.178c0.15,0.115,0.23,0.302,0.23,0.556c0,0.031,0,0.075-0.006,0.132
				c-0.006,0.055-0.01,0.099-0.016,0.145l-0.336,1.974h-0.684l0.055-0.309c-0.049,0.038-0.098,0.086-0.16,0.138L225.162,222.696
				L225.162,222.696z M225.162,221.493c-0.076,0.019-0.137,0.039-0.193,0.062c-0.072,0.039-0.137,0.091-0.176,0.163
				c-0.039,0.07-0.064,0.161-0.064,0.275c0,0.102,0.031,0.172,0.088,0.21c0.049,0.039,0.129,0.062,0.23,0.062
				c0.035,0,0.074-0.008,0.115-0.023c0.033-0.009,0.066-0.024,0.102-0.039c0.08-0.046,0.148-0.099,0.217-0.163l0.105-0.615
				c-0.123,0.017-0.236,0.031-0.346,0.056C225.213,221.48,225.184,221.485,225.162,221.493L225.162,221.493z"/>
			<path fill="#FFFFFF" d="M228.064,220.707c-0.154-0.116-0.486-0.091-0.559,0.148l-0.326,1.941h-0.689l0.496-2.897h0.686
				l-0.014,0.234c0.129-0.133,0.277-0.244,0.645-0.231C228.326,219.903,228.08,220.333,228.064,220.707L228.064,220.707z"/>
			<path fill-rule="evenodd" clip-rule="evenodd" fill="#FFFFFF" d="M229.412,220.515c-0.035,0.017-0.068,0.04-0.096,0.063
				c-0.092,0.062-0.166,0.155-0.229,0.262c-0.051,0.106-0.098,0.231-0.125,0.395c-0.035,0.152-0.051,0.308-0.051,0.45
				c0,0.179,0.033,0.303,0.09,0.378c0.062,0.086,0.154,0.125,0.273,0.125c0.047,0,0.092-0.008,0.137-0.03
				c0.021-0.009,0.041-0.017,0.062-0.029c0.068-0.039,0.129-0.08,0.191-0.135l0.244-1.422c-0.039-0.024-0.084-0.049-0.146-0.063
				c-0.059-0.021-0.107-0.032-0.154-0.032C229.537,220.476,229.475,220.492,229.412,220.515L229.412,220.515z M229.412,222.642
				c-0.051,0.049-0.109,0.092-0.172,0.132c-0.057,0.03-0.113,0.062-0.164,0.078c-0.057,0.016-0.125,0.023-0.197,0.023
				c-0.213,0-0.377-0.094-0.502-0.27c-0.117-0.185-0.182-0.448-0.182-0.78c0-0.277,0.027-0.54,0.098-0.778
				c0.061-0.238,0.15-0.457,0.268-0.638c0.113-0.187,0.244-0.327,0.396-0.433c0.146-0.102,0.295-0.152,0.455-0.163h0.021
				c0.119,0,0.223,0.018,0.309,0.047c0.084,0.029,0.178,0.086,0.266,0.155l0.154-1.011h0.686l-0.631,3.792h-0.686l0.051-0.301
				C229.518,222.548,229.461,222.599,229.412,222.642L229.412,222.642z"/>
		</g>
	</g>
	<g>
		<path fill="#FFFFFF" d="M221.254,311.134l0.014-0.234h-0.687l-0.491,2.897h0.686l0.33-1.941c0.066-0.239,0.402-0.265,0.553-0.148
			c0.016-0.374,0.264-0.804,0.238-0.805C221.529,310.89,221.385,311.001,221.254,311.134z"/>
		<path fill="#FFFFFF" d="M218.909,310.806c-0.061,0-0.125,0-0.186,0.008c-0.137,0.022-0.268,0.069-0.393,0.133
			c-0.177,0.098-0.319,0.225-0.437,0.385c-0.12,0.168-0.216,0.361-0.278,0.586c-0.062,0.215-0.098,0.461-0.098,0.724
			c0,0.386,0.098,0.688,0.295,0.901c0.198,0.224,0.478,0.333,0.848,0.333h0.062c0.142-0.008,0.279-0.023,0.404-0.062
			c0.148-0.039,0.29-0.099,0.42-0.177l0.129-0.746h-0.08c-0.096,0.083-0.215,0.158-0.344,0.229c-0.138,0.069-0.28,0.1-0.427,0.1
			h-0.103c-0.166-0.015-0.289-0.077-0.375-0.17c-0.103-0.114-0.159-0.268-0.159-0.469v-0.031v-0.029h0.534h1.057
			c0.03-0.109,0.05-0.226,0.069-0.331c0.017-0.116,0.022-0.231,0.022-0.348c0-0.341-0.081-0.603-0.24-0.771
			C219.467,310.89,219.228,310.806,218.909,310.806z M219.188,311.886c0,0.031-0.005,0.053-0.005,0.084h-0.459h-0.466
			c0.052-0.185,0.125-0.321,0.222-0.432c0.069-0.077,0.155-0.121,0.245-0.139c0.033-0.008,0.074-0.016,0.107-0.016
			c0.118,0,0.206,0.041,0.268,0.108c0.062,0.079,0.096,0.176,0.096,0.316C219.194,311.829,219.188,311.86,219.188,311.886z"/>
		<path fill="#FFFFFF" d="M217.186,313.212c-0.057,0.014-0.102,0.021-0.138,0.021c-0.09,0-0.156-0.021-0.197-0.061
			c-0.047-0.039-0.062-0.11-0.062-0.219c0-0.043,0.005-0.114,0.016-0.182c0.012-0.077,0.023-0.146,0.035-0.218l0.176-1.047h0.642
			l0.108-0.608h-0.642l0.099-0.481h-0.688l-0.439,2.461c-0.008,0.07-0.018,0.133-0.024,0.184c-0.004,0.047-0.012,0.103-0.012,0.155
			c0,0.207,0.053,0.369,0.153,0.479c0.103,0.101,0.275,0.155,0.512,0.155c0.12,0,0.223-0.009,0.309-0.023
			c0.083-0.016,0.163-0.031,0.244-0.062l0.108-0.617h-0.057C217.293,313.173,217.244,313.188,217.186,313.212z"/>
		<path fill="#FFFFFF" d="M214.008,311.679c0.006-0.057,0.006-0.101,0.006-0.132c0-0.254-0.074-0.44-0.237-0.556
			c-0.158-0.116-0.398-0.178-0.736-0.178c-0.084,0-0.176,0-0.262,0.018c-0.079,0.005-0.16,0.014-0.238,0.037
			c-0.164,0.031-0.29,0.061-0.37,0.092l-0.102,0.688h0.061c0.07-0.038,0.172-0.077,0.308-0.134c0.125-0.046,0.239-0.068,0.341-0.078
			h0.035c0.166,0,0.289,0.024,0.374,0.071c0.086,0.055,0.126,0.141,0.126,0.261c0,0.031,0,0.055-0.006,0.079
			c-0.005,0.021-0.005,0.038-0.005,0.052c-0.188,0.008-0.358,0.031-0.523,0.062l-0.141,0.022c-0.2,0.039-0.376,0.102-0.524,0.192
			c-0.159,0.096-0.276,0.226-0.357,0.378c-0.081,0.163-0.119,0.356-0.119,0.586c0,0.219,0.058,0.394,0.171,0.532
			c0.106,0.131,0.255,0.202,0.431,0.202c0.112,0,0.198-0.019,0.261-0.032c0.062-0.023,0.124-0.053,0.199-0.092
			c0.022-0.018,0.052-0.029,0.079-0.055c0.029-0.023,0.058-0.048,0.091-0.07c0.059-0.052,0.115-0.1,0.154-0.138l-0.051,0.309h0.681
			l0.335-1.974C213.996,311.777,214.001,311.733,214.008,311.679z M213.104,313.04c-0.069,0.064-0.141,0.117-0.216,0.163
			c-0.039,0.015-0.073,0.03-0.108,0.039c-0.039,0.016-0.073,0.023-0.106,0.023c-0.109,0-0.183-0.023-0.24-0.062
			c-0.051-0.038-0.081-0.108-0.081-0.21c0-0.114,0.018-0.205,0.063-0.275c0.039-0.072,0.097-0.124,0.176-0.163
			c0.052-0.022,0.115-0.043,0.188-0.062c0.029-0.008,0.058-0.013,0.086-0.013c0.103-0.024,0.222-0.039,0.34-0.056L213.104,313.04z"
			/>
		<path fill="#FFFFFF" d="M215.324,311.468l0.63,0.02l0.117-0.65c-0.416-0.082-0.996-0.1-1.328,0.05s-0.547,0.45-0.547,0.978
			c0,0.531,0.514,0.746,0.828,0.881c0.315,0.133,0.117,0.33-0.048,0.446c-0.167,0.116-0.914-0.082-0.914-0.082l-0.131,0.664
			c0,0,0.315,0.114,0.896,0.102c1.012-0.031,1.062-0.614,1.094-0.897c0.034-0.282,0.017-0.697-0.331-0.846
			c-0.35-0.15-0.578-0.315-0.578-0.448C215.012,311.55,215.324,311.468,215.324,311.468z"/>
		<polygon fill="#FFFFFF" points="210.876,309.95 209.9,312.164 209.605,309.95 208.764,309.95 208.111,313.797 208.806,313.797 
			209.249,311.176 209.37,313.781 209.876,313.781 210.781,311.276 210.355,313.797 211.088,313.797 211.741,309.95 		"/>
		<path fill="#FFFFFF" d="M223.502,310.612c0.158,0,0.301,0.047,0.422,0.122c0.08,0.062,0.16,0.141,0.238,0.242l0.16-0.914
			c0,0-0.158-0.075-0.24-0.103c-0.172-0.055-0.354-0.088-0.545-0.088c-0.244,0-0.479,0.062-0.693,0.188
			c-0.223,0.123-0.408,0.293-0.566,0.508c-0.162,0.226-0.291,0.486-0.383,0.793c-0.092,0.308-0.135,0.648-0.135,1.026
			c0,0.477,0.102,0.847,0.311,1.102c0.207,0.254,0.506,0.387,0.885,0.387c0.145,0,0.258-0.019,0.338-0.032
			c0.072-0.023,0.158-0.046,0.254-0.082c0.041-0.018,0.123-0.058,0.123-0.058l0.16-0.871c-0.072,0.059-0.141,0.108-0.215,0.155
			c-0.152,0.091-0.316,0.141-0.492,0.141c-0.195,0-0.344-0.07-0.445-0.203c-0.102-0.137-0.152-0.362-0.152-0.671
			c0-0.477,0.09-0.87,0.277-1.177C222.984,310.769,223.219,310.612,223.502,310.612z"/>
		<path fill="#FFFFFF" d="M228.561,311.409c-0.117,0.181-0.207,0.399-0.268,0.638c-0.07,0.238-0.098,0.501-0.098,0.778
			c0,0.332,0.064,0.596,0.182,0.78c0.125,0.176,0.289,0.27,0.502,0.27c0.072,0,0.141-0.008,0.197-0.023
			c0.051-0.016,0.107-0.048,0.164-0.078c0.062-0.04,0.121-0.083,0.172-0.132c0.049-0.043,0.105-0.094,0.17-0.146l-0.051,0.301h0.686
			l0.631-3.792h-0.686l-0.154,1.011c-0.088-0.069-0.182-0.126-0.266-0.155c-0.086-0.029-0.189-0.047-0.309-0.047h-0.021
			c-0.16,0.011-0.309,0.062-0.455,0.163C228.805,311.082,228.674,311.223,228.561,311.409z M229.088,311.84
			c0.062-0.106,0.137-0.2,0.229-0.262c0.027-0.023,0.061-0.047,0.096-0.063c0.062-0.022,0.125-0.039,0.197-0.039
			c0.047,0,0.096,0.012,0.154,0.032c0.062,0.015,0.107,0.039,0.146,0.063l-0.244,1.422c-0.062,0.055-0.123,0.096-0.191,0.135
			c-0.021,0.013-0.041,0.021-0.062,0.029c-0.045,0.022-0.09,0.03-0.137,0.03c-0.119,0-0.211-0.039-0.273-0.125
			c-0.057-0.075-0.09-0.199-0.09-0.378c0-0.143,0.016-0.298,0.051-0.45C228.99,312.071,229.037,311.946,229.088,311.84z"/>
		<path fill="#FFFFFF" d="M238,297h-36c-1.104,0-2,0.896-2,2v24c0,1.104,0.896,2,2,2h36c1.104,0,2-0.896,2-2v-24
			C240,297.896,239.104,297,238,297z M224.291,319.148c-1.85,0-3.532-0.706-4.806-1.855l-0.004,0.004h-0.012l0.016,0.008
			c-1.273,1.146-2.958,1.844-4.805,1.844c-3.971,0-7.188-3.219-7.188-7.187c0-3.97,3.216-7.186,7.188-7.186
			c1.842,0,3.525,0.695,4.794,1.837c0.224-0.245,1.837-1.837,4.817-1.837c3.969,0,7.188,3.216,7.188,7.186
			C231.479,315.93,228.26,319.148,224.291,319.148z"/>
		<path fill="#FFFFFF" d="M225.424,310.813c-0.092,0-0.176,0-0.262,0.018c-0.08,0.005-0.16,0.014-0.238,0.037
			c-0.17,0.031-0.295,0.061-0.375,0.092l-0.098,0.688h0.062c0.068-0.038,0.172-0.077,0.309-0.134c0.117-0.046,0.23-0.068,0.34-0.078
			h0.033c0.164,0,0.291,0.024,0.373,0.071c0.082,0.055,0.129,0.141,0.129,0.261c0,0.031-0.008,0.055-0.008,0.079
			c-0.004,0.021-0.004,0.038-0.01,0.052c-0.184,0.008-0.359,0.031-0.518,0.062c-0.051,0.008-0.098,0.015-0.143,0.022
			c-0.203,0.039-0.379,0.102-0.527,0.192c-0.154,0.096-0.273,0.226-0.354,0.378c-0.078,0.163-0.121,0.356-0.121,0.586
			c0,0.219,0.053,0.394,0.166,0.532c0.113,0.131,0.256,0.202,0.439,0.202c0.105,0,0.193-0.019,0.254-0.032
			c0.062-0.023,0.131-0.053,0.199-0.092c0.027-0.018,0.059-0.029,0.086-0.055l0.086-0.07c0.062-0.052,0.111-0.1,0.16-0.138
			l-0.055,0.309h0.684l0.336-1.974c0.006-0.046,0.01-0.09,0.016-0.145c0.006-0.057,0.006-0.101,0.006-0.132
			c0-0.254-0.08-0.44-0.23-0.556C226.002,310.875,225.76,310.813,225.424,310.813z M225.48,313.04
			c-0.068,0.064-0.137,0.117-0.217,0.163c-0.035,0.015-0.068,0.03-0.102,0.039c-0.041,0.016-0.08,0.023-0.115,0.023
			c-0.102,0-0.182-0.023-0.23-0.062c-0.057-0.038-0.088-0.108-0.088-0.21c0-0.114,0.025-0.205,0.064-0.275
			c0.039-0.072,0.104-0.124,0.176-0.163c0.057-0.022,0.117-0.043,0.193-0.062c0.021-0.008,0.051-0.013,0.078-0.013
			c0.109-0.024,0.223-0.039,0.346-0.056L225.48,313.04z"/>
		<path fill="#FFFFFF" d="M227.658,311.134l0.014-0.234h-0.686l-0.496,2.897h0.689l0.326-1.941c0.072-0.239,0.404-0.265,0.559-0.148
			c0.016-0.374,0.262-0.804,0.238-0.805C227.936,310.89,227.787,311.001,227.658,311.134z"/>
	</g>
</g>
<g id="paypal">
	<g>
		<path fill="#FFFFFF" d="M330,233c0,1.104-0.896,2-2,2h-36c-1.104,0-2-0.896-2-2v-24c0-1.104,0.896-2,2-2h36c1.104,0,2,0.896,2,2
			V233z"/>
		<path fill-rule="evenodd" clip-rule="evenodd" fill="#187FAD" d="M319.315,218.196c-0.822,0-1.472,0.219-1.969,0.316l-0.154,1.25
			c0.249-0.118,1.033-0.337,1.683-0.356c0.651-0.021,1.032,0.118,0.898,0.675c-1.93,0-3.23,0.396-3.497,1.646
			c-0.383,2.14,1.969,2.079,2.906,1.149l-0.116,0.516h1.72l0.745-3.411C321.839,218.532,320.52,218.177,319.315,218.196z
			 M319.431,221.687c-0.096,0.455-0.461,0.652-0.898,0.674c-0.383,0.019-0.728-0.316-0.479-0.713
			c0.191-0.339,0.728-0.418,1.051-0.418c0.134,0,0.287,0,0.422,0C319.487,221.388,319.468,221.527,319.431,221.687z"/>
		<polygon fill-rule="evenodd" clip-rule="evenodd" fill="#187FAD" points="323.004,216.848 321.582,223.392 323.328,223.392 
			324.769,216.848 323.004,216.848 323.004,216.848 		"/>
		<path fill-rule="evenodd" clip-rule="evenodd" fill="#187FAD" d="M314.976,216.868h-3.198l-1.419,6.523h1.86l0.478-2.162h1.322
			c1.302,0,2.373-0.792,2.661-2.141C317.007,217.562,315.896,216.868,314.976,216.868z M314.919,219.089
			c-0.114,0.497-0.614,0.892-1.094,0.892h-0.86l0.383-1.784h0.921C314.746,218.196,315.034,218.591,314.919,219.089z"/>
		<path fill-rule="evenodd" clip-rule="evenodd" fill="#195A7F" d="M302.562,218.196c-0.812,0-1.453,0.219-1.925,0.316l-0.151,1.25
			c0.226-0.118,1-0.337,1.643-0.356c0.641-0.021,1.02,0.118,0.904,0.675c-1.904,0-3.189,0.396-3.454,1.646
			c-0.378,2.14,1.945,2.079,2.851,1.149l-0.112,0.516h1.719l0.735-3.411C305.073,218.532,303.75,218.177,302.562,218.196z
			 M302.694,221.687c-0.096,0.455-0.473,0.652-0.908,0.674c-0.377,0.019-0.697-0.316-0.453-0.713
			c0.19-0.339,0.718-0.418,1.021-0.418c0.15,0,0.282,0,0.434,0C302.751,221.388,302.712,221.527,302.694,221.687z"/>
		<polygon fill-rule="evenodd" clip-rule="evenodd" fill="#195A7F" points="305.52,218.29 307.238,218.29 307.515,221.328 
			309.196,218.29 310.969,218.29 306.887,225.562 304.965,225.562 306.222,223.425 305.52,218.29 305.52,218.29 		"/>
		<path fill-rule="evenodd" clip-rule="evenodd" fill="#195A7F" d="M298.288,216.868h-3.207l-1.422,6.523h1.883l0.461-2.162h1.344
			c1.286,0,2.363-0.792,2.65-2.141C300.324,217.562,299.23,216.868,298.288,216.868z M298.23,219.089
			c-0.113,0.497-0.597,0.892-1.077,0.892h-0.881l0.402-1.784h0.923C298.059,218.196,298.364,218.591,298.23,219.089z"/>
		<path fill="#195A7F" d="M325.146,217.692v-0.77h-0.286v-0.105h0.691v0.105h-0.289v0.77H325.146z"/>
		<path fill="#195A7F" d="M325.667,217.692v-0.875h0.173l0.208,0.62c0.019,0.059,0.031,0.101,0.042,0.13
			c0.009-0.032,0.024-0.079,0.046-0.139l0.209-0.611h0.156v0.875h-0.111v-0.73l-0.254,0.73h-0.104l-0.253-0.743v0.743H325.667z"/>
	</g>
	<g>
		<path fill="#FFFFFF" d="M314.269,309.196h-0.921l-0.383,1.784h0.86c0.479,0,0.979-0.395,1.094-0.892
			C315.034,309.591,314.746,309.196,314.269,309.196z"/>
		<path fill="#FFFFFF" d="M301.333,312.647c-0.244,0.396,0.076,0.731,0.453,0.713c0.436-0.021,0.812-0.219,0.908-0.674
			c0.018-0.159,0.057-0.299,0.094-0.457c-0.151,0-0.283,0-0.434,0C302.051,312.229,301.523,312.309,301.333,312.647z"/>
		<path fill="#FFFFFF" d="M318.054,312.647c-0.249,0.396,0.096,0.731,0.479,0.713c0.438-0.021,0.803-0.219,0.898-0.674
			c0.037-0.159,0.057-0.299,0.096-0.457c-0.135,0-0.288,0-0.422,0C318.781,312.229,318.245,312.309,318.054,312.647z"/>
		<path fill="#FFFFFF" d="M297.598,309.196h-0.923l-0.402,1.784h0.881c0.48,0,0.964-0.395,1.077-0.892
			C298.364,309.591,298.059,309.196,297.598,309.196z"/>
		<path fill="#FFFFFF" d="M328,297h-36c-1.104,0-2,0.896-2,2v24c0,1.104,0.896,2,2,2h36c1.104,0,2-0.896,2-2v-24
			C330,297.896,329.104,297,328,297z M297.347,312.229h-1.344l-0.461,2.162h-1.883l1.422-6.523h3.207
			c0.942,0,2.036,0.694,1.709,2.221C299.71,311.438,298.633,312.229,297.347,312.229z M304.771,310.98l-0.735,3.411h-1.719
			l0.112-0.516c-0.905,0.93-3.229,0.99-2.851-1.149c0.265-1.25,1.55-1.646,3.454-1.646c0.115-0.557-0.264-0.695-0.904-0.675
			c-0.643,0.02-1.417,0.238-1.643,0.356l0.151-1.25c0.472-0.098,1.113-0.316,1.925-0.316
			C303.75,309.177,305.073,309.532,304.771,310.98z M304.965,316.562l1.257-2.137l-0.702-5.135h1.719l0.276,3.038l1.682-3.038h1.772
			l-4.082,7.271H304.965z M314.019,312.229h-1.322l-0.478,2.162h-1.86l1.419-6.523h3.198c0.92,0,2.031,0.694,1.704,2.221
			C316.392,311.438,315.32,312.229,314.019,312.229z M321.531,310.98l-0.745,3.411h-1.72l0.116-0.516
			c-0.938,0.93-3.289,0.99-2.906-1.149c0.267-1.25,1.567-1.646,3.497-1.646c0.134-0.557-0.247-0.695-0.898-0.675
			c-0.649,0.02-1.434,0.238-1.683,0.356l0.154-1.25c0.497-0.098,1.146-0.316,1.969-0.316
			C320.52,309.177,321.839,309.532,321.531,310.98z M323.328,314.392h-1.746l1.422-6.544h1.765L323.328,314.392z M325.551,307.923
			h-0.289v0.77h-0.116v-0.77h-0.286v-0.105h0.691V307.923z M326.501,308.692h-0.111v-0.73l-0.254,0.73h-0.104l-0.253-0.743v0.743
			h-0.111v-0.875h0.173l0.208,0.62c0.019,0.059,0.031,0.101,0.042,0.13c0.009-0.032,0.024-0.079,0.046-0.139l0.209-0.611h0.156
			V308.692z"/>
	</g>
</g>
<g id="worldpay">
	<g>
		<path fill="#FFFFFF" d="M420,233c0,1.104-0.896,2-2,2h-36c-1.104,0-2-0.896-2-2v-24c0-1.104,0.896-2,2-2h36c1.104,0,2,0.896,2,2
			V233z"/>
		<path fill="#203C73" d="M389.453,223.921h-1.231l-1.059-3.814c-0.111-0.375-0.175-0.77-0.237-1.161h-0.012
			c-0.044,0.384-0.118,0.757-0.22,1.142l-1.05,3.834h-1.177l-1.611-6.175h1.068l0.957,3.75c0.11,0.413,0.184,0.805,0.238,1.216h0.01
			c0.065-0.402,0.139-0.797,0.248-1.172l1.06-3.794h1.095l1.084,3.805c0.092,0.332,0.185,0.741,0.248,1.134h0.008
			c0.066-0.384,0.131-0.74,0.223-1.08l0.967-3.858h1.001L389.453,223.921"/>
		<path fill="#203C73" d="M392.874,224.011c-1.27,0-2.098-0.703-2.098-2.304c0-1.374,0.892-2.426,2.282-2.426
			c1.222,0,2.086,0.679,2.086,2.278C395.145,222.96,394.227,224.011,392.874,224.011 M392.974,220.106
			c-0.596,0-1.176,0.456-1.176,1.498c0,1.025,0.404,1.564,1.168,1.564c0.633,0,1.167-0.493,1.167-1.544
			C394.133,220.655,393.757,220.106,392.974,220.106z"/>
		<path fill="#203C73" d="M398.035,220.251c-0.91-0.173-1.353,0.457-1.353,1.819v1.851h-0.983v-4.546h0.938
			c0,0.255-0.028,0.657-0.092,1.005h0.017c0.203-0.614,0.664-1.18,1.52-1.088L398.035,220.251"/>
		<rect x="398.608" y="217.688" fill="#203C73" width="0.984" height="6.232"/>
		<path fill="#203C73" d="M403.327,223.921c0-0.237,0.018-0.598,0.064-0.854h-0.018c-0.249,0.561-0.783,0.943-1.491,0.943
			c-1.124,0-1.685-0.823-1.685-2.139c0-1.564,0.912-2.571,2.393-2.571c0.222,0,0.441,0.019,0.69,0.036v-1.648h0.974v6.232H403.327
			 M403.281,220.159c-0.249-0.053-0.488-0.081-0.727-0.081c-0.782,0-1.316,0.474-1.316,1.702c0,0.914,0.285,1.427,0.911,1.427
			c0.727,0,1.132-0.86,1.132-1.636V220.159z"/>
		<path fill="#203C73" d="M406.438,221.661c-0.138,0-0.305,0-0.461-0.02v2.279h-1.001v-6.175c0.477-0.017,1.009-0.036,1.59-0.036
			c1.471,0,2.281,0.715,2.281,1.855C408.847,220.765,407.88,221.661,406.438,221.661 M406.492,218.523c-0.192,0-0.349,0-0.516,0.02
			v2.257c0.14,0.021,0.296,0.037,0.441,0.037c0.837-0.008,1.39-0.467,1.39-1.188C407.808,218.945,407.395,218.523,406.492,218.523z"
			/>
		<path fill="#203C73" d="M411.683,223.921c0-0.293,0.012-0.598,0.047-0.843l-0.011-0.011c-0.22,0.541-0.789,0.943-1.517,0.943
			c-0.783,0-1.279-0.521-1.279-1.262c0-1.025,1.021-1.582,2.695-1.582v-0.266c0-0.558-0.238-0.859-0.957-0.859
			c-0.423,0-0.938,0.138-1.306,0.328l-0.194-0.785c0.463-0.174,1.077-0.304,1.666-0.304c1.388,0,1.775,0.605,1.775,1.512v1.883
			c0,0.392,0.01,0.858,0.029,1.245H411.683 M411.618,221.825c-1.369,0-1.748,0.374-1.748,0.805c0,0.348,0.242,0.612,0.626,0.612
			c0.672,0,1.122-0.641,1.122-1.29V221.825z"/>
		<path fill="#203C73" d="M415.266,224.238c-0.571,1.52-1.179,1.985-2.219,1.985c-0.175,0-0.423-0.025-0.581-0.055l0.111-0.852
			c0.157,0.049,0.377,0.074,0.562,0.074c0.432,0,0.837-0.209,1.141-1.021l0.165-0.449l-1.711-4.546h1.105l0.745,2.073
			c0.146,0.403,0.256,0.807,0.357,1.189h0.008c0.094-0.363,0.287-0.959,0.452-1.415l0.652-1.848h1.059L415.266,224.238"/>
		<polyline fill="#203C73" points="415.598,217.771 415.271,217.771 415.271,217.652 416.06,217.652 416.06,217.771 
			415.728,217.771 415.728,218.645 415.598,218.645 415.598,217.771 		"/>
		<path fill="#203C73" d="M416.194,217.652h0.199l0.235,0.702c0.032,0.098,0.039,0.117,0.046,0.146h0.002
			c0.018-0.052,0.02-0.065,0.054-0.159l0.238-0.688h0.175v0.992h-0.127v-0.831h-0.002l-0.285,0.831h-0.12l-0.284-0.843h-0.004v0.843
			h-0.127V217.652"/>
	</g>
	<g>
		<path fill="#FFFFFF" d="M409.87,313.63c0,0.348,0.242,0.612,0.626,0.612c0.672,0,1.122-0.641,1.122-1.29v-0.127
			C410.249,312.825,409.87,313.199,409.87,313.63z"/>
		<path fill="#FFFFFF" d="M406.492,309.523c-0.192,0-0.349,0-0.516,0.02v2.257c0.14,0.021,0.296,0.037,0.441,0.037
			c0.837-0.008,1.39-0.467,1.39-1.188C407.808,309.945,407.395,309.523,406.492,309.523z"/>
		<path fill="#FFFFFF" d="M392.974,311.106c-0.596,0-1.176,0.456-1.176,1.498c0,1.025,0.404,1.564,1.168,1.564
			c0.633,0,1.167-0.493,1.167-1.544C394.133,311.655,393.757,311.106,392.974,311.106z"/>
		<path fill="#FFFFFF" d="M401.238,312.78c0,0.914,0.285,1.427,0.911,1.427c0.727,0,1.132-0.86,1.132-1.636v-1.412
			c-0.249-0.053-0.488-0.081-0.727-0.081C401.772,311.078,401.238,311.552,401.238,312.78z"/>
		<path fill="#FFFFFF" d="M418,297h-36c-1.104,0-2,0.896-2,2v24c0,1.104,0.896,2,2,2h36c1.104,0,2-0.896,2-2v-24
			C420,297.896,419.104,297,418,297z M415.271,308.652h0.789v0.118h-0.332v0.874h-0.13v-0.874h-0.327V308.652z M388.222,314.921
			l-1.059-3.814c-0.111-0.375-0.175-0.77-0.237-1.161h-0.012c-0.044,0.384-0.118,0.757-0.22,1.142l-1.05,3.834h-1.177l-1.611-6.175
			h1.068l0.957,3.75c0.11,0.413,0.184,0.805,0.238,1.216h0.01c0.065-0.402,0.139-0.797,0.248-1.172l1.06-3.794h1.095l1.084,3.805
			c0.092,0.332,0.185,0.741,0.248,1.134h0.008c0.066-0.384,0.131-0.74,0.223-1.08l0.967-3.858h1.001l-1.609,6.175H388.222z
			 M392.874,315.011c-1.27,0-2.098-0.703-2.098-2.304c0-1.374,0.892-2.426,2.282-2.426c1.222,0,2.086,0.679,2.086,2.278
			C395.145,313.96,394.227,315.011,392.874,315.011z M398.035,311.251c-0.91-0.173-1.353,0.457-1.353,1.819v1.851h-0.983v-4.546
			h0.938c0,0.255-0.028,0.657-0.092,1.005h0.017c0.203-0.614,0.664-1.18,1.52-1.088L398.035,311.251z M399.593,314.921h-0.984
			v-6.232h0.984V314.921z M404.255,314.921h-0.928c0-0.237,0.018-0.598,0.064-0.854h-0.018c-0.249,0.561-0.783,0.943-1.491,0.943
			c-1.124,0-1.685-0.823-1.685-2.139c0-1.564,0.912-2.571,2.393-2.571c0.222,0,0.441,0.019,0.69,0.036v-1.648h0.974V314.921z
			 M406.438,312.661c-0.138,0-0.305,0-0.461-0.02v2.279h-1.001v-6.175c0.477-0.017,1.009-0.036,1.59-0.036
			c1.471,0,2.281,0.715,2.281,1.855C408.847,311.765,407.88,312.661,406.438,312.661z M411.719,314.067
			c-0.22,0.541-0.789,0.943-1.517,0.943c-0.783,0-1.279-0.521-1.279-1.262c0-1.025,1.021-1.582,2.695-1.582v-0.266
			c0-0.558-0.238-0.859-0.957-0.859c-0.423,0-0.938,0.138-1.306,0.328l-0.194-0.785c0.463-0.174,1.077-0.304,1.666-0.304
			c1.388,0,1.775,0.605,1.775,1.512v1.883c0,0.392,0.01,0.858,0.029,1.245h-0.949c0-0.293,0.012-0.598,0.047-0.843L411.719,314.067z
			 M415.266,315.238c-0.571,1.52-1.179,1.985-2.219,1.985c-0.175,0-0.423-0.025-0.581-0.055l0.111-0.852
			c0.157,0.049,0.377,0.074,0.562,0.074c0.432,0,0.837-0.209,1.141-1.021l0.165-0.449l-1.711-4.546h1.105l0.745,2.073
			c0.146,0.403,0.256,0.807,0.357,1.189h0.008c0.094-0.363,0.287-0.959,0.452-1.415l0.652-1.848h1.059L415.266,315.238z
			 M417.144,309.645h-0.127v-0.831h-0.002l-0.285,0.831h-0.12l-0.284-0.843h-0.004v0.843h-0.127v-0.992h0.199l0.235,0.702
			c0.032,0.098,0.039,0.117,0.046,0.146h0.002c0.018-0.052,0.02-0.065,0.054-0.159l0.238-0.688h0.175V309.645z"/>
	</g>
</g>
</svg>
