<?xml version="1.0" encoding="utf-8"?>
<!-- Generator: Adobe Illustrator 16.0.4, SVG Export Plug-In . SVG Version: 6.00 Build 0)  -->
<!DOCTYPE svg PUBLIC "-//W3C//DTD SVG 1.1//EN" "http://www.w3.org/Graphics/SVG/1.1/DTD/svg11.dtd">
<svg version="1.1" xmlns="http://www.w3.org/2000/svg" xmlns:xlink="http://www.w3.org/1999/xlink" x="0px" y="0px" width="890px"
	 height="164px" viewBox="0 0 890 164" enable-background="new 0 0 890 164" xml:space="preserve">
<g id="Layer_1">
</g>
<g id="person">
	<path fill="#FFFFFF" d="M20,60.092v-4.059c0,0,0.235-2.491,2.902-3.265c0,0,4.296-1.764,7.66-3.41
		c1.74-0.852,2.114-1.363,3.869-2.236c0,0,0.184-1.014,0.117-1.617h1.373c0,0,0.313,0.206,0-2.177c0,0-1.673-0.499-1.751-4.293
		c0,0-1.257,0.477-1.334-1.823c-0.052-1.558-1.124-2.911,0.419-4.028l-0.784-2.382c0,0-1.569-9.617,2.94-8.205
		c-1.902-2.558,10.784-5.116,11.608,3c0,0,0.588,4.382,0,7.381c0,0,1.853-0.241,0.614,3.766c0,0-0.68,2.881-1.726,2.234
		c0,0,0.171,3.646-1.477,4.265c0,0,0.117,1.94,0.117,2.072l1.569,0.265c0,0-0.236,1.589,0.039,1.765c0,0,1.86,1.434,4.077,2.074
		c4.275,1.233,9.334,3.352,9.334,5.204c0,0,0.431,2.471,0.431,5.47H20z"/>
</g>
<g id="phone">
	<path fill="#FFFFFF" d="M110.229,23.403c0,0-2.177,10.912,11.004,24.223c0.122,0.123,0.24,0.234,0.36,0.355
		c0.119,0.12,0.229,0.242,0.352,0.364c13.18,13.312,24.448,11.581,24.448,11.581c3.825-0.262,5.853-9.24,0.196-10.75
		c-6.667-1.777-7.987-2.72-10.122-2.598c-2.264,0.131-1.472,3.261-3.416,3.648c-1.88,0.377-5.6-2.057-8.482-5.046
		c-2.961-2.913-5.321-6.623-4.871-8.438c0.467-1.879,3.65-0.997,3.866-3.197c0.202-2.076-0.717-3.395-2.304-9.95
		C119.913,18.035,110.635,19.688,110.229,23.403z"/>
</g>
<g id="store_locator">
	<path fill="#FFFFFF" d="M220.251,20.093c-7.872,0-14.25,6.38-14.25,14.251c0,7.872,14.25,25.65,14.25,25.65
		s14.25-17.778,14.25-25.65C234.5,26.473,228.122,20.093,220.251,20.093z M220.251,37.193c-3.148,0-5.701-2.552-5.701-5.7
		c0-3.148,2.553-5.701,5.701-5.701c3.147,0,5.7,2.552,5.7,5.701C225.951,34.641,223.398,37.193,220.251,37.193z"/>
</g>
<g id="manifying_glass">
	<path fill-rule="evenodd" clip-rule="evenodd" fill="#FFFFFF" d="M294.559,46.661c5.299,5.298,13.467,5.975,19.5,2.033
		c0.158,0.3,0.346,0.586,0.596,0.837l9.57,9.57c1.322,1.321,3.462,1.321,4.785,0c1.32-1.321,1.32-3.463,0-4.785l-9.569-9.569
		c-0.254-0.25-0.54-0.44-0.837-0.594c3.942-6.035,3.266-14.203-2.035-19.502c-6.079-6.078-15.932-6.078-22.01,0
		C288.48,30.729,288.48,40.583,294.559,46.661z M298.386,28.479c3.964-3.964,10.39-3.964,14.354,0
		c3.965,3.963,3.965,10.389,0,14.354c-3.965,3.965-10.391,3.965-14.354,0C294.425,38.868,294.425,32.442,298.386,28.479z"/>
</g>
<g id="wishlist">
	<path fill-rule="evenodd" clip-rule="evenodd" fill="#FFFFFF" d="M408.75,23.092c-3.002,0-5.412,1.048-7.539,3.114
		c0,0-0.004,0-0.004,0.001h-0.001l-1.205,1.479l-1.207-1.391c-0.001,0-0.001,0-0.005-0.001l0,0l0,0
		c-2.127-2.064-4.535-3.202-7.539-3.202s-5.832,1.138-7.954,3.202C381.169,28.356,380,31.103,380,34.02
		c0,2.92,1.168,5.661,3.294,7.725l14.93,14.629c0.47,0.46,1.11,0.719,1.777,0.719c0.668,0,1.307-0.258,1.775-0.719l14.929-14.628
		C418.832,39.684,420,36.94,420,34.02c0-2.917-1.168-5.664-3.295-7.726C414.583,24.23,411.755,23.092,408.75,23.092L408.75,23.092z"
		/>
</g>
<g id="basket">
	<g>
		<path fill="#FFFFFF" d="M871,36.551c0-0.003,0-0.008,0-0.012c0-0.048-0.004-0.095-0.007-0.142
			c-0.002-0.027-0.006-0.055-0.009-0.081c-0.003-0.025-0.005-0.051-0.011-0.076c-0.137-0.86-0.829-1.53-1.688-1.604h-36.41
			c-1.036,0-1.875,0.86-1.875,1.922c0,1.062,0.839,1.923,1.875,1.923h1.661l4.021,16.489l0.002-0.001
			c0.207,0.836,0.938,1.457,1.815,1.457c0.004,0,0.007-0.001,0.011-0.001v0.001h21.239c0.878,0,1.61-0.621,1.812-1.458l0.008,0
			l4.019-16.487h1.661c1.036,0,1.875-0.861,1.875-1.923c0-0.001,0-0.001,0-0.003C871,36.553,871,36.553,871,36.551 M845.375,50.658
			c0,1.062-0.839,1.922-1.875,1.922s-1.875-0.86-1.875-1.922V40.404c0-1.062,0.839-1.922,1.875-1.922s1.875,0.86,1.875,1.922V50.658
			z M852.875,50.658c0,1.062-0.839,1.922-1.875,1.922s-1.875-0.86-1.875-1.922V40.404c0-1.062,0.839-1.922,1.875-1.922
			s1.875,0.86,1.875,1.922V50.658z M860.375,50.658c0,1.062-0.839,1.922-1.875,1.922s-1.875-0.86-1.875-1.922V40.404
			c0-1.062,0.839-1.922,1.875-1.922s1.875,0.86,1.875,1.922V50.658z M853.114,24.79l4.146,8.031h4.243l-5.074-9.829l-0.007,0.004
			c-0.31-0.632-0.938-1.069-1.673-1.069c-1.036,0-1.875,0.86-1.875,1.922c0,0.343,0.094,0.658,0.249,0.938L853.114,24.79z
			 M848.89,24.79l-0.01-0.006c0.151-0.279,0.245-0.593,0.245-0.936c0-1.062-0.839-1.922-1.875-1.922
			c-0.735,0-1.363,0.437-1.673,1.067l-0.003-0.002l-5.075,9.829h4.244L848.89,24.79z"/>
	</g>
</g>
<g id="delivery">
	<g id="Your_Icon_1_">
		<path fill="#FFFFFF" d="M483.219,48.758c0,2.331-1.893,4.221-4.229,4.221c-2.334,0-4.228-1.89-4.228-4.221
			s1.894-4.221,4.228-4.221C481.326,44.537,483.219,46.427,483.219,48.758z M511,42.705v4.534c0,0.836-0.682,1.517-1.518,1.517
			h-0.695c0-3.028-2.461-5.482-5.488-5.482c-3.028,0-5.488,2.454-5.488,5.482h-13.324c0-3.028-2.461-5.482-5.494-5.482
			c-3.039,0-5.5,2.454-5.5,5.482h-0.971c-0.836,0-1.521-0.681-1.521-1.517v-6.142h0.006V29.353c0-0.385,0.289-0.707,0.664-0.75
			c0.032-0.011,0.064-0.011,0.097-0.011h26.028c0.835,0,1.842,0.601,2.238,1.335l4.027,7.455c0.395,0.734,1.355,1.586,2.133,1.898
			l3.397,1.35C510.368,40.936,511,41.874,511,42.705z M501.947,38.652l-3.768-6.85c-0.204-0.364-0.708-0.665-1.127-0.665h-3.536
			c-0.418,0-0.761,0.343-0.761,0.761v6.657c0,0.418,0.343,0.761,0.761,0.761h8.04C501.975,39.317,502.15,39.017,501.947,38.652z
			 M471.67,28.592v0.011c0.032-0.011,0.065-0.011,0.098-0.011H471.67z M503.299,44.537c-2.332,0-4.222,1.89-4.222,4.221
			s1.89,4.221,4.222,4.221s4.221-1.89,4.221-4.221S505.629,44.537,503.299,44.537z"/>
	</g>
</g>
<g id="Detailed_Icons">
	<path fill="#FFFFFF" d="M581,21.092c-11.028,0-20,7.371-20,16.432c0,4.874,2.611,9.469,7.163,12.606l0.604,0.417l-0.186,0.711
		c-0.73,2.782-2.307,4.416-2.321,4.43c-0.453,0.454-0.615,1.158-0.422,1.836c0.011,0.043,0.026,0.083,0.04,0.115
		c0.28,0.653,0.926,1.074,1.643,1.074c4.37,0,7.995-2.505,10.268-4.606l0.344-0.317l0.467,0.045c0.834,0.081,1.642,0.122,2.4,0.122
		c11.028,0,20-7.373,20-16.433C601,28.463,592.028,21.092,581,21.092z M589.914,41.677h-17.167c-0.558,0-1.009-0.452-1.009-1.01
		c0-0.557,0.451-1.009,1.009-1.009h17.167c0.557,0,1.01,0.452,1.01,1.009C590.924,41.225,590.471,41.677,589.914,41.677z
		 M589.914,35.763h-17.167c-0.558,0-1.009-0.452-1.009-1.009c0-0.558,0.451-1.009,1.009-1.009h17.167c0.557,0,1.01,0.451,1.01,1.009
		C590.924,35.312,590.471,35.763,589.914,35.763z"/>
</g>
<g id="card">
	<path fill-rule="evenodd" clip-rule="evenodd" fill="#FFFFFF" d="M689.125,53.592h-36.25c-1.036,0-1.875-0.839-1.875-1.875V37.342
		h40v14.375C691,52.753,690.161,53.592,689.125,53.592 M654.75,49.842h7.5v-1.875h-7.5V49.842z M673.5,44.217h-18.75v1.875h18.75
		V44.217z M651,27.967c0-1.036,0.839-1.875,1.875-1.875h36.25c1.036,0,1.875,0.839,1.875,1.875v5.625h-40V27.967z"/>
</g>
<g id="confimration">
	<path fill="#FFFFFF" d="M761,20.092c-11.045,0-20,8.954-20,20s8.955,20,20,20c11.046,0,20-8.954,20-20S772.046,20.092,761,20.092z
		 M772.41,36.014l-12.26,12.259c-0.564,0.565-1.309,0.852-2.055,0.852c-0.666,0-1.334-0.229-1.88-0.692l-6.45-5.486
		c-1.223-1.037-1.369-2.871-0.332-4.092c1.039-1.221,2.874-1.37,4.092-0.331l4.412,3.75l10.366-10.366
		c1.134-1.134,2.971-1.134,4.106,0C773.543,33.042,773.543,34.879,772.41,36.014z"/>
</g>
<g id="visa">
	<path fill="#FFFFFF" d="M60,142.092c0,1.105-0.896,2-2,2H22c-1.104,0-2-0.895-2-2v-24c0-1.104,0.896-2,2-2h36c1.104,0,2,0.896,2,2
		V142.092z"/>
	<g>
		<g>
			<g>
				<polygon fill="#0066B2" points="38.275,134.436 36.161,134.436 37.483,126.311 39.598,126.311 				"/>
				<path fill="#0066B2" d="M34.381,126.311l-2.018,5.59l-0.238-1.207l0.001,0.004l-0.713-3.654c0,0-0.085-0.732-1.005-0.732h-3.333
					l-0.039,0.137c0,0,1.02,0.213,2.212,0.93l1.837,7.059h2.206l3.365-8.125H34.381z"/>
				<path fill="#0066B2" d="M51.021,134.436h1.941l-1.693-8.125h-1.701c-0.786,0-0.977,0.605-0.977,0.605l-3.154,7.52h2.205
					l0.441-1.207h2.689L51.021,134.436z M48.694,131.561l1.111-3.039l0.626,3.039H48.694z"/>
				<path fill="#0066B2" d="M45.604,128.264l0.302-1.746c0,0-0.934-0.354-1.903-0.354c-1.051,0-3.543,0.463-3.543,2.691
					c0,2.1,2.926,2.123,2.926,3.229c0,1.102-2.625,0.906-3.49,0.209l-0.316,1.826c0,0,0.946,0.457,2.388,0.457
					c1.445,0,3.625-0.748,3.625-2.781c0-2.113-2.955-2.311-2.955-3.227C42.637,127.646,44.697,127.766,45.604,128.264z"/>
			</g>
			<path fill="#F9A533" d="M32.126,130.697l-0.713-3.654c0,0-0.085-0.732-1.005-0.732h-3.333l-0.039,0.137
				c0,0,1.602,0.332,3.139,1.576C31.646,129.215,32.126,130.697,32.126,130.697z"/>
		</g>
	</g>
	<g>
		<path fill="#FFFFFF" d="M508,116.092h-36c-1.104,0-2,0.896-2,2v24c0,1.105,0.896,2,2,2h36c1.104,0,2-0.895,2-2v-24
			C510,116.988,509.104,116.092,508,116.092z M481.086,134.936l-1.834-7.051c-0.041-0.025-0.084-0.053-0.124-0.076
			c-0.068-0.039-0.136-0.078-0.202-0.113c-0.102-0.057-0.201-0.107-0.299-0.156c-0.061-0.029-0.123-0.061-0.182-0.088
			c-0.115-0.055-0.225-0.102-0.33-0.145c-0.059-0.025-0.115-0.049-0.17-0.07c-0.1-0.039-0.196-0.074-0.282-0.105
			c-0.05-0.016-0.093-0.029-0.138-0.045c-0.059-0.02-0.117-0.039-0.167-0.053c-0.035-0.01-0.069-0.021-0.099-0.029
			c-0.045-0.012-0.087-0.023-0.117-0.031c-0.018-0.004-0.039-0.01-0.052-0.014c-0.026-0.006-0.054-0.012-0.054-0.012l0.039-0.137
			h3.332c0.92,0,1.006,0.732,1.006,0.732l0.713,3.654l-0.002-0.004l0.238,1.207l2.018-5.59h2.277l-3.365,8.125H481.086z
			 M486.16,134.936l1.322-8.125h2.115l-1.322,8.125H486.16z M491.967,135.076c-1.441,0-2.389-0.457-2.389-0.457l0.316-1.826
			c0.865,0.697,3.49,0.893,3.49-0.209c0-1.105-2.926-1.129-2.926-3.229c0-2.229,2.492-2.691,3.543-2.691
			c0.971,0,1.904,0.354,1.904,0.354l-0.303,1.746c-0.906-0.498-2.967-0.617-2.967,0.305c0,0.916,2.955,1.113,2.955,3.227
			C495.592,134.328,493.412,135.076,491.967,135.076z M501.021,134.936l-0.248-1.207h-2.689l-0.441,1.207h-2.205l3.154-7.52
			c0,0,0.191-0.605,0.977-0.605h1.701l1.693,8.125H501.021z"/>
		<polygon fill="#FFFFFF" points="498.693,131.561 500.432,131.561 499.805,128.521 		"/>
	</g>
</g>
<g id="maestro">
	<g>
		<path fill="#FFFFFF" d="M150,142.092c0,1.105-0.896,2-2,2h-36c-1.104,0-2-0.895-2-2v-24c0-1.104,0.896-2,2-2h36
			c1.104,0,2,0.896,2,2V142.092z"/>
		<g>
			<path fill-rule="evenodd" clip-rule="evenodd" fill="#009DDD" d="M130,135.43c1.463-1.322,2.385-3.238,2.385-5.369
				c0-2.129-0.922-4.045-2.385-5.379c-1.278-1.164-2.982-1.875-4.856-1.875c-4.004,0-7.256,3.25-7.256,7.254
				s3.252,7.242,7.256,7.242C127.018,137.303,128.722,136.592,130,135.43L130,135.43z"/>
			<path fill-rule="evenodd" clip-rule="evenodd" fill="#009DDD" d="M130,135.43c1.463-1.322,2.385-3.238,2.385-5.369
				c0-2.129-0.922-4.045-2.385-5.379V135.43L130,135.43z"/>
			<path fill-rule="evenodd" clip-rule="evenodd" fill="#ED1C2E" d="M134.87,122.807c-1.874,0-3.577,0.711-4.87,1.875
				c-0.254,0.242-0.496,0.496-0.724,0.766h1.461c0.199,0.242,0.386,0.512,0.556,0.766h-2.57c-0.156,0.258-0.298,0.512-0.427,0.77
				h3.408c0.114,0.254,0.228,0.508,0.312,0.764h-4.018c-0.085,0.258-0.156,0.514-0.212,0.781h4.443
				c0.101,0.484,0.156,1.01,0.156,1.533c0,0.797-0.128,1.578-0.37,2.301h-4.018c0.085,0.256,0.184,0.512,0.298,0.768h3.408
				c-0.127,0.256-0.254,0.525-0.411,0.766h-2.57c0.17,0.271,0.354,0.525,0.554,0.77h1.461c-0.224,0.268-0.467,0.521-0.737,0.766
				c1.292,1.162,2.996,1.873,4.87,1.873c4.004,0,7.242-3.238,7.242-7.242S138.874,122.807,134.87,122.807L134.87,122.807z"/>
			<polygon fill-rule="evenodd" clip-rule="evenodd" fill="#003473" points="124.007,132.076 123.1,132.076 123.639,129.254 
				122.403,132.076 121.635,132.076 121.479,129.266 120.885,132.076 120.06,132.076 120.756,128.4 122.19,128.4 122.206,130.672 
				123.199,128.4 124.718,128.4 124.007,132.076 			"/>
			<path fill-rule="evenodd" clip-rule="evenodd" fill="#003473" d="M134.089,132.037c-0.255,0.07-0.439,0.098-0.652,0.098
				c-0.457,0-0.711-0.227-0.711-0.652c0-0.086,0.014-0.188,0.029-0.27l0.056-0.299l0.043-0.229l0.411-2.285h0.896l-0.128,0.682
				h0.454l-0.114,0.725h-0.468l-0.242,1.25c0,0.055-0.013,0.098-0.013,0.127c0,0.154,0.098,0.213,0.312,0.213
				c0.098,0,0.185,0,0.24-0.027L134.089,132.037L134.089,132.037z"/>
			<path fill-rule="evenodd" clip-rule="evenodd" fill="#003473" d="M130.513,130.033c0,0.369,0.21,0.639,0.68,0.824
				c0.383,0.156,0.441,0.199,0.441,0.34c0,0.186-0.171,0.27-0.527,0.27c-0.285,0-0.524-0.043-0.824-0.129l-0.127,0.699h0.043
				l0.17,0.027c0.057,0.012,0.127,0.029,0.241,0.029c0.212,0.014,0.384,0.027,0.497,0.027c0.965,0,1.406-0.312,1.406-0.994
				c0-0.412-0.184-0.652-0.64-0.836c-0.383-0.145-0.425-0.188-0.425-0.328c0-0.156,0.156-0.242,0.438-0.242
				c0.186,0,0.428,0.014,0.669,0.043l0.127-0.682c-0.241-0.041-0.595-0.07-0.81-0.07
				C130.852,129.012,130.497,129.48,130.513,130.033L130.513,130.033z"/>
			<path fill-rule="evenodd" clip-rule="evenodd" fill="#003473" d="M126.932,132.076h-0.752l0.014-0.312
				c-0.228,0.244-0.538,0.357-0.95,0.357c-0.484,0-0.823-0.326-0.823-0.811c0-0.723,0.582-1.15,1.588-1.15
				c0.102,0,0.229,0,0.37,0.014c0.029-0.098,0.029-0.141,0.029-0.184c0-0.197-0.156-0.285-0.582-0.285
				c-0.256,0-0.541,0.043-0.739,0.088l-0.128,0.041l-0.084,0.016l0.127-0.668c0.456-0.129,0.752-0.17,1.08-0.17
				c0.78,0,1.192,0.312,1.192,0.879c0,0.156-0.014,0.256-0.084,0.598l-0.185,1.053l-0.03,0.195l-0.028,0.156l-0.015,0.102V132.076
				L126.932,132.076z M126.322,130.744c-0.1-0.014-0.142-0.014-0.212-0.014c-0.512,0-0.768,0.154-0.768,0.453
				c0,0.186,0.128,0.299,0.328,0.299C126.039,131.482,126.308,131.184,126.322,130.744L126.322,130.744z"/>
			<path fill-rule="evenodd" clip-rule="evenodd" fill="#003473" d="M129.887,132.008c-0.297,0.086-0.597,0.127-0.923,0.127
				c-1.008,0-1.533-0.467-1.533-1.348c0-1.023,0.666-1.775,1.576-1.775c0.753,0,1.221,0.424,1.221,1.078
				c0,0.229-0.028,0.439-0.113,0.738h-1.788c-0.015,0.057-0.015,0.072-0.015,0.1c0,0.34,0.27,0.523,0.794,0.523
				c0.328,0,0.612-0.055,0.938-0.197L129.887,132.008L129.887,132.008z M129.461,130.232c0-0.072,0-0.113,0-0.156
				c0-0.242-0.157-0.383-0.427-0.383c-0.284,0-0.497,0.184-0.582,0.539H129.461L129.461,130.232z"/>
			<path fill-rule="evenodd" clip-rule="evenodd" fill="#003473" d="M139.514,130.715c-0.128,0.994-0.824,1.436-1.747,1.436
				c-1.022,0-1.433-0.609-1.433-1.379c0-1.051,0.695-1.773,1.774-1.773c0.937,0,1.434,0.594,1.434,1.348
				C139.542,130.529,139.542,130.547,139.514,130.715L139.514,130.715z M138.605,130.359c0-0.312-0.128-0.611-0.497-0.611
				c-0.454,0-0.752,0.555-0.752,1.023c0,0.412,0.198,0.68,0.525,0.68c0.198,0,0.609-0.268,0.696-0.736
				C138.592,130.615,138.605,130.488,138.605,130.359L138.605,130.359z"/>
			<polygon fill-rule="evenodd" clip-rule="evenodd" fill="#FFFFFF" points="124.235,131.865 123.327,131.865 123.866,129.041 
				122.63,131.865 121.807,131.865 121.664,129.053 121.125,131.865 120.301,131.865 120.998,128.188 122.417,128.188 
				122.489,130.459 123.483,128.188 124.945,128.188 124.235,131.865 			"/>
			<path fill-rule="evenodd" clip-rule="evenodd" fill="#FFFFFF" d="M134.316,131.824c-0.256,0.068-0.439,0.096-0.654,0.096
				c-0.454,0-0.71-0.225-0.71-0.652c0-0.084,0.014-0.17,0.028-0.27l0.058-0.295l0.042-0.229l0.413-2.287h0.894l-0.128,0.682h0.468
				l-0.126,0.723h-0.47l-0.227,1.25c-0.014,0.059-0.028,0.1-0.028,0.129c0,0.156,0.099,0.227,0.312,0.227
				c0.099,0,0.184-0.014,0.241-0.027L134.316,131.824L134.316,131.824z"/>
			<path fill-rule="evenodd" clip-rule="evenodd" fill="#003473" d="M136.63,129.734l-0.015-0.098l0.171-0.469
				c-0.042,0-0.057,0-0.07-0.014c-0.043,0-0.072-0.016-0.072-0.016c-0.029,0-0.056,0-0.084,0c-0.299,0-0.512,0.127-0.797,0.48
				l0.101-0.537h-0.937l-0.556,2.994h0.896c0.128-0.693,0.184-1.078,0.254-1.404c0.116-0.537,0.513-0.781,0.812-0.725
				c0.027,0,0.055,0,0.098,0.016l0.058,0.027L136.63,129.734L136.63,129.734z"/>
			<path fill-rule="evenodd" clip-rule="evenodd" fill="#FFFFFF" d="M136.943,128.896c-0.071-0.027-0.086-0.027-0.1-0.027
				c-0.043-0.014-0.072-0.014-0.072-0.027c-0.027,0-0.055,0-0.099,0c-0.298,0-0.511,0.125-0.781,0.482l0.086-0.455h-0.823
				l-0.554,2.996h0.908c0.325-1.832,0.454-2.16,0.895-2.16c0.028,0,0.071,0.016,0.113,0.016l0.098,0.027L136.943,128.896
				L136.943,128.896z"/>
			<path fill-rule="evenodd" clip-rule="evenodd" fill="#FFFFFF" d="M130.737,129.822c0,0.367,0.213,0.637,0.697,0.82
				c0.369,0.156,0.425,0.199,0.425,0.34c0,0.188-0.17,0.271-0.524,0.271c-0.271,0-0.525-0.041-0.822-0.127l-0.115,0.697h0.042
				l0.156,0.041c0.057,0,0.141,0.016,0.242,0.016c0.213,0.027,0.383,0.027,0.51,0.027c0.953,0,1.407-0.312,1.407-0.994
				c0-0.412-0.185-0.654-0.654-0.838c-0.384-0.145-0.425-0.186-0.425-0.328c0-0.156,0.156-0.238,0.455-0.238
				c0.17,0,0.426,0.012,0.652,0.041l0.127-0.682c-0.242-0.041-0.595-0.059-0.793-0.059
				C131.094,128.811,130.737,129.266,130.737,129.822L130.737,129.822z"/>
			<path fill-rule="evenodd" clip-rule="evenodd" fill="#FFFFFF" d="M127.161,131.865h-0.739l0.014-0.312
				c-0.227,0.242-0.541,0.355-0.951,0.355c-0.482,0-0.823-0.328-0.823-0.811c0-0.725,0.582-1.15,1.59-1.15
				c0.098,0,0.227,0,0.37,0.016c0.027-0.102,0.027-0.141,0.027-0.186c0-0.199-0.156-0.268-0.582-0.268
				c-0.254,0-0.54,0.027-0.738,0.068l-0.128,0.041l-0.085,0.018l0.128-0.67c0.454-0.111,0.739-0.156,1.079-0.156
				c0.781,0,1.179,0.299,1.179,0.867c0,0.156-0.015,0.27-0.071,0.598l-0.184,1.062l-0.029,0.186l-0.028,0.158l-0.014,0.098
				L127.161,131.865L127.161,131.865z M126.506,130.529c-0.099-0.014-0.142-0.014-0.198-0.014c-0.51,0-0.765,0.156-0.765,0.455
				c0,0.184,0.113,0.312,0.309,0.312C126.223,131.283,126.493,130.971,126.506,130.529L126.506,130.529z"/>
			<path fill-rule="evenodd" clip-rule="evenodd" fill="#FFFFFF" d="M130.127,131.795c-0.313,0.086-0.609,0.125-0.923,0.125
				c-1.007,0-1.533-0.469-1.533-1.346c0-1.023,0.668-1.775,1.576-1.775c0.739,0,1.207,0.426,1.207,1.078
				c0,0.227-0.028,0.441-0.099,0.738h-1.803c0,0.057,0,0.07,0,0.1c0,0.342,0.256,0.525,0.78,0.525c0.326,0,0.626-0.057,0.938-0.184
				L130.127,131.795L130.127,131.795z M129.646,130.018c0-0.055,0-0.113,0-0.156c0-0.242-0.158-0.381-0.427-0.381
				c-0.284,0-0.482,0.197-0.567,0.537H129.646L129.646,130.018z"/>
			<path fill-rule="evenodd" clip-rule="evenodd" fill="#FFFFFF" d="M139.754,130.502c-0.143,0.992-0.838,1.434-1.76,1.434
				c-1.008,0-1.42-0.609-1.42-1.377c0-1.049,0.695-1.775,1.775-1.775c0.937,0,1.434,0.598,1.434,1.352
				C139.783,130.318,139.783,130.33,139.754,130.502L139.754,130.502z M138.818,130.119c0-0.312-0.128-0.598-0.498-0.598
				c-0.455,0-0.738,0.539-0.738,1.025c0,0.395,0.199,0.666,0.512,0.666c0.198,0,0.624-0.271,0.694-0.725
				C138.818,130.373,138.818,130.248,138.818,130.119L138.818,130.119z"/>
		</g>
	</g>
	<g>
		<path fill="#FFFFFF" d="M583.877,131.971c0-0.029,0.014-0.07,0.027-0.129l0.227-1.25h0.471l0.125-0.723h-0.467l0.127-0.682h-0.893
			l-0.414,2.287l-0.041,0.229l-0.059,0.295c-0.014,0.1-0.027,0.186-0.027,0.27c0,0.428,0.256,0.652,0.709,0.652
			c0.215,0,0.398-0.027,0.654-0.096l0.113-0.654c-0.057,0.014-0.143,0.027-0.24,0.027
			C583.977,132.197,583.877,132.127,583.877,131.971z"/>
		<path fill="#FFFFFF" d="M586.943,129.896c-0.07-0.027-0.086-0.027-0.1-0.027c-0.043-0.014-0.072-0.014-0.072-0.027
			c-0.027,0-0.055,0-0.098,0c-0.299,0-0.512,0.125-0.781,0.482l0.086-0.455h-0.824l-0.553,2.996h0.908
			c0.324-1.832,0.453-2.16,0.895-2.16c0.027,0,0.07,0.016,0.113,0.016l0.098,0.027L586.943,129.896z"/>
		<path fill="#FFFFFF" d="M580.736,130.822c0,0.367,0.213,0.637,0.697,0.82c0.369,0.156,0.426,0.199,0.426,0.34
			c0,0.188-0.17,0.271-0.523,0.271c-0.271,0-0.525-0.041-0.822-0.127l-0.115,0.697h0.041l0.156,0.041
			c0.057,0,0.141,0.016,0.242,0.016c0.213,0.027,0.383,0.027,0.51,0.027c0.953,0,1.408-0.312,1.408-0.994
			c0-0.412-0.186-0.654-0.654-0.838c-0.385-0.145-0.426-0.186-0.426-0.328c0-0.156,0.156-0.238,0.455-0.238
			c0.17,0,0.426,0.012,0.652,0.041l0.127-0.682c-0.242-0.041-0.596-0.059-0.793-0.059
			C581.094,129.811,580.736,130.266,580.736,130.822z"/>
		<path fill="#FFFFFF" d="M580.355,131.615c0.07-0.297,0.1-0.512,0.1-0.738c0-0.652-0.469-1.078-1.207-1.078
			c-0.908,0-1.576,0.752-1.576,1.775c0,0.877,0.525,1.346,1.533,1.346c0.312,0,0.609-0.039,0.922-0.125l0.143-0.738
			c-0.311,0.127-0.611,0.184-0.938,0.184c-0.523,0-0.779-0.184-0.779-0.525c0-0.029,0-0.043,0-0.1H580.355z M579.219,130.48
			c0.27,0,0.428,0.139,0.428,0.381c0,0.043,0,0.102,0,0.156h-0.994C578.736,130.678,578.936,130.48,579.219,130.48z"/>
		<polygon fill="#FFFFFF" points="573.482,129.188 572.488,131.459 572.416,129.188 570.998,129.188 570.301,132.865 
			571.125,132.865 571.664,130.053 571.807,132.865 572.631,132.865 573.865,130.041 573.326,132.865 574.234,132.865 
			574.945,129.188 		"/>
		<path fill="#FFFFFF" d="M576.322,129.811c-0.34,0-0.625,0.045-1.078,0.156l-0.129,0.67l0.086-0.018l0.127-0.041
			c0.199-0.041,0.484-0.068,0.738-0.068c0.426,0,0.582,0.068,0.582,0.268c0,0.045,0,0.084-0.027,0.186
			c-0.143-0.016-0.271-0.016-0.369-0.016c-1.008,0-1.59,0.426-1.59,1.15c0,0.482,0.34,0.811,0.822,0.811
			c0.41,0,0.725-0.113,0.951-0.355l-0.014,0.312h0.738l0.016-0.086l0.014-0.098l0.027-0.158l0.029-0.186l0.184-1.062
			c0.057-0.328,0.072-0.441,0.072-0.598C577.502,130.109,577.104,129.811,576.322,129.811z M575.852,132.283
			c-0.195,0-0.309-0.129-0.309-0.312c0-0.299,0.256-0.455,0.766-0.455c0.057,0,0.1,0,0.197,0.014
			C576.492,131.971,576.223,132.283,575.852,132.283z"/>
		<path fill="#FFFFFF" d="M588.35,129.783c-1.08,0-1.775,0.727-1.775,1.775c0,0.768,0.412,1.377,1.42,1.377
			c0.922,0,1.617-0.441,1.76-1.434c0.029-0.172,0.029-0.184,0.029-0.367C589.783,130.381,589.285,129.783,588.35,129.783z
			 M588.787,131.488c-0.07,0.453-0.496,0.725-0.693,0.725c-0.312,0-0.512-0.271-0.512-0.666c0-0.486,0.283-1.025,0.738-1.025
			c0.369,0,0.498,0.285,0.498,0.598C588.818,131.248,588.818,131.373,588.787,131.488z"/>
		<path fill="#FFFFFF" d="M598,116.092h-36c-1.104,0-2,0.896-2,2v24c0,1.105,0.896,2,2,2h36c1.104,0,2-0.895,2-2v-24
			C600,116.988,599.104,116.092,598,116.092z M584.869,138.303c-1.873,0-3.576-0.711-4.869-1.873
			c-1.277,1.162-2.982,1.873-4.855,1.873c-4.004,0-7.256-3.238-7.256-7.242s3.252-7.254,7.256-7.254
			c1.873,0,3.578,0.711,4.855,1.875c1.293-1.164,2.996-1.875,4.869-1.875c4.004,0,7.242,3.25,7.242,7.254
			S588.873,138.303,584.869,138.303z"/>
	</g>
</g>
<g id="mastercard">
	<g id="payment_shapes_v2">
		<path fill="#FFFFFF" d="M240,142.092c0,1.105-0.896,2-2,2h-36c-1.104,0-2-0.895-2-2v-24c0-1.104,0.896-2,2-2h36
			c1.104,0,2,0.896,2,2V142.092z"/>
	</g>
	<g>
		<g>
			<path fill="#F28527" d="M217.104,130.055c0-3.971,3.22-7.186,7.188-7.186c3.969,0,7.188,3.215,7.188,7.186
				c0,3.967-3.219,7.186-7.188,7.186C220.324,137.24,217.104,134.021,217.104,130.055L217.104,130.055z"/>
			<path fill="#ED2129" d="M219.475,124.707c0.005,0-0.374,0.326-0.627,0.65h1.277c0,0,0.439,0.473,0.6,0.828h-2.5
				c0,0-0.242,0.379-0.401,0.703h3.303c0,0,0.302,0.564,0.37,0.863h-4.02c0,0-0.14,0.391-0.195,0.68l4.398-0.008
				c0.121,0.555,0.414,2.16-0.191,3.936l-3.995,0.004c0.062,0.213,0.173,0.502,0.276,0.713h3.432
				c-0.139,0.289-0.341,0.652-0.456,0.836h-2.517c0.131,0.203,0.346,0.52,0.484,0.664h1.551c-0.292,0.4-0.785,0.812-0.785,0.812
				h-0.012l0.016,0.008c-1.273,1.146-2.958,1.844-4.805,1.844c-3.971,0-7.188-3.219-7.188-7.186c0-3.971,3.216-7.186,7.188-7.186
				C216.522,122.869,218.206,123.564,219.475,124.707L219.475,124.707z"/>
			<path fill="#323678" d="M215.932,129.035l-0.114,0.645l-0.63-0.014c0,0-0.316,0.082-0.316,0.213c0,0.135,0.232,0.299,0.581,0.451
				c0.349,0.148,0.366,0.559,0.332,0.842c-0.034,0.283-0.083,0.869-1.096,0.896c-0.58,0.018-0.895-0.098-0.895-0.098l0.133-0.664
				c0,0,0.745,0.199,0.913,0.082c0.164-0.117,0.365-0.314,0.048-0.445c-0.315-0.135-0.827-0.35-0.827-0.881s0.215-0.828,0.547-0.979
				C214.939,128.936,215.52,128.953,215.932,129.035L215.932,129.035z"/>
			<polygon fill="#323678" points="210.952,131.992 210.217,131.992 210.643,129.473 209.738,131.979 209.233,131.979 
				209.108,129.371 208.667,131.992 207.971,131.992 208.626,128.146 209.467,128.146 209.762,130.361 210.74,128.146 
				211.604,128.146 210.952,131.992 			"/>
			<path fill="#323678" d="M216.587,132.047c-0.24,0-0.41-0.055-0.511-0.154c-0.103-0.107-0.153-0.27-0.153-0.477
				c0-0.057,0.005-0.109,0.012-0.152c0.005-0.059,0.017-0.117,0.022-0.188l0.441-2.461h0.688l-0.102,0.48h0.645l-0.109,0.609h-0.642
				l-0.176,1.047c-0.01,0.072-0.023,0.137-0.035,0.215c-0.01,0.07-0.017,0.141-0.017,0.188c0,0.109,0.017,0.174,0.062,0.213
				c0.04,0.039,0.106,0.064,0.199,0.064c0.034,0,0.078-0.008,0.137-0.025c0.057-0.021,0.108-0.039,0.142-0.061h0.058l-0.111,0.617
				c-0.078,0.029-0.158,0.045-0.242,0.059C216.809,132.041,216.707,132.047,216.587,132.047L216.587,132.047z"/>
			<path fill="#323678" d="M221.518,129.904c-0.148-0.115-0.483-0.09-0.553,0.145l-0.328,1.943h-0.688l0.495-2.896h0.687
				l-0.015,0.234c0.132-0.133,0.276-0.244,0.646-0.232C221.784,129.1,221.541,129.525,221.518,129.904L221.518,129.904z"/>
			<path fill="#323678" d="M222.818,132.068c-0.379,0-0.681-0.129-0.886-0.383c-0.211-0.254-0.311-0.625-0.311-1.105
				c0-0.375,0.044-0.715,0.135-1.023c0.091-0.307,0.222-0.57,0.38-0.791c0.159-0.217,0.346-0.389,0.568-0.508
				c0.216-0.125,0.45-0.188,0.694-0.188c0.193,0,0.374,0.033,0.544,0.084c0.083,0.029,0.241,0.105,0.241,0.105l-0.159,0.912
				c-0.08-0.1-0.16-0.18-0.24-0.24c-0.119-0.074-0.264-0.121-0.42-0.121c-0.285,0-0.517,0.152-0.702,0.463
				c-0.185,0.307-0.276,0.699-0.276,1.178c0,0.309,0.052,0.533,0.155,0.672c0.101,0.129,0.249,0.199,0.441,0.199
				c0.176,0,0.341-0.047,0.494-0.137c0.074-0.049,0.145-0.102,0.215-0.156l-0.162,0.871c0,0-0.081,0.041-0.122,0.053
				c-0.095,0.039-0.181,0.062-0.253,0.088C223.074,132.057,222.961,132.068,222.818,132.068L222.818,132.068z"/>
			<path fill="#323678" d="M212.642,131.893c-0.027,0.025-0.058,0.039-0.078,0.053c-0.076,0.037-0.137,0.07-0.201,0.096
				c-0.061,0.016-0.148,0.027-0.259,0.027c-0.178,0-0.324-0.066-0.434-0.199c-0.113-0.137-0.17-0.316-0.17-0.531
				c0-0.23,0.041-0.424,0.119-0.586c0.081-0.152,0.199-0.289,0.359-0.379c0.148-0.09,0.324-0.154,0.522-0.191l0.142-0.023
				c0.165-0.031,0.334-0.053,0.523-0.061c0-0.018,0-0.031,0.005-0.053c0.007-0.027,0.007-0.049,0.007-0.078
				c0-0.125-0.041-0.209-0.125-0.262c-0.086-0.047-0.212-0.07-0.376-0.07h-0.034c-0.103,0.006-0.215,0.031-0.34,0.074
				c-0.137,0.055-0.238,0.092-0.308,0.133h-0.062l0.102-0.684c0.08-0.033,0.206-0.062,0.369-0.094
				c0.081-0.021,0.162-0.029,0.24-0.037c0.087-0.016,0.176-0.016,0.263-0.016c0.335,0,0.577,0.061,0.74,0.176
				c0.156,0.117,0.23,0.299,0.23,0.555c0,0.031,0,0.078-0.005,0.131c-0.005,0.055-0.01,0.1-0.017,0.145l-0.336,1.975h-0.683
				l0.052-0.307c-0.039,0.039-0.096,0.084-0.154,0.139C212.701,131.846,212.67,131.869,212.642,131.893L212.642,131.893z
				 M212.642,130.691c-0.076,0.014-0.137,0.039-0.187,0.061c-0.081,0.039-0.137,0.094-0.176,0.162
				c-0.047,0.07-0.065,0.162-0.065,0.277c0,0.102,0.029,0.168,0.081,0.205c0.056,0.041,0.132,0.066,0.238,0.066
				c0.033,0,0.069-0.008,0.108-0.025c0.034-0.006,0.067-0.021,0.109-0.041c0.07-0.043,0.146-0.098,0.215-0.16l0.103-0.617
				c-0.12,0.018-0.238,0.033-0.34,0.059C212.701,130.678,212.67,130.682,212.642,130.691L212.642,130.691z"/>
			<path fill="#323678" d="M218.584,129.596c-0.091,0.016-0.178,0.062-0.245,0.141c-0.098,0.105-0.17,0.246-0.221,0.43h0.466h0.46
				c0-0.031,0.005-0.055,0.005-0.086c0-0.021,0.007-0.053,0.007-0.074c0-0.141-0.034-0.242-0.097-0.318
				c-0.062-0.068-0.148-0.107-0.267-0.107C218.658,129.58,218.619,129.588,218.584,129.596L218.584,129.596z M218.584,131.416h0.103
				c0.146,0,0.289-0.031,0.423-0.102c0.133-0.07,0.25-0.148,0.349-0.23h0.08l-0.131,0.746c-0.129,0.078-0.272,0.141-0.421,0.178
				c-0.125,0.039-0.26,0.053-0.402,0.061h-0.062c-0.37,0-0.648-0.105-0.846-0.332c-0.198-0.215-0.295-0.516-0.295-0.898
				c0-0.262,0.034-0.508,0.098-0.727c0.061-0.223,0.157-0.414,0.276-0.586c0.12-0.16,0.262-0.285,0.438-0.385
				c0.125-0.061,0.258-0.105,0.393-0.129c0.062-0.008,0.125-0.008,0.188-0.008c0.318,0,0.556,0.082,0.722,0.264
				c0.16,0.166,0.238,0.43,0.238,0.766c0,0.117-0.007,0.232-0.022,0.348c-0.017,0.109-0.04,0.227-0.067,0.332h-1.058h-0.535v0.029
				v0.031c0,0.201,0.058,0.354,0.159,0.471C218.295,131.338,218.42,131.396,218.584,131.416L218.584,131.416z"/>
			<path fill="#323678" d="M225.023,131.893c-0.029,0.025-0.057,0.039-0.084,0.053c-0.068,0.037-0.137,0.07-0.198,0.096
				c-0.061,0.016-0.149,0.027-0.256,0.027c-0.182,0-0.326-0.066-0.439-0.199c-0.112-0.137-0.164-0.316-0.164-0.531
				c0-0.23,0.042-0.424,0.12-0.586c0.078-0.152,0.198-0.289,0.352-0.379c0.147-0.09,0.327-0.154,0.53-0.191
				c0.044-0.008,0.091-0.016,0.141-0.023c0.159-0.031,0.334-0.053,0.517-0.061c0.006-0.018,0.006-0.031,0.012-0.053
				c0-0.027,0.004-0.049,0.004-0.078c0-0.125-0.046-0.209-0.124-0.262c-0.084-0.047-0.209-0.07-0.374-0.07h-0.035
				c-0.108,0.006-0.221,0.031-0.341,0.074c-0.137,0.055-0.237,0.092-0.307,0.133h-0.061l0.096-0.684
				c0.081-0.033,0.205-0.062,0.374-0.094c0.082-0.021,0.16-0.029,0.24-0.037c0.086-0.016,0.17-0.016,0.263-0.016
				c0.333,0,0.577,0.061,0.737,0.176c0.154,0.117,0.233,0.299,0.233,0.555c0,0.031,0,0.078-0.006,0.131
				c-0.005,0.055-0.012,0.1-0.017,0.145l-0.334,1.975h-0.681l0.051-0.307c-0.045,0.039-0.096,0.084-0.159,0.139L225.023,131.893
				L225.023,131.893z M225.023,130.691c-0.074,0.014-0.137,0.039-0.194,0.061c-0.072,0.039-0.134,0.094-0.176,0.162
				c-0.039,0.07-0.062,0.162-0.062,0.277c0,0.102,0.03,0.168,0.088,0.205c0.048,0.041,0.127,0.066,0.23,0.066
				c0.034,0,0.073-0.008,0.113-0.025c0.035-0.006,0.069-0.021,0.102-0.041c0.08-0.043,0.148-0.098,0.217-0.16l0.107-0.617
				c-0.124,0.018-0.237,0.033-0.346,0.059C225.076,130.678,225.047,130.682,225.023,130.691L225.023,130.691z"/>
			<path fill="#323678" d="M227.924,129.904c-0.151-0.115-0.485-0.09-0.556,0.145l-0.33,1.943h-0.686l0.495-2.896h0.686
				l-0.014,0.234c0.131-0.133,0.276-0.244,0.645-0.232C228.186,129.1,227.943,129.525,227.924,129.904L227.924,129.904z"/>
			<path fill-rule="evenodd" clip-rule="evenodd" fill="#323678" d="M229.273,129.709c-0.034,0.018-0.069,0.041-0.098,0.064
				c-0.09,0.061-0.164,0.154-0.228,0.26c-0.049,0.109-0.095,0.232-0.124,0.395c-0.035,0.152-0.052,0.309-0.052,0.457
				c0,0.176,0.034,0.301,0.093,0.379c0.061,0.082,0.152,0.121,0.273,0.121c0.044,0,0.088-0.008,0.135-0.031
				c0.023-0.008,0.041-0.016,0.062-0.031c0.069-0.039,0.131-0.078,0.193-0.131l0.242-1.428c-0.039-0.021-0.081-0.045-0.145-0.059
				c-0.059-0.025-0.109-0.033-0.155-0.033C229.397,129.672,229.336,129.688,229.273,129.709L229.273,129.709z M229.273,131.84
				c-0.052,0.045-0.108,0.092-0.169,0.131c-0.059,0.031-0.114,0.061-0.165,0.076c-0.059,0.014-0.126,0.021-0.201,0.021
				c-0.211,0-0.375-0.09-0.5-0.27c-0.119-0.182-0.18-0.445-0.18-0.777c0-0.279,0.027-0.539,0.094-0.777
				c0.062-0.238,0.155-0.455,0.268-0.641c0.115-0.184,0.246-0.324,0.398-0.432c0.146-0.1,0.296-0.154,0.455-0.16h0.023
				c0.117,0,0.22,0.016,0.306,0.043c0.087,0.031,0.177,0.086,0.266,0.154l0.153-1.01h0.687l-0.629,3.793h-0.687l0.052-0.299
				C229.379,131.746,229.324,131.793,229.273,131.84L229.273,131.84z"/>
			<path fill="#FFFFFF" d="M216.072,128.93l-0.117,0.65l-0.63-0.02c0,0-0.312,0.082-0.312,0.215s0.228,0.299,0.578,0.449
				c0.348,0.148,0.365,0.562,0.331,0.846c-0.031,0.283-0.082,0.865-1.094,0.896c-0.581,0.014-0.896-0.102-0.896-0.102l0.131-0.664
				c0,0,0.748,0.199,0.914,0.082c0.166-0.115,0.363-0.312,0.048-0.445c-0.314-0.135-0.828-0.35-0.828-0.881
				c0-0.527,0.215-0.828,0.547-0.979C215.076,128.83,215.656,128.848,216.072,128.93L216.072,128.93z"/>
			<polygon fill="#FFFFFF" points="211.088,131.889 210.355,131.889 210.781,129.369 209.876,131.873 209.37,131.873 
				209.249,129.268 208.806,131.889 208.111,131.889 208.764,128.043 209.605,128.043 209.9,130.256 210.876,128.043 
				211.741,128.043 211.088,131.889 			"/>
			<path fill="#FFFFFF" d="M216.725,131.943c-0.237,0-0.409-0.055-0.512-0.154c-0.1-0.109-0.153-0.271-0.153-0.479
				c0-0.053,0.008-0.109,0.012-0.156c0.006-0.051,0.017-0.113,0.024-0.184l0.439-2.461h0.688l-0.099,0.482h0.642l-0.108,0.607
				h-0.642l-0.176,1.047c-0.012,0.072-0.023,0.141-0.035,0.219c-0.01,0.066-0.016,0.139-0.016,0.182c0,0.107,0.016,0.18,0.062,0.219
				c0.041,0.039,0.107,0.061,0.197,0.061c0.036,0,0.081-0.008,0.138-0.021c0.058-0.025,0.107-0.039,0.142-0.064h0.057l-0.108,0.617
				c-0.081,0.031-0.16,0.047-0.244,0.062C216.948,131.936,216.845,131.943,216.725,131.943L216.725,131.943z"/>
			<path fill="#FFFFFF" d="M221.658,129.799c-0.15-0.115-0.486-0.09-0.552,0.148l-0.33,1.941h-0.686l0.491-2.896h0.688l-0.014,0.234
				c0.13-0.133,0.276-0.244,0.643-0.232C221.922,128.996,221.674,129.426,221.658,129.799L221.658,129.799z"/>
			<path fill="#FFFFFF" d="M222.955,131.967c-0.379,0-0.677-0.133-0.884-0.387c-0.209-0.254-0.311-0.625-0.311-1.102
				c0-0.377,0.044-0.719,0.135-1.025c0.092-0.307,0.221-0.568,0.383-0.793c0.158-0.215,0.344-0.385,0.566-0.508
				c0.215-0.125,0.449-0.188,0.693-0.188c0.192,0,0.374,0.033,0.545,0.088c0.082,0.027,0.241,0.102,0.241,0.102l-0.16,0.914
				c-0.078-0.102-0.159-0.18-0.239-0.242c-0.12-0.074-0.263-0.121-0.422-0.121c-0.283,0-0.517,0.156-0.698,0.465
				c-0.188,0.307-0.278,0.699-0.278,1.176c0,0.309,0.051,0.535,0.153,0.672c0.101,0.133,0.249,0.203,0.444,0.203
				c0.176,0,0.34-0.051,0.493-0.141c0.073-0.047,0.142-0.098,0.215-0.156l-0.161,0.871c0,0-0.081,0.041-0.123,0.059
				c-0.095,0.035-0.182,0.059-0.254,0.082C223.212,131.949,223.1,131.967,222.955,131.967L222.955,131.967z"/>
			<path fill="#FFFFFF" d="M212.78,131.789c-0.027,0.025-0.057,0.037-0.079,0.055c-0.076,0.039-0.137,0.068-0.199,0.092
				c-0.062,0.014-0.148,0.031-0.261,0.031c-0.176,0-0.324-0.07-0.431-0.201c-0.113-0.139-0.171-0.314-0.171-0.533
				c0-0.229,0.038-0.422,0.119-0.586c0.081-0.152,0.198-0.281,0.357-0.377c0.148-0.092,0.324-0.154,0.524-0.193l0.141-0.021
				c0.166-0.031,0.336-0.055,0.523-0.062c0-0.014,0-0.031,0.005-0.053c0.006-0.023,0.006-0.047,0.006-0.078
				c0-0.121-0.04-0.207-0.126-0.262c-0.085-0.047-0.208-0.07-0.374-0.07h-0.035c-0.102,0.01-0.216,0.031-0.341,0.078
				c-0.136,0.057-0.237,0.096-0.308,0.133h-0.061l0.102-0.688c0.08-0.031,0.206-0.061,0.37-0.092
				c0.078-0.023,0.159-0.033,0.238-0.037c0.086-0.018,0.177-0.018,0.262-0.018c0.337,0,0.578,0.061,0.736,0.178
				c0.163,0.115,0.237,0.301,0.237,0.555c0,0.031,0,0.076-0.006,0.133c-0.006,0.055-0.012,0.098-0.018,0.145l-0.335,1.973h-0.681
				l0.051-0.309c-0.039,0.039-0.095,0.086-0.154,0.139C212.837,131.74,212.809,131.766,212.78,131.789L212.78,131.789z
				 M212.78,130.586c-0.073,0.018-0.135,0.039-0.188,0.061c-0.079,0.039-0.137,0.092-0.176,0.164
				c-0.045,0.07-0.063,0.16-0.063,0.275c0,0.102,0.03,0.172,0.081,0.209c0.057,0.039,0.13,0.062,0.24,0.062
				c0.034,0,0.067-0.008,0.106-0.023c0.035-0.008,0.069-0.023,0.108-0.039c0.075-0.045,0.147-0.098,0.216-0.162l0.102-0.615
				c-0.118,0.016-0.237,0.031-0.34,0.055C212.837,130.572,212.809,130.578,212.78,130.586L212.78,130.586z"/>
			<path fill="#FFFFFF" d="M218.723,129.492c-0.09,0.018-0.176,0.061-0.245,0.139c-0.097,0.109-0.169,0.246-0.222,0.432h0.466h0.459
				c0-0.031,0.005-0.053,0.005-0.084c0-0.025,0.006-0.057,0.006-0.078c0-0.141-0.034-0.236-0.096-0.316
				c-0.062-0.066-0.15-0.107-0.268-0.107C218.797,129.477,218.755,129.484,218.723,129.492L218.723,129.492z M218.723,131.311h0.103
				c0.147,0,0.289-0.031,0.427-0.1c0.129-0.07,0.248-0.146,0.344-0.229h0.08l-0.129,0.746c-0.13,0.078-0.272,0.137-0.42,0.176
				c-0.125,0.039-0.262,0.055-0.404,0.062h-0.062c-0.37,0-0.65-0.109-0.848-0.332c-0.198-0.215-0.295-0.516-0.295-0.902
				c0-0.262,0.036-0.508,0.098-0.723c0.062-0.225,0.159-0.418,0.278-0.586c0.117-0.16,0.259-0.287,0.437-0.385
				c0.125-0.064,0.256-0.111,0.393-0.133c0.061-0.008,0.125-0.008,0.186-0.008c0.319,0,0.559,0.084,0.723,0.264
				c0.159,0.168,0.24,0.43,0.24,0.77c0,0.117-0.005,0.232-0.022,0.348c-0.02,0.105-0.039,0.223-0.069,0.332h-1.057h-0.534v0.029
				v0.031c0,0.201,0.056,0.354,0.159,0.469C218.434,131.232,218.557,131.295,218.723,131.311L218.723,131.311z"/>
			<path fill="#FFFFFF" d="M225.162,131.789c-0.027,0.025-0.058,0.037-0.086,0.055c-0.068,0.039-0.136,0.068-0.198,0.092
				c-0.061,0.014-0.148,0.031-0.254,0.031c-0.185,0-0.327-0.07-0.44-0.201c-0.113-0.139-0.166-0.314-0.166-0.533
				c0-0.229,0.042-0.422,0.12-0.586c0.081-0.152,0.199-0.281,0.354-0.377c0.148-0.092,0.324-0.154,0.527-0.193
				c0.045-0.008,0.092-0.014,0.142-0.021c0.159-0.031,0.334-0.055,0.518-0.062c0.005-0.014,0.005-0.031,0.009-0.053
				c0-0.023,0.008-0.047,0.008-0.078c0-0.121-0.047-0.207-0.128-0.262c-0.083-0.047-0.209-0.07-0.374-0.07h-0.034
				c-0.108,0.01-0.222,0.031-0.34,0.078c-0.137,0.057-0.24,0.096-0.308,0.133h-0.062l0.097-0.688
				c0.081-0.031,0.206-0.061,0.375-0.092c0.079-0.023,0.159-0.033,0.238-0.037c0.087-0.018,0.17-0.018,0.262-0.018
				c0.336,0,0.579,0.061,0.741,0.178c0.15,0.115,0.23,0.301,0.23,0.555c0,0.031,0,0.076-0.005,0.133
				c-0.006,0.055-0.01,0.098-0.017,0.145l-0.335,1.973h-0.684l0.054-0.309c-0.048,0.039-0.098,0.086-0.159,0.139L225.162,131.789
				L225.162,131.789z M225.162,130.586c-0.076,0.018-0.137,0.039-0.193,0.061c-0.073,0.039-0.137,0.092-0.176,0.164
				c-0.039,0.07-0.064,0.16-0.064,0.275c0,0.102,0.03,0.172,0.087,0.209c0.049,0.039,0.129,0.062,0.23,0.062
				c0.035,0,0.074-0.008,0.115-0.023c0.034-0.008,0.067-0.023,0.103-0.039c0.08-0.045,0.147-0.098,0.216-0.162l0.105-0.615
				c-0.123,0.016-0.237,0.031-0.345,0.055C225.212,130.572,225.184,130.578,225.162,130.586L225.162,130.586z"/>
			<path fill="#FFFFFF" d="M228.064,129.799c-0.154-0.115-0.486-0.09-0.558,0.148l-0.327,1.941h-0.689l0.496-2.896h0.685
				l-0.014,0.234c0.13-0.133,0.277-0.244,0.646-0.232C228.326,128.996,228.08,129.426,228.064,129.799L228.064,129.799z"/>
			<path fill-rule="evenodd" clip-rule="evenodd" fill="#FFFFFF" d="M229.412,129.607c-0.034,0.016-0.068,0.039-0.095,0.062
				c-0.092,0.062-0.167,0.156-0.229,0.262c-0.051,0.107-0.098,0.232-0.125,0.395c-0.034,0.152-0.051,0.309-0.051,0.451
				c0,0.178,0.034,0.303,0.09,0.377c0.063,0.086,0.155,0.125,0.273,0.125c0.047,0,0.092-0.008,0.137-0.029
				c0.022-0.01,0.042-0.018,0.063-0.029c0.068-0.039,0.129-0.08,0.19-0.135l0.245-1.422c-0.039-0.025-0.083-0.049-0.146-0.064
				c-0.059-0.02-0.108-0.031-0.155-0.031C229.537,129.568,229.475,129.584,229.412,129.607L229.412,129.607z M229.412,131.734
				c-0.051,0.049-0.109,0.092-0.171,0.131c-0.057,0.031-0.114,0.062-0.164,0.078c-0.057,0.016-0.126,0.023-0.198,0.023
				c-0.212,0-0.377-0.094-0.501-0.27c-0.118-0.184-0.182-0.447-0.182-0.779c0-0.277,0.027-0.541,0.098-0.779
				c0.061-0.238,0.151-0.457,0.267-0.637c0.113-0.188,0.245-0.328,0.397-0.434c0.147-0.102,0.295-0.152,0.455-0.162h0.022
				c0.12,0,0.223,0.018,0.309,0.047c0.084,0.029,0.177,0.086,0.266,0.154l0.154-1.01h0.686l-0.63,3.791h-0.686l0.051-0.301
				C229.518,131.641,229.461,131.691,229.412,131.734L229.412,131.734z"/>
		</g>
	</g>
	<g>
		<path fill="#FFFFFF" d="M671.254,130.227l0.014-0.234h-0.688l-0.49,2.896h0.686l0.33-1.941c0.066-0.238,0.402-0.264,0.553-0.148
			c0.016-0.373,0.264-0.803,0.238-0.805C671.529,129.982,671.385,130.094,671.254,130.227z"/>
		<path fill="#FFFFFF" d="M668.908,129.898c-0.061,0-0.125,0-0.186,0.008c-0.137,0.021-0.268,0.068-0.393,0.133
			c-0.178,0.098-0.32,0.225-0.438,0.385c-0.119,0.168-0.215,0.361-0.277,0.586c-0.062,0.215-0.098,0.461-0.098,0.723
			c0,0.387,0.098,0.688,0.295,0.902c0.197,0.223,0.479,0.332,0.848,0.332h0.062c0.143-0.008,0.279-0.023,0.404-0.062
			c0.148-0.039,0.289-0.098,0.42-0.176l0.129-0.746h-0.08c-0.096,0.082-0.215,0.158-0.344,0.229c-0.137,0.068-0.279,0.1-0.426,0.1
			h-0.104c-0.166-0.016-0.289-0.078-0.375-0.17c-0.104-0.115-0.158-0.268-0.158-0.469v-0.031v-0.029h0.533h1.057
			c0.031-0.109,0.051-0.227,0.07-0.332c0.016-0.115,0.021-0.23,0.021-0.348c0-0.34-0.08-0.602-0.24-0.77
			C669.467,129.982,669.229,129.898,668.908,129.898z M669.188,130.979c0,0.031-0.006,0.053-0.006,0.084h-0.459h-0.467
			c0.053-0.186,0.125-0.322,0.223-0.432c0.068-0.078,0.154-0.121,0.244-0.139c0.033-0.008,0.074-0.016,0.107-0.016
			c0.117,0,0.205,0.041,0.268,0.107c0.062,0.08,0.096,0.176,0.096,0.316C669.193,130.922,669.188,130.953,669.188,130.979z"/>
		<path fill="#FFFFFF" d="M667.186,132.305c-0.057,0.014-0.102,0.021-0.137,0.021c-0.09,0-0.156-0.021-0.197-0.061
			c-0.047-0.039-0.062-0.111-0.062-0.219c0-0.043,0.006-0.115,0.016-0.182c0.012-0.078,0.023-0.146,0.035-0.219l0.176-1.047h0.643
			l0.107-0.607h-0.643l0.1-0.482h-0.688l-0.439,2.461c-0.008,0.07-0.018,0.133-0.023,0.184c-0.004,0.047-0.012,0.104-0.012,0.156
			c0,0.207,0.053,0.369,0.152,0.479c0.104,0.1,0.275,0.154,0.512,0.154c0.121,0,0.223-0.008,0.309-0.023
			c0.084-0.016,0.164-0.031,0.244-0.062l0.107-0.617h-0.057C667.293,132.266,667.244,132.279,667.186,132.305z"/>
		<path fill="#FFFFFF" d="M664.008,130.771c0.006-0.057,0.006-0.102,0.006-0.133c0-0.254-0.074-0.439-0.236-0.555
			c-0.158-0.117-0.398-0.178-0.736-0.178c-0.084,0-0.176,0-0.262,0.018c-0.078,0.004-0.16,0.014-0.238,0.037
			c-0.164,0.031-0.289,0.061-0.369,0.092l-0.102,0.688h0.061c0.07-0.037,0.172-0.076,0.309-0.133
			c0.125-0.047,0.238-0.068,0.34-0.078h0.035c0.166,0,0.289,0.023,0.375,0.07c0.086,0.055,0.125,0.141,0.125,0.262
			c0,0.031,0,0.055-0.006,0.078c-0.006,0.021-0.006,0.039-0.006,0.053c-0.188,0.008-0.357,0.031-0.523,0.062l-0.141,0.021
			c-0.199,0.039-0.375,0.102-0.523,0.193c-0.16,0.096-0.277,0.225-0.357,0.377c-0.08,0.164-0.119,0.357-0.119,0.586
			c0,0.219,0.059,0.395,0.172,0.533c0.105,0.131,0.254,0.201,0.43,0.201c0.113,0,0.199-0.018,0.262-0.031
			c0.062-0.023,0.123-0.053,0.199-0.092c0.021-0.018,0.051-0.029,0.078-0.055c0.029-0.023,0.059-0.049,0.092-0.07
			c0.059-0.053,0.115-0.1,0.154-0.139l-0.051,0.309h0.68l0.336-1.973C663.996,130.869,664.002,130.826,664.008,130.771z
			 M663.104,132.133c-0.068,0.064-0.141,0.117-0.215,0.162c-0.039,0.016-0.074,0.031-0.109,0.039
			c-0.039,0.016-0.072,0.023-0.105,0.023c-0.109,0-0.184-0.023-0.24-0.062c-0.051-0.037-0.08-0.107-0.08-0.209
			c0-0.115,0.018-0.205,0.062-0.275c0.039-0.072,0.098-0.125,0.176-0.164c0.053-0.021,0.115-0.043,0.188-0.061
			c0.029-0.008,0.059-0.014,0.086-0.014c0.104-0.023,0.223-0.039,0.34-0.055L663.104,132.133z"/>
		<path fill="#FFFFFF" d="M665.324,130.561l0.631,0.02l0.117-0.65c-0.416-0.082-0.996-0.1-1.328,0.049
			c-0.332,0.15-0.547,0.451-0.547,0.979c0,0.531,0.514,0.746,0.828,0.881c0.314,0.133,0.117,0.33-0.049,0.445
			c-0.166,0.117-0.914-0.082-0.914-0.082l-0.131,0.664c0,0,0.314,0.115,0.895,0.102c1.012-0.031,1.062-0.613,1.094-0.896
			c0.035-0.283,0.018-0.697-0.33-0.846c-0.35-0.15-0.578-0.316-0.578-0.449S665.324,130.561,665.324,130.561z"/>
		<polygon fill="#FFFFFF" points="660.877,129.043 659.9,131.256 659.605,129.043 658.764,129.043 658.111,132.889 658.807,132.889 
			659.248,130.268 659.369,132.873 659.877,132.873 660.781,130.369 660.355,132.889 661.088,132.889 661.74,129.043 		"/>
		<path fill="#FFFFFF" d="M673.502,129.705c0.158,0,0.301,0.047,0.422,0.121c0.08,0.062,0.16,0.141,0.238,0.242l0.16-0.914
			c0,0-0.158-0.074-0.24-0.102c-0.172-0.055-0.354-0.088-0.545-0.088c-0.244,0-0.479,0.062-0.693,0.188
			c-0.223,0.123-0.408,0.293-0.566,0.508c-0.162,0.225-0.291,0.486-0.383,0.793s-0.135,0.648-0.135,1.025
			c0,0.477,0.102,0.848,0.311,1.102c0.207,0.254,0.506,0.387,0.885,0.387c0.145,0,0.258-0.018,0.338-0.031
			c0.072-0.023,0.158-0.047,0.254-0.082c0.041-0.018,0.123-0.059,0.123-0.059l0.16-0.871c-0.072,0.059-0.141,0.109-0.215,0.156
			c-0.152,0.09-0.316,0.141-0.492,0.141c-0.195,0-0.344-0.07-0.445-0.203c-0.102-0.137-0.152-0.363-0.152-0.672
			c0-0.477,0.09-0.869,0.277-1.176C672.984,129.861,673.219,129.705,673.502,129.705z"/>
		<path fill="#FFFFFF" d="M678.561,130.502c-0.117,0.18-0.207,0.398-0.268,0.637c-0.07,0.238-0.098,0.502-0.098,0.779
			c0,0.332,0.064,0.596,0.182,0.779c0.125,0.176,0.289,0.27,0.502,0.27c0.072,0,0.141-0.008,0.197-0.023
			c0.051-0.016,0.107-0.047,0.164-0.078c0.062-0.039,0.121-0.082,0.172-0.131c0.049-0.043,0.105-0.094,0.17-0.146l-0.051,0.301
			h0.686l0.631-3.791h-0.686l-0.154,1.01c-0.088-0.068-0.182-0.125-0.266-0.154c-0.086-0.029-0.189-0.047-0.309-0.047h-0.021
			c-0.16,0.01-0.309,0.061-0.455,0.162C678.805,130.174,678.674,130.314,678.561,130.502z M679.088,130.932
			c0.062-0.105,0.137-0.199,0.229-0.262c0.027-0.023,0.061-0.047,0.096-0.062c0.062-0.023,0.125-0.039,0.197-0.039
			c0.047,0,0.096,0.012,0.154,0.031c0.062,0.016,0.107,0.039,0.146,0.064l-0.244,1.422c-0.062,0.055-0.123,0.096-0.191,0.135
			c-0.021,0.012-0.041,0.02-0.062,0.029c-0.045,0.021-0.09,0.029-0.137,0.029c-0.119,0-0.211-0.039-0.273-0.125
			c-0.057-0.074-0.09-0.199-0.09-0.377c0-0.143,0.016-0.299,0.051-0.451C678.99,131.164,679.037,131.039,679.088,130.932z"/>
		<path fill="#FFFFFF" d="M688,116.092h-36c-1.104,0-2,0.896-2,2v24c0,1.105,0.896,2,2,2h36c1.104,0,2-0.895,2-2v-24
			C690,116.988,689.104,116.092,688,116.092z M674.291,138.24c-1.85,0-3.531-0.705-4.807-1.855l-0.004,0.004h-0.012l0.016,0.008
			c-1.273,1.146-2.959,1.844-4.805,1.844c-3.971,0-7.188-3.219-7.188-7.186c0-3.971,3.217-7.186,7.188-7.186
			c1.842,0,3.525,0.695,4.794,1.836c0.224-0.244,1.837-1.836,4.817-1.836c3.969,0,7.188,3.215,7.188,7.186
			C681.479,135.021,678.26,138.24,674.291,138.24z"/>
		<path fill="#FFFFFF" d="M675.424,129.906c-0.092,0-0.176,0-0.262,0.018c-0.08,0.004-0.16,0.014-0.238,0.037
			c-0.17,0.031-0.295,0.061-0.375,0.092l-0.098,0.688h0.062c0.068-0.037,0.172-0.076,0.309-0.133c0.117-0.047,0.23-0.068,0.34-0.078
			h0.033c0.164,0,0.291,0.023,0.373,0.07c0.082,0.055,0.129,0.141,0.129,0.262c0,0.031-0.008,0.055-0.008,0.078
			c-0.004,0.021-0.004,0.039-0.01,0.053c-0.184,0.008-0.359,0.031-0.518,0.062c-0.051,0.008-0.098,0.014-0.143,0.021
			c-0.203,0.039-0.379,0.102-0.527,0.193c-0.154,0.096-0.273,0.225-0.354,0.377c-0.078,0.164-0.121,0.357-0.121,0.586
			c0,0.219,0.053,0.395,0.166,0.533c0.113,0.131,0.256,0.201,0.439,0.201c0.105,0,0.193-0.018,0.254-0.031
			c0.062-0.023,0.131-0.053,0.199-0.092c0.027-0.018,0.059-0.029,0.086-0.055l0.086-0.07c0.062-0.053,0.111-0.1,0.16-0.139
			l-0.055,0.309h0.684l0.336-1.973c0.006-0.047,0.01-0.09,0.016-0.145c0.006-0.057,0.006-0.102,0.006-0.133
			c0-0.254-0.08-0.439-0.23-0.555C676.002,129.967,675.76,129.906,675.424,129.906z M675.48,132.133
			c-0.068,0.064-0.137,0.117-0.217,0.162c-0.035,0.016-0.068,0.031-0.102,0.039c-0.041,0.016-0.08,0.023-0.115,0.023
			c-0.102,0-0.182-0.023-0.23-0.062c-0.057-0.037-0.088-0.107-0.088-0.209c0-0.115,0.025-0.205,0.064-0.275
			c0.039-0.072,0.104-0.125,0.176-0.164c0.057-0.021,0.117-0.043,0.193-0.061c0.021-0.008,0.051-0.014,0.078-0.014
			c0.109-0.023,0.223-0.039,0.346-0.055L675.48,132.133z"/>
		<path fill="#FFFFFF" d="M677.658,130.227l0.014-0.234h-0.686l-0.496,2.896h0.689l0.326-1.941c0.072-0.238,0.404-0.264,0.559-0.148
			c0.016-0.373,0.262-0.803,0.238-0.805C677.936,129.982,677.787,130.094,677.658,130.227z"/>
	</g>
</g>
<g id="paypal">
	<g>
		<path fill="#FFFFFF" d="M330,142.092c0,1.105-0.896,2-2,2h-36c-1.104,0-2-0.895-2-2v-24c0-1.104,0.896-2,2-2h36
			c1.104,0,2,0.896,2,2V142.092z"/>
		<path fill-rule="evenodd" clip-rule="evenodd" fill="#187FAD" d="M319.315,127.289c-0.822,0-1.472,0.219-1.969,0.316l-0.154,1.25
			c0.249-0.119,1.033-0.338,1.683-0.357c0.651-0.02,1.032,0.119,0.898,0.676c-1.93,0-3.23,0.395-3.497,1.645
			c-0.383,2.141,1.969,2.08,2.906,1.15l-0.116,0.516h1.72l0.745-3.412C321.839,127.625,320.52,127.27,319.315,127.289z
			 M319.431,130.779c-0.096,0.455-0.461,0.652-0.898,0.674c-0.383,0.018-0.728-0.316-0.479-0.713
			c0.191-0.34,0.728-0.418,1.051-0.418c0.134,0,0.287,0,0.422,0C319.487,130.48,319.468,130.619,319.431,130.779z"/>
		<polygon fill-rule="evenodd" clip-rule="evenodd" fill="#187FAD" points="323.004,125.939 321.582,132.484 323.328,132.484 
			324.769,125.939 323.004,125.939 323.004,125.939 		"/>
		<path fill-rule="evenodd" clip-rule="evenodd" fill="#187FAD" d="M314.976,125.961h-3.198l-1.419,6.523h1.86l0.478-2.162h1.322
			c1.302,0,2.373-0.793,2.661-2.141C317.007,126.654,315.896,125.961,314.976,125.961z M314.919,128.182
			c-0.114,0.496-0.614,0.891-1.094,0.891h-0.86l0.383-1.783h0.921C314.746,127.289,315.034,127.684,314.919,128.182z"/>
		<path fill-rule="evenodd" clip-rule="evenodd" fill="#195A7F" d="M302.562,127.289c-0.812,0-1.453,0.219-1.925,0.316l-0.151,1.25
			c0.226-0.119,1-0.338,1.643-0.357c0.641-0.02,1.02,0.119,0.904,0.676c-1.904,0-3.189,0.395-3.454,1.645
			c-0.378,2.141,1.945,2.08,2.851,1.15l-0.112,0.516h1.719l0.735-3.412C305.073,127.625,303.75,127.27,302.562,127.289z
			 M302.694,130.779c-0.096,0.455-0.473,0.652-0.908,0.674c-0.377,0.018-0.697-0.316-0.453-0.713c0.19-0.34,0.718-0.418,1.021-0.418
			c0.15,0,0.282,0,0.434,0C302.751,130.48,302.712,130.619,302.694,130.779z"/>
		<polygon fill-rule="evenodd" clip-rule="evenodd" fill="#195A7F" points="305.52,127.383 307.238,127.383 307.515,130.42 
			309.196,127.383 310.969,127.383 306.887,134.654 304.965,134.654 306.222,132.518 305.52,127.383 305.52,127.383 		"/>
		<path fill-rule="evenodd" clip-rule="evenodd" fill="#195A7F" d="M298.288,125.961h-3.207l-1.422,6.523h1.883l0.461-2.162h1.344
			c1.286,0,2.363-0.793,2.65-2.141C300.324,126.654,299.23,125.961,298.288,125.961z M298.23,128.182
			c-0.113,0.496-0.597,0.891-1.077,0.891h-0.881l0.402-1.783h0.923C298.059,127.289,298.364,127.684,298.23,128.182z"/>
		<path fill="#195A7F" d="M325.146,126.785v-0.77h-0.286v-0.105h0.691v0.105h-0.289v0.77H325.146z"/>
		<path fill="#195A7F" d="M325.667,126.785v-0.875h0.173l0.208,0.619c0.019,0.059,0.031,0.102,0.042,0.131
			c0.009-0.033,0.024-0.08,0.046-0.139l0.209-0.611h0.156v0.875h-0.111v-0.73l-0.254,0.73h-0.104l-0.253-0.744v0.744H325.667z"/>
	</g>
	<g>
		<path fill="#FFFFFF" d="M764.269,128.289h-0.921l-0.383,1.783h0.86c0.479,0,0.979-0.395,1.094-0.891
			C765.034,128.684,764.746,128.289,764.269,128.289z"/>
		<path fill="#FFFFFF" d="M751.333,131.74c-0.244,0.396,0.076,0.73,0.453,0.713c0.436-0.021,0.812-0.219,0.908-0.674
			c0.018-0.16,0.057-0.299,0.094-0.457c-0.151,0-0.283,0-0.434,0C752.051,131.322,751.523,131.4,751.333,131.74z"/>
		<path fill="#FFFFFF" d="M768.054,131.74c-0.249,0.396,0.096,0.73,0.479,0.713c0.438-0.021,0.803-0.219,0.898-0.674
			c0.037-0.16,0.057-0.299,0.096-0.457c-0.135,0-0.288,0-0.422,0C768.781,131.322,768.245,131.4,768.054,131.74z"/>
		<path fill="#FFFFFF" d="M747.598,128.289h-0.923l-0.402,1.783h0.881c0.48,0,0.964-0.395,1.077-0.891
			C748.364,128.684,748.059,128.289,747.598,128.289z"/>
		<path fill="#FFFFFF" d="M778,116.092h-36c-1.104,0-2,0.896-2,2v24c0,1.105,0.896,2,2,2h36c1.104,0,2-0.895,2-2v-24
			C780,116.988,779.104,116.092,778,116.092z M747.347,131.322h-1.344l-0.461,2.162h-1.883l1.422-6.523h3.207
			c0.942,0,2.036,0.693,1.709,2.221C749.71,130.529,748.633,131.322,747.347,131.322z M754.771,130.072l-0.735,3.412h-1.719
			l0.112-0.516c-0.905,0.93-3.229,0.99-2.851-1.15c0.265-1.25,1.55-1.645,3.454-1.645c0.115-0.557-0.264-0.695-0.904-0.676
			c-0.643,0.02-1.417,0.238-1.643,0.357l0.151-1.25c0.472-0.098,1.113-0.316,1.925-0.316
			C753.75,128.27,755.073,128.625,754.771,130.072z M754.965,135.654l1.257-2.137l-0.702-5.135h1.719l0.276,3.037l1.682-3.037h1.772
			l-4.082,7.271H754.965z M764.019,131.322h-1.322l-0.478,2.162h-1.86l1.419-6.523h3.198c0.92,0,2.031,0.693,1.704,2.221
			C766.392,130.529,765.32,131.322,764.019,131.322z M771.531,130.072l-0.745,3.412h-1.72l0.116-0.516
			c-0.938,0.93-3.289,0.99-2.906-1.15c0.267-1.25,1.567-1.645,3.497-1.645c0.134-0.557-0.247-0.695-0.898-0.676
			c-0.649,0.02-1.434,0.238-1.683,0.357l0.154-1.25c0.497-0.098,1.146-0.316,1.969-0.316
			C770.52,128.27,771.839,128.625,771.531,130.072z M773.328,133.484h-1.746l1.422-6.545h1.765L773.328,133.484z M775.551,127.016
			h-0.289v0.77h-0.116v-0.77h-0.286v-0.105h0.691V127.016z M776.501,127.785h-0.111v-0.73l-0.254,0.73h-0.104l-0.253-0.744v0.744
			h-0.111v-0.875h0.173l0.208,0.619c0.019,0.059,0.031,0.102,0.042,0.131c0.009-0.033,0.024-0.08,0.046-0.139l0.209-0.611h0.156
			V127.785z"/>
	</g>
</g>
<g id="worldpay">
	<g>
		<path fill="#FFFFFF" d="M420,142.092c0,1.105-0.896,2-2,2h-36c-1.104,0-2-0.895-2-2v-24c0-1.104,0.896-2,2-2h36
			c1.104,0,2,0.896,2,2V142.092z"/>
		<path fill="#203C73" d="M389.453,133.014h-1.231l-1.059-3.814c-0.111-0.375-0.175-0.77-0.237-1.162h-0.012
			c-0.044,0.385-0.118,0.758-0.22,1.143l-1.05,3.834h-1.177l-1.611-6.176h1.068l0.957,3.75c0.11,0.414,0.184,0.805,0.238,1.217h0.01
			c0.065-0.402,0.139-0.797,0.248-1.172l1.06-3.795h1.095l1.084,3.805c0.092,0.332,0.185,0.742,0.248,1.135h0.008
			c0.066-0.385,0.131-0.74,0.223-1.08l0.967-3.859h1.001L389.453,133.014"/>
		<path fill="#203C73" d="M392.874,133.104c-1.27,0-2.098-0.703-2.098-2.305c0-1.373,0.892-2.426,2.282-2.426
			c1.222,0,2.086,0.68,2.086,2.279C395.145,132.053,394.227,133.104,392.874,133.104 M392.974,129.199
			c-0.596,0-1.176,0.455-1.176,1.498c0,1.025,0.404,1.564,1.168,1.564c0.633,0,1.167-0.494,1.167-1.545
			C394.133,129.748,393.757,129.199,392.974,129.199z"/>
		<path fill="#203C73" d="M398.035,129.344c-0.91-0.174-1.353,0.457-1.353,1.818v1.852h-0.983v-4.547h0.938
			c0,0.256-0.028,0.658-0.092,1.006h0.017c0.203-0.615,0.664-1.18,1.52-1.088L398.035,129.344"/>
		<rect x="398.608" y="126.781" fill="#203C73" width="0.984" height="6.232"/>
		<path fill="#203C73" d="M403.327,133.014c0-0.238,0.018-0.598,0.064-0.854h-0.018c-0.249,0.561-0.783,0.943-1.491,0.943
			c-1.124,0-1.685-0.824-1.685-2.139c0-1.564,0.912-2.572,2.393-2.572c0.222,0,0.441,0.02,0.69,0.037v-1.648h0.974v6.232H403.327
			 M403.281,129.252c-0.249-0.053-0.488-0.082-0.727-0.082c-0.782,0-1.316,0.475-1.316,1.703c0,0.914,0.285,1.426,0.911,1.426
			c0.727,0,1.132-0.859,1.132-1.635V129.252z"/>
		<path fill="#203C73" d="M406.438,130.754c-0.138,0-0.305,0-0.461-0.02v2.279h-1.001v-6.176c0.477-0.016,1.009-0.035,1.59-0.035
			c1.471,0,2.281,0.715,2.281,1.855C408.847,129.857,407.88,130.754,406.438,130.754 M406.492,127.615c-0.192,0-0.349,0-0.516,0.02
			v2.258c0.14,0.02,0.296,0.037,0.441,0.037c0.837-0.008,1.39-0.467,1.39-1.189C407.808,128.037,407.395,127.615,406.492,127.615z"
			/>
		<path fill="#203C73" d="M411.683,133.014c0-0.293,0.012-0.598,0.047-0.844l-0.011-0.01c-0.22,0.541-0.789,0.943-1.517,0.943
			c-0.783,0-1.279-0.521-1.279-1.262c0-1.025,1.021-1.582,2.695-1.582v-0.266c0-0.559-0.238-0.859-0.957-0.859
			c-0.423,0-0.938,0.137-1.306,0.328l-0.194-0.785c0.463-0.174,1.077-0.305,1.666-0.305c1.388,0,1.775,0.605,1.775,1.512v1.883
			c0,0.393,0.01,0.859,0.029,1.246H411.683 M411.618,130.918c-1.369,0-1.748,0.373-1.748,0.805c0,0.348,0.242,0.611,0.626,0.611
			c0.672,0,1.122-0.641,1.122-1.289V130.918z"/>
		<path fill="#203C73" d="M415.266,133.33c-0.571,1.52-1.179,1.986-2.219,1.986c-0.175,0-0.423-0.025-0.581-0.055l0.111-0.852
			c0.157,0.049,0.377,0.074,0.562,0.074c0.432,0,0.837-0.209,1.141-1.021l0.165-0.449l-1.711-4.547h1.105l0.745,2.074
			c0.146,0.402,0.256,0.807,0.357,1.189h0.008c0.094-0.363,0.287-0.959,0.452-1.416l0.652-1.848h1.059L415.266,133.33"/>
		<polyline fill="#203C73" points="415.598,126.863 415.271,126.863 415.271,126.744 416.06,126.744 416.06,126.863 
			415.728,126.863 415.728,127.736 415.598,127.736 415.598,126.863 		"/>
		<path fill="#203C73" d="M416.194,126.744h0.199l0.235,0.703c0.032,0.098,0.039,0.117,0.046,0.145h0.002
			c0.018-0.051,0.02-0.064,0.054-0.158l0.238-0.689h0.175v0.992h-0.127v-0.83h-0.002l-0.285,0.83h-0.12l-0.284-0.842h-0.004v0.842
			h-0.127V126.744"/>
	</g>
	<g>
		<path fill="#FFFFFF" d="M859.87,132.723c0,0.348,0.242,0.611,0.626,0.611c0.672,0,1.122-0.641,1.122-1.289v-0.127
			C860.249,131.918,859.87,132.291,859.87,132.723z"/>
		<path fill="#FFFFFF" d="M856.492,128.615c-0.192,0-0.349,0-0.516,0.02v2.258c0.14,0.02,0.296,0.037,0.441,0.037
			c0.837-0.008,1.39-0.467,1.39-1.189C857.808,129.037,857.395,128.615,856.492,128.615z"/>
		<path fill="#FFFFFF" d="M842.974,130.199c-0.596,0-1.176,0.455-1.176,1.498c0,1.025,0.404,1.564,1.168,1.564
			c0.633,0,1.167-0.494,1.167-1.545C844.133,130.748,843.757,130.199,842.974,130.199z"/>
		<path fill="#FFFFFF" d="M851.238,131.873c0,0.914,0.285,1.426,0.911,1.426c0.727,0,1.132-0.859,1.132-1.635v-1.412
			c-0.249-0.053-0.488-0.082-0.727-0.082C851.772,130.17,851.238,130.645,851.238,131.873z"/>
		<path fill="#FFFFFF" d="M868,116.092h-36c-1.104,0-2,0.896-2,2v24c0,1.105,0.896,2,2,2h36c1.104,0,2-0.895,2-2v-24
			C870,116.988,869.104,116.092,868,116.092z M865.271,127.744h0.789v0.119h-0.332v0.873h-0.13v-0.873h-0.327V127.744z
			 M838.222,134.014l-1.059-3.814c-0.111-0.375-0.175-0.77-0.237-1.162h-0.012c-0.044,0.385-0.118,0.758-0.22,1.143l-1.05,3.834
			h-1.177l-1.611-6.176h1.068l0.957,3.75c0.11,0.414,0.184,0.805,0.238,1.217h0.01c0.065-0.402,0.139-0.797,0.248-1.172l1.06-3.795
			h1.095l1.084,3.805c0.092,0.332,0.185,0.742,0.248,1.135h0.008c0.066-0.385,0.131-0.74,0.223-1.08l0.967-3.859h1.001l-1.609,6.176
			H838.222z M842.874,134.104c-1.27,0-2.098-0.703-2.098-2.305c0-1.373,0.892-2.426,2.282-2.426c1.222,0,2.086,0.68,2.086,2.279
			C845.145,133.053,844.227,134.104,842.874,134.104z M848.035,130.344c-0.91-0.174-1.353,0.457-1.353,1.818v1.852h-0.983v-4.547
			h0.938c0,0.256-0.028,0.658-0.092,1.006h0.017c0.203-0.615,0.664-1.18,1.52-1.088L848.035,130.344z M849.593,134.014h-0.984
			v-6.232h0.984V134.014z M854.255,134.014h-0.928c0-0.238,0.018-0.598,0.064-0.854h-0.018c-0.249,0.561-0.783,0.943-1.491,0.943
			c-1.124,0-1.685-0.824-1.685-2.139c0-1.564,0.912-2.572,2.393-2.572c0.222,0,0.441,0.02,0.69,0.037v-1.648h0.974V134.014z
			 M856.438,131.754c-0.138,0-0.305,0-0.461-0.02v2.279h-1.001v-6.176c0.477-0.016,1.009-0.035,1.59-0.035
			c1.471,0,2.281,0.715,2.281,1.855C858.847,130.857,857.88,131.754,856.438,131.754z M861.719,133.16
			c-0.22,0.541-0.789,0.943-1.517,0.943c-0.783,0-1.279-0.521-1.279-1.262c0-1.025,1.021-1.582,2.695-1.582v-0.266
			c0-0.559-0.238-0.859-0.957-0.859c-0.423,0-0.938,0.137-1.306,0.328l-0.194-0.785c0.463-0.174,1.077-0.305,1.666-0.305
			c1.388,0,1.775,0.605,1.775,1.512v1.883c0,0.393,0.01,0.859,0.029,1.246h-0.949c0-0.293,0.012-0.598,0.047-0.844L861.719,133.16z
			 M865.266,134.33c-0.571,1.52-1.179,1.986-2.219,1.986c-0.175,0-0.423-0.025-0.581-0.055l0.111-0.852
			c0.157,0.049,0.377,0.074,0.562,0.074c0.432,0,0.837-0.209,1.141-1.021l0.165-0.449l-1.711-4.547h1.105l0.745,2.074
			c0.146,0.402,0.256,0.807,0.357,1.189h0.008c0.094-0.363,0.287-0.959,0.452-1.416l0.652-1.848h1.059L865.266,134.33z
			 M867.144,128.736h-0.127v-0.83h-0.002l-0.285,0.83h-0.12l-0.284-0.842h-0.004v0.842h-0.127v-0.992h0.199l0.235,0.703
			c0.032,0.098,0.039,0.117,0.046,0.145h0.002c0.018-0.051,0.02-0.064,0.054-0.158l0.238-0.689h0.175V128.736z"/>
	</g>
</g>
</svg>
