<?xml version="1.0" encoding="utf-8"?>
<!-- Generator: Adobe Illustrator 16.0.4, SVG Export Plug-In . SVG Version: 6.00 Build 0)  -->
<!DOCTYPE svg PUBLIC "-//W3C//DTD SVG 1.1//EN" "http://www.w3.org/Graphics/SVG/1.1/DTD/svg11.dtd">
<svg version="1.1" xmlns="http://www.w3.org/2000/svg" xmlns:xlink="http://www.w3.org/1999/xlink" x="0px" y="0px" width="36px"
	 height="36px" viewBox="0 0 36 36" enable-background="new 0 0 36 36" xml:space="preserve">
<g id="Layer_1">
</g>
<g id="pictograms">
	<path fill="#EE5D4B" d="M18,0C8.058,0,0,8.06,0,18c0,9.941,8.058,18,18,18c9.94,0,18-8.059,18-18C36,8.06,27.94,0,18,0z
		 M25.756,22.044c1.025,1.024,1.025,2.687,0,3.712s-2.687,1.025-3.712,0L18,21.712l-4.044,4.044c-1.025,1.025-2.688,1.025-3.712,0
		c-1.025-1.025-1.025-2.688,0-3.712l4.043-4.045l-4.043-4.044c-1.025-1.024-1.025-2.687,0-3.712c1.024-1.024,2.687-1.024,3.712,0
		L18,14.287l4.044-4.043c1.025-1.025,2.688-1.025,3.712-0.001c1.025,1.025,1.025,2.688,0,3.713l-4.043,4.043L25.756,22.044z"/>
</g>
</svg>
