<?xml version="1.0" encoding="utf-8"?>
<!-- Generator: Adobe Illustrator 16.0.4, SVG Export Plug-In . SVG Version: 6.00 Build 0)  -->
<!DOCTYPE svg PUBLIC "-//W3C//DTD SVG 1.1//EN" "http://www.w3.org/Graphics/SVG/1.1/DTD/svg11.dtd">
<svg version="1.1" xmlns="http://www.w3.org/2000/svg" xmlns:xlink="http://www.w3.org/1999/xlink" x="0px" y="0px" width="34px"
	 height="40px" viewBox="0 0 34 40" enable-background="new 0 0 34 40" xml:space="preserve">
<g id="Layer_1">
</g>
<g id="pictograms">
	<g>
		<path fill="#EE5D4B" d="M15.107,28.682c1.528,1.761,2.357,1.761,3.891-0.016c0,0,8.132-9.02,9.396-10.362
			c1.266-1.342,0.269-3.28-1.826-3.281l-4.073,0.006V2.438C22.495,1.096,21.403,0,20.071,0h-6.142c-1.333,0-2.424,1.096-2.424,2.438
			v12.583l-4.087-0.003c-2.096-0.002-3.287,1.652-1.802,3.25C7.103,19.865,15.107,28.682,15.107,28.682z"/>
		<path fill="#EE5D4B" d="M31.551,32.898H2.449C1.102,32.898,0,34,0,35.348v2.203C0,38.898,1.102,40,2.449,40h29.102
			C32.898,40,34,38.898,34,37.551v-2.203C34,34,32.898,32.898,31.551,32.898z"/>
	</g>
</g>
</svg>
