<?xml version="1.0" encoding="utf-8"?>
<!-- Generator: Adobe Illustrator 16.0.4, SVG Export Plug-In . SVG Version: 6.00 Build 0)  -->
<!DOCTYPE svg PUBLIC "-//W3C//DTD SVG 1.1//EN" "http://www.w3.org/Graphics/SVG/1.1/DTD/svg11.dtd">
<svg version="1.1" xmlns="http://www.w3.org/2000/svg" xmlns:xlink="http://www.w3.org/1999/xlink" x="0px" y="0px" width="36px"
	 height="36px" viewBox="0 0 36 36" enable-background="new 0 0 36 36" xml:space="preserve">
<g id="Layer_1">
</g>
<g id="pictograms">
	<g>
		<path fill="#684C32" d="M19.357,12.16c-1.707-1.451-4.268-1.439-5.955,0.025c-0.175,0.152-0.341,0.318-0.493,0.496
			c-1.633,1.924-1.397,4.816,0.525,6.451c1.707,1.449,4.267,1.438,5.955-0.027c0.176-0.152,0.341-0.32,0.493-0.498
			c0.791-0.932,1.172-2.115,1.074-3.334C20.856,14.057,20.289,12.949,19.357,12.16z"/>
		<path fill="#684C32" d="M30.729,5.271c-7.03-7.029-18.428-7.027-25.456,0c-7.03,7.031-7.03,18.426,0,25.457
			c7.028,7.029,18.426,7.029,25.456,0C37.757,23.699,37.757,12.301,30.729,5.271z M26.532,27.045
			c-0.369,0.346-0.828,0.537-1.295,0.578c-0.645,0.057-1.308-0.176-1.784-0.686l-3.917-4.199c-0.035-0.037-0.059-0.078-0.09-0.117
			c-2.605,1.125-5.74,0.744-7.986-1.166c-3.204-2.721-3.598-7.543-0.874-10.746c0.25-0.297,0.525-0.574,0.817-0.828
			c2.815-2.443,7.084-2.465,9.929-0.047c1.553,1.318,2.499,3.164,2.664,5.193c0.139,1.711-0.297,3.379-1.227,4.791l3.87,4.148
			C27.459,24.846,27.412,26.225,26.532,27.045z"/>
	</g>
</g>
</svg>
