<?xml version="1.0" encoding="utf-8"?>
<!-- Generator: Adobe Illustrator 16.0.4, SVG Export Plug-In . SVG Version: 6.00 Build 0)  -->
<!DOCTYPE svg PUBLIC "-//W3C//DTD SVG 1.1//EN" "http://www.w3.org/Graphics/SVG/1.1/DTD/svg11.dtd">
<svg version="1.1" id="twitter" xmlns="http://www.w3.org/2000/svg" xmlns:xlink="http://www.w3.org/1999/xlink" x="0px" y="0px"
	 width="20px" height="20px" viewBox="0 0 20 20" enable-background="new 0 0 20 20" xml:space="preserve">
<path fill="#454A4D" d="M17,5.302c-0.516,0.221-1.067,0.371-1.648,0.438c0.593-0.343,1.049-0.887,1.263-1.537
	c-0.555,0.319-1.17,0.55-1.823,0.674C14.267,4.337,13.521,4,12.693,4c-1.586,0-2.873,1.244-2.873,2.777
	c0,0.219,0.025,0.43,0.075,0.633C7.508,7.294,5.392,6.189,3.974,4.508c-0.247,0.41-0.387,0.888-0.387,1.396
	c0,0.963,0.506,1.814,1.276,2.312c-0.47-0.014-0.913-0.14-1.301-0.348v0.035c0,1.346,0.991,2.469,2.305,2.723
	c-0.241,0.063-0.495,0.099-0.756,0.099c-0.185,0-0.366-0.018-0.54-0.052c0.364,1.104,1.426,1.906,2.682,1.93
	c-0.982,0.745-2.221,1.189-3.568,1.189c-0.232,0-0.46-0.015-0.684-0.04C4.271,14.54,5.781,15,7.404,15
	c5.285,0,8.172-4.23,8.172-7.901c0-0.12-0.003-0.24-0.009-0.359C16.129,6.349,16.615,5.859,17,5.302z"/>
</svg>
