<?xml version="1.0" encoding="utf-8"?>
<!-- Generator: Adobe Illustrator 16.0.4, SVG Export Plug-In . SVG Version: 6.00 Build 0)  -->
<!DOCTYPE svg PUBLIC "-//W3C//DTD SVG 1.1//EN" "http://www.w3.org/Graphics/SVG/1.1/DTD/svg11.dtd">
<svg version="1.1" id="mail-icon" xmlns="http://www.w3.org/2000/svg" xmlns:xlink="http://www.w3.org/1999/xlink" x="0px" y="0px"
	 width="20px" height="20px" viewBox="0 0 20 20" enable-background="new 0 0 20 20" xml:space="preserve">
<path fill="#44494C" d="M17,4H3C2.449,4,2,4.45,2,5v10c0,0.549,0.449,1,1,1h14c0.549,0,1-0.451,1-1V5C18,4.45,17.549,4,17,4z
	 M16.666,7.803l-3.207,1.671l2.496,4.185c0.064,0.109,0.037,0.252-0.066,0.328c-0.045,0.033-0.098,0.049-0.148,0.049
	c-0.068,0-0.137-0.027-0.186-0.082l-3.42-3.79l-1.361,0.709C10.49,11.02,10.197,11.05,10,11.05s-0.492-0.03-0.775-0.178
	l-1.361-0.709l-3.418,3.79c-0.049,0.055-0.117,0.082-0.186,0.082c-0.053,0-0.105-0.016-0.148-0.049
	c-0.104-0.076-0.133-0.219-0.066-0.328l2.494-4.185L3.332,7.803C2.945,7.602,2.715,7.244,2.715,6.847
	c0-0.193,0.057-0.376,0.156-0.536L10,9.299l7.127-2.988c0.1,0.16,0.156,0.343,0.156,0.536C17.283,7.244,17.053,7.602,16.666,7.803z"
	/>
</svg>
