<?xml version="1.0" encoding="utf-8"?>
<!-- Generator: Adobe Illustrator 16.0.4, SVG Export Plug-In . SVG Version: 6.00 Build 0)  -->
<!DOCTYPE svg PUBLIC "-//W3C//DTD SVG 1.1//EN" "http://www.w3.org/Graphics/SVG/1.1/DTD/svg11.dtd">
<svg version="1.1" id="skillset" xmlns="http://www.w3.org/2000/svg" xmlns:xlink="http://www.w3.org/1999/xlink" x="0px" y="0px"
	 width="20px" height="20px" viewBox="0 0 20 20" enable-background="new 0 0 20 20" xml:space="preserve">
<rect opacity="0.5" fill="#C03B2A" width="20" height="20"/>
<g>
	<g>
		<g opacity="0.1">
			<path d="M7.388,12.186l-0.755,2.489H4.977l2.814-8.784h2.047l2.854,8.784h-1.72l-0.795-2.489H7.388z M9.904,10.974L9.213,8.809
				c-0.17-0.533-0.313-1.133-0.445-1.642H8.744C8.613,7.676,8.482,8.289,8.325,8.809l-0.677,2.165H9.904z"/>
		</g>
		<g>
			<path fill="#FFFFFF" d="M7.388,12.008l-0.755,2.489H4.977l2.814-8.784h2.047l2.854,8.784h-1.72l-0.795-2.489H7.388z
				 M9.904,10.796L9.213,8.631C9.043,8.099,8.899,7.498,8.768,6.99H8.744C8.613,7.498,8.482,8.111,8.325,8.631l-0.677,2.165H9.904z"
				/>
		</g>
	</g>
	<g>
		<g opacity="0.1">
			<path d="M15.024,6.555c0,0.483-0.351,0.861-0.911,0.861c-0.535,0-0.887-0.378-0.887-0.861c0-0.494,0.365-0.873,0.899-0.873
				C14.674,5.683,15.012,6.062,15.024,6.555z M13.317,14.675V8.327h1.616v6.348H13.317z"/>
		</g>
		<g>
			<path fill="#FFFFFF" d="M15.024,6.377c0,0.483-0.351,0.861-0.911,0.861c-0.535,0-0.887-0.378-0.887-0.861
				c0-0.494,0.365-0.873,0.899-0.873C14.674,5.505,15.012,5.884,15.024,6.377z M13.317,14.497V8.149h1.616v6.348H13.317z"/>
		</g>
	</g>
</g>
</svg>
