<?xml version="1.0" encoding="utf-8"?>
<!-- Generator: Adobe Illustrator 16.0.4, SVG Export Plug-In . SVG Version: 6.00 Build 0)  -->
<!DOCTYPE svg PUBLIC "-//W3C//DTD SVG 1.1//EN" "http://www.w3.org/Graphics/SVG/1.1/DTD/svg11.dtd">
<svg version="1.1" id="skillset" xmlns="http://www.w3.org/2000/svg" xmlns:xlink="http://www.w3.org/1999/xlink" x="0px" y="0px"
	 width="20px" height="20px" viewBox="0 0 20 20" enable-background="new 0 0 20 20" xml:space="preserve">
<rect x="0.015" opacity="0.5" fill="#44494C" width="20" height="20"/>
<g>
	<polygon fill="#FFFFFF" points="10.018,3.433 10.01,3.433 4.207,3.433 4.263,4.056 4.367,5.232 4.414,5.752 4.423,5.752 
		10.01,5.752 10.018,5.752 13.289,5.752 13.078,8.127 10.01,8.127 10.01,8.128 7.252,8.128 7.307,8.749 7.412,9.925 7.458,10.447 
		7.465,10.447 10.01,10.447 10.01,10.447 12.873,10.447 12.602,13.455 10.015,14.152 10.015,14.152 10.013,14.152 7.429,13.455 
		7.264,11.606 6.01,11.606 4.936,11.606 5.262,15.246 10.012,16.566 10.023,16.562 10.023,16.562 14.77,15.246 14.805,14.856 
		15.199,10.447 15.199,10.447 15.77,4.056 15.825,3.433 	"/>
</g>
</svg>
