<?xml version="1.0" encoding="utf-8"?>
<!-- Generator: Adobe Illustrator 16.0.4, SVG Export Plug-In . SVG Version: 6.00 Build 0)  -->
<!DOCTYPE svg PUBLIC "-//W3C//DTD SVG 1.1//EN" "http://www.w3.org/Graphics/SVG/1.1/DTD/svg11.dtd">
<svg version="1.1" id="skillset" xmlns="http://www.w3.org/2000/svg" xmlns:xlink="http://www.w3.org/1999/xlink" x="0px" y="0px"
	 width="20px" height="20px" viewBox="0 0 20 20" enable-background="new 0 0 20 20" xml:space="preserve">
<rect opacity="0.5" fill="#C03B2A" width="20" height="20"/>
<g>
	<g>
		<g opacity="0.1">
			<path d="M2.396,5.891c0.637-0.118,1.45-0.184,2.312-0.184c1.486,0,2.514,0.339,3.244,1.019C8.717,7.414,9.19,8.458,9.19,9.957
				c0,1.563-0.484,2.737-1.239,3.491c-0.791,0.797-2.053,1.199-3.598,1.199c-0.85,0-1.487-0.051-1.958-0.117V5.891z M3.846,13.332
				c0.201,0.038,0.508,0.038,0.803,0.038c1.888,0.013,3.008-1.134,3.008-3.362c0.012-1.941-1.003-3.049-2.819-3.049
				c-0.461,0-0.79,0.039-0.991,0.092V13.332z"/>
		</g>
		<g>
			<path fill="#FFFFFF" d="M2.396,5.713c0.637-0.118,1.45-0.184,2.312-0.184c1.486,0,2.514,0.339,3.244,1.019
				C8.717,7.236,9.19,8.28,9.19,9.779c0,1.563-0.484,2.737-1.239,3.491c-0.791,0.797-2.053,1.199-3.598,1.199
				c-0.85,0-1.487-0.051-1.958-0.117V5.713z M3.846,13.154c0.201,0.038,0.508,0.038,0.803,0.038
				c1.888,0.013,3.008-1.134,3.008-3.362c0.012-1.941-1.003-3.049-2.819-3.049c-0.461,0-0.79,0.039-0.991,0.092V13.154z"/>
		</g>
	</g>
	<g>
		<g opacity="0.1">
			<path d="M10.789,8.21l0.584,2.881c0.126,0.677,0.252,1.367,0.354,2.058h0.023c0.112-0.69,0.295-1.394,0.458-2.047l0.719-2.892
				h1.145l0.695,2.814c0.172,0.743,0.32,1.434,0.446,2.124h0.024c0.089-0.69,0.216-1.381,0.363-2.124L16.22,8.21h1.383l-1.748,6.347
				h-1.304l-0.663-2.58c-0.171-0.664-0.296-1.265-0.423-2.034h-0.023c-0.113,0.782-0.264,1.407-0.422,2.034l-0.71,2.58h-1.313
				L9.35,8.21H10.789z"/>
		</g>
		<g>
			<path fill="#FFFFFF" d="M10.789,8.032l0.584,2.88c0.126,0.677,0.252,1.368,0.354,2.058h0.023c0.112-0.69,0.295-1.394,0.458-2.047
				l0.719-2.892h1.145l0.695,2.814c0.172,0.744,0.32,1.434,0.446,2.125h0.024c0.089-0.69,0.216-1.381,0.363-2.125l0.618-2.814h1.383
				l-1.748,6.347h-1.304l-0.663-2.58c-0.171-0.664-0.296-1.265-0.423-2.034h-0.023c-0.113,0.782-0.264,1.407-0.422,2.034l-0.71,2.58
				h-1.313L9.35,8.032H10.789z"/>
		</g>
	</g>
</g>
</svg>
