<?xml version="1.0" encoding="utf-8"?>
<!-- Generator: Adobe Illustrator 16.0.4, SVG Export Plug-In . SVG Version: 6.00 Build 0)  -->
<!DOCTYPE svg PUBLIC "-//W3C//DTD SVG 1.1//EN" "http://www.w3.org/Graphics/SVG/1.1/DTD/svg11.dtd">
<svg version="1.1" id="downloadCV" xmlns="http://www.w3.org/2000/svg" xmlns:xlink="http://www.w3.org/1999/xlink" x="0px" y="0px"
	 width="368px" height="74px" viewBox="0.5 0.5 368 74" enable-background="new 0.5 0.5 368 74" xml:space="preserve">
<path id="background" fill="#C44436" d="M367.5,37.5c0,19.882-16.118,36-36,36h-294c-19.882,0-36-16.118-36-36l0,0
	c0-19.882,16.118-36,36-36h294C351.382,1.5,367.5,17.618,367.5,37.5L367.5,37.5z"/>
<g id="text">
	<path fill="#FFFFFF" d="M149.159,26.565h-3.54c-0.93,0-1.65,0.72-1.65,1.649v17.699c0,0.899,0.72,1.649,1.65,1.649h3.54
		c5.79,0,10.47-4.709,10.47-10.528C159.629,31.275,154.949,26.565,149.159,26.565z M149.159,44.234h-1.86v-14.34h1.86
		c3.96,0,7.14,3.211,7.14,7.141C156.299,41.025,153.119,44.205,149.159,44.234z"/>
	<path fill="#FFFFFF" d="M169.749,32.564c-2.07,0-3.81,0.871-5.16,2.28c-1.29,1.44-2.07,3.211-2.07,5.25
		c0,2.102,0.78,3.961,2.07,5.28c1.35,1.41,3.09,2.278,5.16,2.278c1.98,0,3.78-0.868,5.01-2.278c1.35-1.319,2.1-3.181,2.1-5.28
		c0-2.039-0.75-3.81-2.1-5.25C173.529,33.436,171.729,32.564,169.749,32.564z M172.509,43.273c-0.75,0.721-1.71,1.11-2.76,1.11
		c-1.14,0-2.13-0.391-2.88-1.11c-0.69-0.84-1.08-1.89-1.08-3.18c0-1.229,0.39-2.31,1.08-3.119c0.75-0.66,1.74-1.141,2.88-1.141
		c1.05,0,2.01,0.479,2.76,1.141c0.75,0.811,1.17,1.891,1.17,3.119C173.679,41.385,173.259,42.436,172.509,43.273z"/>
	<path fill="#FFFFFF" d="M198.18,32.895c-0.75-0.33-1.711,0.03-2.011,0.9l-3.54,8.07l-2.13-5.01c-0.24-0.602-0.81-0.961-1.47-0.961
		c-0.631,0-1.2,0.36-1.471,0.961l-2.101,5.01l-3.539-8.07c-0.33-0.87-1.261-1.23-1.98-0.9c-0.84,0.36-1.23,1.26-0.87,2.07
		l4.92,11.641c0.061,0.06,0.09,0.148,0.149,0.24c0,0.029,0,0.029,0.029,0.029c0.03,0.061,0.091,0.119,0.12,0.18
		c0.062,0.029,0.062,0.029,0.062,0.029c0.09,0.061,0.148,0.121,0.18,0.15c0,0.029,0,0.029,0.029,0.029
		c0.061,0.09,0.18,0.149,0.271,0.18c0.03,0,0.03,0,0.062,0.031c0.06,0,0.119,0.028,0.18,0.061c0.061,0,0.061,0,0.09,0
		c0.09,0.029,0.181,0.029,0.3,0.029c0.091,0,0.181,0,0.302-0.029c0,0,0,0,0.059,0c0.031-0.031,0.121-0.061,0.181-0.061
		c0-0.031,0.03-0.031,0.03-0.031h0.06c0.091-0.029,0.15-0.09,0.271-0.18c0.061-0.06,0.121-0.119,0.181-0.181c0,0,0.03,0,0.03-0.028
		c0.06-0.062,0.119-0.121,0.18-0.181v-0.03c0.061-0.091,0.12-0.181,0.15-0.24l2.129-5.189l2.189,5.189
		c0.03,0.061,0.061,0.149,0.12,0.24c0,0.03,0.03,0.03,0.03,0.03c0.029,0.06,0.09,0.119,0.15,0.181c0,0.028,0.06,0.028,0.06,0.028
		c0.06,0.062,0.09,0.121,0.18,0.149c0,0.031,0,0.031,0,0.031c0.091,0.09,0.181,0.148,0.271,0.18c0,0,0,0,0.031,0
		c0,0,0,0,0.028,0.029c0.091,0,0.149,0.029,0.21,0.062c0.03,0,0.03,0,0.061,0c0.091,0.028,0.181,0.028,0.271,0.028
		c0.12,0,0.21,0,0.3-0.028c0.03,0,0.03,0,0.062,0c0.09-0.031,0.18-0.062,0.239-0.062c0-0.029,0.029-0.029,0.029-0.029
		c0.12-0.03,0.182-0.09,0.271-0.149c0-0.03,0.029-0.03,0.029-0.062c0.061-0.028,0.119-0.09,0.181-0.149c0,0,0.028,0,0.06-0.028
		c0.061-0.062,0.12-0.121,0.15-0.181c0,0,0.029,0,0.029-0.03c0.061-0.091,0.09-0.181,0.119-0.24l4.95-11.64
		C199.409,34.154,198.988,33.255,198.18,32.895z"/>
	<path fill="#FFFFFF" d="M209.829,32.564c-1.17,0-2.279,0.36-3.181,0.931c-0.27-0.57-0.84-0.931-1.469-0.931
		c-0.9,0-1.591,0.721-1.591,1.59v4.651v7.17c0,0.869,0.688,1.59,1.591,1.59c0.779,0,1.438-0.57,1.59-1.291
		c0.06-0.119,0.06-0.209,0.06-0.299v-7.17c0-1.681,1.319-3.03,3-3.03c1.71,0,3.12,1.35,3.12,3.03v7.17c0,0.869,0.75,1.59,1.59,1.59
		c0.87,0,1.561-0.721,1.561-1.59v-7.17C216.1,35.415,213.311,32.564,209.829,32.564z"/>
	<path fill="#FFFFFF" d="M222.839,26.565c-0.899,0-1.649,0.75-1.649,1.649v17.699c0,0.899,0.75,1.649,1.649,1.649
		c0.931,0,1.681-0.75,1.681-1.649V28.215C224.52,27.315,223.77,26.565,222.839,26.565z"/>
	<path fill="#FFFFFF" d="M234.988,32.564c-2.069,0-3.811,0.871-5.159,2.28c-1.29,1.44-2.07,3.211-2.07,5.25
		c0,2.102,0.78,3.961,2.07,5.28c1.351,1.41,3.09,2.278,5.159,2.278c1.979,0,3.779-0.868,5.011-2.278
		c1.351-1.319,2.101-3.181,2.101-5.28c0-2.039-0.75-3.81-2.101-5.25C238.77,33.436,236.969,32.564,234.988,32.564z M237.749,43.273
		c-0.75,0.721-1.71,1.11-2.761,1.11c-1.141,0-2.131-0.391-2.879-1.11c-0.69-0.84-1.08-1.89-1.08-3.18c0-1.229,0.39-2.31,1.08-3.119
		c0.748-0.66,1.738-1.141,2.879-1.141c1.051,0,2.011,0.479,2.761,1.141c0.75,0.811,1.17,1.891,1.17,3.119
		C238.919,41.385,238.499,42.436,237.749,43.273z"/>
	<path fill="#FFFFFF" d="M258.299,32.564c-0.779,0-1.38,0.57-1.561,1.32c-1.141-0.81-2.489-1.32-3.989-1.32
		c-2.04,0-3.81,0.871-5.101,2.25c-1.289,1.351-2.039,3.211-2.039,5.28c0,2.04,0.75,3.899,2.039,5.28
		c1.291,1.351,3.061,2.188,5.101,2.188c1.5,0,2.851-0.479,3.989-1.289c0.181,0.72,0.779,1.289,1.561,1.289
		c0.87,0,1.59-0.72,1.59-1.59v-5.88v-5.909C259.889,33.285,259.169,32.564,258.299,32.564z M255.539,43.186
		c-0.721,0.75-1.74,1.17-2.79,1.17c-1.08,0-2.101-0.42-2.79-1.17c-0.72-0.781-1.141-1.86-1.141-3.09
		c0-1.261,0.421-2.341,1.141-3.091c0.689-0.81,1.71-1.229,2.79-1.229c1.05,0,2.069,0.419,2.79,1.229c0.72,0.75,1.17,1.83,1.17,3.091
		C256.709,41.324,256.259,42.404,255.539,43.186z"/>
	<path fill="#FFFFFF" d="M276.738,26.565c-0.932,0-1.65,0.75-1.65,1.62v5.64c-1.109-0.78-2.55-1.261-4.02-1.261
		c-4.051,0-7.291,3.42-7.291,7.53c0,4.051,3.24,7.471,7.291,7.471c1.5,0,2.938-0.51,4.08-1.291c0.148,0.721,0.778,1.291,1.59,1.291
		c0.898,0,1.619-0.75,1.619-1.621v-5.85c0-0.029,0-0.029,0-0.029V28.186C278.357,27.315,277.639,26.565,276.738,26.565z
		 M273.889,43.064c-0.75,0.779-1.711,1.229-2.82,1.229c-1.079,0-2.069-0.45-2.819-1.229c-0.75-0.75-1.2-1.83-1.2-2.971
		c0-1.199,0.45-2.279,1.2-3.029c0.75-0.779,1.739-1.229,2.819-1.229c1.109,0,2.07,0.45,2.82,1.229c0.75,0.75,1.199,1.83,1.199,3.029
		C275.088,41.234,274.639,42.314,273.889,43.064z"/>
	<path fill="#FFFFFF" d="M305.979,29.385c1.859,0,3.51,0.57,4.83,1.65c0.688,0.54,1.799,0.42,2.398-0.33
		c0.54-0.75,0.421-1.8-0.3-2.4c-1.89-1.469-4.289-2.34-6.931-2.34c-6,0.03-10.979,4.86-11.01,10.801
		c0.03,5.969,5.01,10.799,11.01,10.799c2.642,0,5.041-0.869,6.931-2.34c0.721-0.57,0.84-1.649,0.3-2.399
		c-0.6-0.72-1.71-0.841-2.398-0.33c-1.351,1.08-2.971,1.649-4.83,1.649c-2.069,0-3.99-0.84-5.399-2.16
		c-1.351-1.319-2.19-3.18-2.19-5.219c0-2.041,0.842-3.841,2.19-5.221C301.988,30.225,303.908,29.385,305.979,29.385z"/>
	<path fill="#FFFFFF" d="M334.838,26.926c-0.811-0.36-1.801,0.029-2.16,0.869l-5.85,13.891l-5.852-13.891
		c-0.358-0.84-1.318-1.229-2.129-0.869c-0.869,0.33-1.261,1.319-0.899,2.129l7.35,17.52c0.06,0.062,0.12,0.18,0.15,0.239
		c0,0.031,0.028,0.031,0.028,0.031c0.03,0.059,0.09,0.119,0.15,0.18c0,0.06,0.03,0.06,0.03,0.09c0.09,0.06,0.149,0.091,0.21,0.15
		c0.029,0,0.029,0,0.029,0c0.09,0.06,0.209,0.148,0.271,0.18c0.03,0,0.03,0,0.03,0s0.029,0,0.029,0.029
		c0.061,0,0.18,0.029,0.239,0.062c0.03,0,0.06,0,0.06,0c0.092,0.028,0.211,0.028,0.302,0.028c0.09,0,0.18,0,0.3-0.028
		c0.029,0,0.061,0,0.061,0c0.09-0.031,0.149-0.062,0.239-0.062c0.03-0.029,0.03-0.029,0.06-0.029c0.092-0.03,0.182-0.12,0.24-0.149
		c0.062-0.03,0.062-0.03,0.062-0.03c0.06-0.06,0.118-0.091,0.18-0.149c0.03-0.03,0.03-0.03,0.06-0.091
		c0.031-0.06,0.121-0.119,0.15-0.18c0.03,0,0.03,0,0.03-0.029c0.06-0.062,0.09-0.18,0.12-0.24l7.408-17.52
		C336.066,28.245,335.678,27.256,334.838,26.926z"/>
</g>
<g id="icon">
	<path fill="#FFFFFF" d="M74.921,24.743h16.154c0.786,0,1.424-0.651,1.424-1.455c0-0.805-0.638-1.457-1.424-1.455H74.921
		c-0.784,0-1.421,0.65-1.421,1.455C73.5,24.091,74.137,24.742,74.921,24.743z"/>
	<path fill="#FFFFFF" d="M74.921,30.56h20.903c0.787,0,1.426-0.649,1.426-1.453c0-0.805-0.639-1.455-1.426-1.455H74.921
		c-0.784,0-1.421,0.65-1.421,1.455C73.5,29.906,74.137,30.56,74.921,30.56z"/>
	<path fill="#FFFFFF" d="M110.074,33.472H74.921c-0.784,0-1.421,0.649-1.421,1.453c0,0.805,0.637,1.453,1.421,1.453h35.152
		c0.786,0,1.427-0.648,1.427-1.453C111.5,34.121,110.86,33.468,110.074,33.472z"/>
	<path fill="#FFFFFF" d="M105.325,39.289H74.921c-0.784,0-1.421,0.646-1.421,1.452c0,0.802,0.637,1.454,1.421,1.454h30.403
		c0.787,0,1.427-0.65,1.427-1.454S106.112,39.287,105.325,39.289z"/>
	<path fill="#FFFFFF" d="M74.921,48.018h25.654c0.788,0,1.424-0.652,1.424-1.455c0-0.805-0.636-1.457-1.424-1.455H74.921
		c-0.784,0-1.421,0.65-1.421,1.455C73.5,47.364,74.137,48.018,74.921,48.018z"/>
	<path fill="#FFFFFF" d="M105.325,50.924H74.921c-0.784,0-1.421,0.648-1.421,1.452c0,0.806,0.637,1.457,1.421,1.457h30.403
		c0.787,0,1.427-0.651,1.427-1.457C106.751,51.576,106.112,50.924,105.325,50.924z"/>
	<path fill="#FFFFFF" d="M45.337,43.648c1.183,1.356,1.822,1.356,3.005-0.014c0,0,6.278-6.966,7.255-8.004
		c0.978-1.032,0.207-2.53-1.409-2.53l-3.144,0.004v-9.724c0-1.032-0.845-1.882-1.873-1.882h-4.743c-1.027,0-1.869,0.85-1.869,1.882
		v9.716l-3.158-0.002c-1.618-0.002-2.536,1.275-1.39,2.51C39.16,36.842,45.337,43.648,45.337,43.648z"/>
	<path fill="#FFFFFF" d="M57.857,48.5H35.391c-1.043,0-1.891,0.852-1.891,1.893v1.701c0,1.039,0.851,1.891,1.891,1.891h22.467
		c1.043,0,1.889-0.852,1.889-1.891v-1.701C59.75,49.352,58.9,48.5,57.857,48.5z"/>
</g>
</svg>
