<?xml version="1.0" encoding="utf-8"?>
<!-- Generator: Adobe Illustrator 16.0.4, SVG Export Plug-In . SVG Version: 6.00 Build 0)  -->
<!DOCTYPE svg PUBLIC "-//W3C//DTD SVG 1.1//EN" "http://www.w3.org/Graphics/SVG/1.1/DTD/svg11.dtd">
<svg version="1.1" id="Layer_1" xmlns="http://www.w3.org/2000/svg" xmlns:xlink="http://www.w3.org/1999/xlink" x="0px" y="0px"
	 width="368px" height="74px" viewBox="0 0 368 74" enable-background="new 0 0 368 74" xml:space="preserve">
<path fill="#44494C" d="M367,37c0,19.882-16.118,36-36,36H37C17.118,73,1,56.882,1,37l0,0C1,17.118,17.118,1,37,1h294
	C350.882,1,367,17.118,367,37L367,37z"/>
<g>
	<path fill="#FFFFFF" d="M143.97,45.914V28.215c0-0.93,0.72-1.649,1.65-1.649h3.54c5.79,0,10.47,4.71,10.47,10.47
		c0,5.819-4.68,10.528-10.47,10.528h-3.54C144.689,47.564,143.97,46.814,143.97,45.914z M147.299,44.234h1.86
		c3.96-0.029,7.14-3.209,7.14-7.199c0-3.93-3.18-7.141-7.14-7.141h-1.86V44.234z"/>
	<path fill="#FFFFFF" d="M164.589,45.375c-1.29-1.32-2.07-3.18-2.07-5.279c0-2.041,0.78-3.811,2.07-5.25
		c1.35-1.409,3.09-2.28,5.16-2.28c1.98,0,3.78,0.871,5.01,2.28c1.35,1.44,2.1,3.208,2.1,5.25c0,2.1-0.75,3.959-2.1,5.279
		c-1.23,1.41-3.03,2.279-5.01,2.279C167.679,47.654,165.939,46.785,164.589,45.375z M165.789,40.096c0,1.289,0.39,2.34,1.08,3.18
		c0.75,0.721,1.74,1.109,2.88,1.109c1.05,0,2.01-0.391,2.76-1.109c0.75-0.84,1.17-1.891,1.17-3.18c0-1.229-0.42-2.311-1.17-3.121
		c-0.75-0.66-1.71-1.14-2.76-1.14c-1.14,0-2.13,0.479-2.88,1.14C166.179,37.785,165.789,38.865,165.789,40.096z"/>
	<path fill="#FFFFFF" d="M199.049,34.965L194.1,46.605c-0.029,0.06-0.061,0.147-0.119,0.24c0,0.028-0.029,0.028-0.029,0.028
		c-0.03,0.062-0.092,0.119-0.15,0.181c-0.029,0.028-0.06,0.028-0.06,0.028c-0.062,0.062-0.12,0.121-0.183,0.149
		c0,0.029-0.029,0.029-0.029,0.062c-0.09,0.062-0.148,0.119-0.271,0.147c0,0-0.028,0-0.028,0.031c-0.062,0-0.149,0.028-0.239,0.062
		c-0.03,0-0.03,0-0.062,0c-0.091,0.028-0.181,0.028-0.301,0.028c-0.09,0-0.18,0-0.27-0.028c-0.03,0-0.03,0-0.062,0
		c-0.061-0.031-0.12-0.062-0.21-0.062c-0.028-0.031-0.028-0.031-0.028-0.031c-0.029,0-0.029,0-0.029,0
		c-0.09-0.028-0.182-0.09-0.271-0.18c0,0,0,0,0-0.029c-0.09-0.028-0.119-0.09-0.18-0.149c0,0-0.061,0-0.061-0.028
		c-0.062-0.062-0.119-0.119-0.149-0.181c0,0-0.03,0-0.03-0.028c-0.061-0.093-0.09-0.183-0.12-0.24l-2.188-5.19l-2.131,5.19
		c-0.028,0.06-0.09,0.147-0.148,0.24v0.028c-0.061,0.062-0.12,0.119-0.182,0.181c0,0.028-0.028,0.028-0.028,0.028
		c-0.062,0.062-0.12,0.121-0.181,0.183c-0.119,0.09-0.18,0.147-0.271,0.18h-0.062c0,0-0.028,0-0.028,0.029
		c-0.062,0-0.147,0.028-0.181,0.062c-0.061,0-0.061,0-0.061,0c-0.119,0.028-0.21,0.028-0.301,0.028c-0.119,0-0.21,0-0.3-0.028
		c-0.029,0-0.029,0-0.091,0c-0.061-0.031-0.119-0.062-0.181-0.062c-0.028-0.029-0.028-0.029-0.061-0.029
		c-0.091-0.03-0.21-0.09-0.271-0.18c-0.031,0-0.031,0-0.031-0.031c-0.028-0.028-0.089-0.09-0.18-0.149c0,0,0,0-0.061-0.028
		c-0.029-0.062-0.09-0.121-0.12-0.181c-0.028,0-0.028,0-0.028-0.03c-0.062-0.091-0.091-0.181-0.15-0.24l-4.92-11.64
		c-0.36-0.811,0.03-1.71,0.87-2.07c0.72-0.33,1.65,0.03,1.98,0.9l3.539,8.07l2.103-5.011c0.27-0.601,0.84-0.961,1.469-0.961
		c0.66,0,1.229,0.36,1.471,0.961l2.13,5.011l3.54-8.07c0.3-0.87,1.26-1.23,2.01-0.9C198.988,33.255,199.409,34.154,199.049,34.965z"
		/>
	<path fill="#FFFFFF" d="M216.1,38.805v7.17c0,0.871-0.688,1.59-1.561,1.59c-0.84,0-1.59-0.719-1.59-1.59v-7.17
		c0-1.68-1.41-3.029-3.12-3.029c-1.681,0-3,1.351-3,3.029v7.17c0,0.09,0,0.18-0.06,0.301c-0.15,0.721-0.812,1.289-1.59,1.289
		c-0.9,0-1.592-0.719-1.592-1.59v-7.17v-4.65c0-0.869,0.688-1.59,1.592-1.59c0.629,0,1.198,0.36,1.469,0.931
		c0.899-0.57,2.011-0.931,3.181-0.931C213.311,32.564,216.1,35.415,216.1,38.805z"/>
	<path fill="#FFFFFF" d="M222.839,26.565c0.931,0,1.681,0.75,1.681,1.649v17.699c0,0.899-0.75,1.649-1.681,1.649
		c-0.899,0-1.649-0.75-1.649-1.649V28.215C221.189,27.315,221.939,26.565,222.839,26.565z"/>
	<path fill="#FFFFFF" d="M229.829,45.375c-1.29-1.32-2.07-3.18-2.07-5.279c0-2.041,0.78-3.811,2.07-5.25
		c1.351-1.409,3.09-2.28,5.159-2.28c1.979,0,3.779,0.871,5.011,2.28c1.351,1.44,2.101,3.208,2.101,5.25
		c0,2.1-0.75,3.959-2.101,5.279c-1.229,1.41-3.03,2.279-5.011,2.279C232.919,47.654,231.18,46.785,229.829,45.375z M231.029,40.096
		c0,1.289,0.39,2.34,1.08,3.18c0.748,0.721,1.738,1.109,2.88,1.109c1.05,0,2.01-0.391,2.76-1.109c0.75-0.84,1.17-1.891,1.17-3.18
		c0-1.229-0.42-2.311-1.17-3.121c-0.75-0.66-1.71-1.14-2.76-1.14c-1.142,0-2.132,0.479-2.88,1.14
		C231.419,37.785,231.029,38.865,231.029,40.096z"/>
	<path fill="#FFFFFF" d="M259.889,40.096v5.879c0,0.871-0.72,1.59-1.59,1.59c-0.779,0-1.38-0.568-1.561-1.289
		c-1.141,0.811-2.489,1.289-3.989,1.289c-2.04,0-3.81-0.84-5.101-2.188c-1.289-1.381-2.039-3.24-2.039-5.279
		c0-2.068,0.75-3.931,2.039-5.281c1.291-1.379,3.061-2.25,5.101-2.25c1.5,0,2.851,0.511,3.989,1.32
		c0.181-0.75,0.779-1.32,1.561-1.32c0.87,0,1.59,0.721,1.59,1.621V40.096z M256.709,40.096c0-1.261-0.45-2.341-1.17-3.091
		c-0.721-0.81-1.74-1.229-2.79-1.229c-1.08,0-2.101,0.42-2.79,1.229c-0.72,0.75-1.141,1.83-1.141,3.091
		c0,1.229,0.421,2.309,1.141,3.09c0.689,0.75,1.71,1.17,2.79,1.17c1.05,0,2.069-0.42,2.79-1.17
		C256.259,42.404,256.709,41.324,256.709,40.096z"/>
	<path fill="#FFFFFF" d="M278.357,45.943c0,0.871-0.722,1.621-1.619,1.621c-0.812,0-1.44-0.57-1.59-1.291
		c-1.143,0.781-2.58,1.291-4.08,1.291c-4.051,0-7.291-3.42-7.291-7.472c0-4.109,3.24-7.53,7.291-7.53c1.47,0,2.908,0.48,4.02,1.261
		v-5.64c0-0.87,0.721-1.62,1.65-1.62c0.898,0,1.619,0.75,1.619,1.62v11.878c0,0,0,0,0,0.029V45.943z M271.068,35.835
		c-1.08,0-2.07,0.45-2.82,1.229c-0.75,0.75-1.2,1.831-1.2,3.029c0,1.142,0.45,2.222,1.2,2.972c0.75,0.778,1.74,1.229,2.82,1.229
		c1.107,0,2.067-0.45,2.817-1.229c0.75-0.75,1.2-1.83,1.2-2.972c0-1.198-0.45-2.278-1.2-3.029
		C273.139,36.285,272.178,35.835,271.068,35.835z"/>
	<path fill="#FFFFFF" d="M294.968,36.766c0.03-5.939,5.011-10.771,11.011-10.801c2.642,0,5.039,0.871,6.931,2.34
		c0.721,0.601,0.84,1.65,0.3,2.4c-0.601,0.75-1.71,0.87-2.399,0.33c-1.319-1.08-2.97-1.65-4.829-1.65
		c-2.068,0-3.988,0.84-5.398,2.16c-1.35,1.38-2.189,3.18-2.189,5.221c0,2.039,0.841,3.898,2.189,5.218
		c1.41,1.32,3.33,2.16,5.398,2.16c1.859,0,3.479-0.568,4.829-1.648c0.689-0.512,1.802-0.391,2.399,0.33
		c0.54,0.75,0.421,1.828-0.3,2.398c-1.892,1.471-4.289,2.34-6.931,2.34C299.979,47.564,294.998,42.734,294.968,36.766z"/>
	<path fill="#FFFFFF" d="M325.868,47.266c-0.062-0.061-0.12-0.092-0.21-0.149c0-0.03-0.03-0.03-0.03-0.091
		c-0.062-0.061-0.12-0.121-0.148-0.18c0,0-0.029,0-0.029-0.031c-0.03-0.061-0.092-0.18-0.15-0.238l-7.35-17.52
		c-0.36-0.81,0.029-1.799,0.897-2.129c0.812-0.36,1.771,0.029,2.132,0.869l5.851,13.892l5.851-13.892
		c0.358-0.84,1.351-1.229,2.159-0.869c0.841,0.33,1.229,1.319,0.899,2.129l-7.409,17.52c-0.03,0.061-0.062,0.18-0.12,0.238
		c0,0.031,0,0.031-0.029,0.031c-0.03,0.059-0.12,0.119-0.149,0.18s-0.029,0.061-0.062,0.091c-0.061,0.06-0.118,0.091-0.18,0.149
		c0,0,0,0-0.061,0.029c-0.062,0.029-0.149,0.119-0.24,0.148c-0.029,0-0.029,0-0.062,0.031c-0.09,0-0.148,0.027-0.239,0.061
		c0,0-0.028,0-0.061,0c-0.12,0.029-0.21,0.029-0.3,0.029c-0.091,0-0.21,0-0.301-0.029c0,0-0.029,0-0.062,0
		c-0.06-0.031-0.18-0.061-0.239-0.061c0-0.031-0.028-0.031-0.028-0.031s0,0-0.03,0c-0.061-0.029-0.181-0.119-0.271-0.18
		C325.896,47.266,325.896,47.266,325.868,47.266z"/>
</g>
<g id="profile_icon_1_">
	<g>
		<path fill="#FFFFFF" d="M92.5,23.288c0,0.804-0.638,1.455-1.424,1.455H74.921c-0.784-0.001-1.421-0.652-1.421-1.455l0,0
			c0-0.805,0.637-1.455,1.421-1.455h16.154C91.862,21.831,92.5,22.483,92.5,23.288L92.5,23.288z"/>
		<path fill="#FFFFFF" d="M97.25,29.106c0,0.804-0.639,1.453-1.426,1.453H74.921c-0.784,0-1.421-0.653-1.421-1.453l0,0
			c0-0.805,0.637-1.455,1.421-1.455h20.903C96.612,27.651,97.25,28.302,97.25,29.106L97.25,29.106z"/>
		<path fill="#FFFFFF" d="M111.5,34.925c0,0.806-0.641,1.453-1.427,1.453H74.921c-0.784,0-1.421-0.647-1.421-1.453l0,0
			c0-0.804,0.637-1.453,1.421-1.453h35.152C110.86,33.468,111.5,34.121,111.5,34.925L111.5,34.925z"/>
		<path fill="#FFFFFF" d="M106.751,40.741c0,0.804-0.64,1.454-1.427,1.454H74.921c-0.784,0-1.421-0.652-1.421-1.454l0,0
			c0-0.806,0.637-1.452,1.421-1.452h30.403C106.112,39.287,106.751,39.938,106.751,40.741L106.751,40.741z"/>
		<path fill="#FFFFFF" d="M102,46.562c0,0.803-0.636,1.455-1.424,1.455H74.921c-0.784,0-1.421-0.652-1.421-1.455l0,0
			c0-0.806,0.637-1.455,1.421-1.455h25.654C101.364,45.104,102,45.758,102,46.562L102,46.562z"/>
		<path fill="#FFFFFF" d="M106.751,52.376c0,0.806-0.64,1.457-1.427,1.457H74.921c-0.784,0-1.421-0.651-1.421-1.457l0,0
			c0-0.804,0.637-1.452,1.421-1.452h30.403C106.112,50.924,106.751,51.576,106.751,52.376L106.751,52.376z"/>
	</g>
</g>
<g id="pictograms_1_">
	<g>
		<path fill="#FFFFFF" d="M45.337,43.648c1.183,1.355,1.822,1.355,3.005-0.015c0,0,6.278-6.966,7.255-8.004
			c0.978-1.032,0.207-2.53-1.409-2.53l-3.144,0.004V23.38c0-1.032-0.845-1.882-1.873-1.882h-4.743c-1.027,0-1.869,0.85-1.869,1.882
			v9.716l-3.158-0.002c-1.618-0.002-2.536,1.275-1.39,2.51C39.16,36.842,45.337,43.648,45.337,43.648z"/>
		<path fill="#FFFFFF" d="M57.857,48.5H35.391c-1.043,0-1.891,0.852-1.891,1.893v1.701c0,1.039,0.851,1.891,1.891,1.891h22.467
			c1.043,0,1.889-0.852,1.889-1.891v-1.701C59.75,49.352,58.9,48.5,57.857,48.5z"/>
	</g>
</g>
</svg>
