<?xml version="1.0" encoding="utf-8"?>
<!-- Generator: Adobe Illustrator 16.0.4, SVG Export Plug-In . SVG Version: 6.00 Build 0)  -->
<!DOCTYPE svg PUBLIC "-//W3C//DTD SVG 1.1//EN" "http://www.w3.org/Graphics/SVG/1.1/DTD/svg11.dtd">
<svg version="1.1" id="skillset" xmlns="http://www.w3.org/2000/svg" xmlns:xlink="http://www.w3.org/1999/xlink" x="0px" y="0px"
	 width="20px" height="20px" viewBox="0 0 20 20" enable-background="new 0 0 20 20" xml:space="preserve">
<rect opacity="0.5" fill="#C03B2A" width="20" height="20"/>
<g>
	<g>
		<g opacity="0.1">
			<path d="M2.858,5.691h5.179v1.345H4.494v2.478h3.303v1.343H4.494v3.808H2.858V5.691z"/>
		</g>
		<g>
			<path fill="#FFFFFF" d="M2.858,5.513h5.179v1.345H4.494v2.478h3.303v1.343H4.494v3.808H2.858V5.513z"/>
		</g>
	</g>
	<g>
		<g opacity="0.1">
			<path d="M9.794,8.182l0.629,2.942c0.134,0.69,0.271,1.399,0.382,2.104h0.025c0.122-0.704,0.32-1.425,0.492-2.091L12.1,8.182
				h1.232l0.753,2.876c0.184,0.757,0.343,1.466,0.479,2.17h0.025c0.1-0.704,0.234-1.413,0.395-2.17l0.667-2.876h1.489l-1.886,6.483
				h-1.404l-0.716-2.636c-0.185-0.68-0.32-1.291-0.456-2.077h-0.024c-0.123,0.798-0.284,1.439-0.457,2.077l-0.763,2.636h-1.42
				L8.239,8.182H9.794z"/>
		</g>
		<g>
			<path fill="#FFFFFF" d="M9.794,8.004l0.629,2.942c0.134,0.69,0.271,1.399,0.382,2.104h0.025c0.122-0.704,0.32-1.425,0.492-2.091
				L12.1,8.004h1.232l0.753,2.875c0.184,0.757,0.343,1.466,0.479,2.17h0.025c0.1-0.704,0.234-1.413,0.395-2.17l0.667-2.875h1.489
				l-1.886,6.483h-1.404l-0.716-2.636c-0.185-0.68-0.32-1.291-0.456-2.077h-0.024c-0.123,0.798-0.284,1.439-0.457,2.077
				l-0.763,2.636h-1.42L8.239,8.004H9.794z"/>
		</g>
	</g>
</g>
</svg>
