<?xml version="1.0" encoding="utf-8"?>
<!-- Generator: Adobe Illustrator 16.0.4, SVG Export Plug-In . SVG Version: 6.00 Build 0)  -->
<!DOCTYPE svg PUBLIC "-//W3C//DTD SVG 1.1//EN" "http://www.w3.org/Graphics/SVG/1.1/DTD/svg11.dtd">
<svg version="1.1" id="skillset" xmlns="http://www.w3.org/2000/svg" xmlns:xlink="http://www.w3.org/1999/xlink" x="0px" y="0px"
	 width="20px" height="20px" viewBox="0 0 20 20" enable-background="new 0 0 20 20" xml:space="preserve">
<rect opacity="0.5" fill="#44494C" width="20" height="20"/>
<g>
	<polygon fill="#FFFFFF" points="10.007,3.434 9.998,3.434 4.192,3.434 4.247,4.056 4.817,10.446 9.998,10.446 10.007,10.446 
		12.855,10.446 12.586,13.453 9.998,14.151 9.998,14.151 9.996,14.152 7.414,13.453 7.25,11.605 5.994,11.605 4.92,11.605 
		5.246,15.246 9.996,16.566 10.007,16.562 10.007,16.562 14.754,15.246 14.789,14.854 15.334,8.75 15.391,8.126 14.766,8.126 
		10.007,8.126 9.998,8.126 6.938,8.126 6.726,5.752 9.998,5.752 10.007,5.752 15.594,5.752 15.602,5.752 15.647,5.232 15.754,4.056 
		15.809,3.434 	"/>
</g>
</svg>
