<?xml version="1.0" encoding="utf-8"?>
<!-- Generator: Adobe Illustrator 16.0.4, SVG Export Plug-In . SVG Version: 6.00 Build 0)  -->
<!DOCTYPE svg PUBLIC "-//W3C//DTD SVG 1.1//EN" "http://www.w3.org/Graphics/SVG/1.1/DTD/svg11.dtd">
<svg version="1.1" id="skillset" xmlns="http://www.w3.org/2000/svg" xmlns:xlink="http://www.w3.org/1999/xlink" x="0px" y="0px"
	 width="20px" height="20px" viewBox="0 0 20 20" enable-background="new 0 0 20 20" xml:space="preserve">
<rect opacity="0.5" fill="#C03B2A" width="20" height="20"/>
<g>
	<g>
		<g opacity="0.1">
			<path d="M7.287,5.948v8.783H5.684V5.948H7.287z"/>
		</g>
		<g>
			<path fill="#FFFFFF" d="M7.287,5.771v8.783H5.684V5.771H7.287z"/>
		</g>
	</g>
	<g>
		<g opacity="0.1">
			<path d="M14.268,5.479v7.467c0,0.651,0.025,1.356,0.048,1.785h-1.313l-0.059-1.003H12.92c-0.348,0.703-1.051,1.147-1.896,1.147
				c-1.384,0-2.48-1.29-2.48-3.245c-0.014-2.124,1.204-3.389,2.6-3.389c0.8,0,1.371,0.366,1.634,0.834h0.025V5.479H14.268z
				 M12.802,11.032c0-0.132-0.013-0.288-0.037-0.418C12.634,9.989,12.169,9.48,11.5,9.48c-0.943,0-1.469,0.912-1.469,2.098
				c0,1.16,0.525,2.008,1.457,2.008c0.596,0,1.119-0.443,1.265-1.136c0.036-0.142,0.049-0.298,0.049-0.468V11.032z"/>
		</g>
		<g>
			<path fill="#FFFFFF" d="M14.268,5.302v7.467c0,0.651,0.025,1.356,0.048,1.785h-1.313l-0.059-1.003H12.92
				c-0.348,0.703-1.051,1.147-1.896,1.147c-1.384,0-2.48-1.29-2.48-3.245c-0.014-2.124,1.204-3.389,2.6-3.389
				c0.8,0,1.371,0.366,1.634,0.834h0.025V5.302H14.268z M12.802,10.854c0-0.131-0.013-0.287-0.037-0.417
				c-0.131-0.625-0.596-1.134-1.265-1.134c-0.943,0-1.469,0.912-1.469,2.098c0,1.16,0.525,2.008,1.457,2.008
				c0.596,0,1.119-0.443,1.265-1.136c0.036-0.142,0.049-0.298,0.049-0.468V10.854z"/>
		</g>
	</g>
</g>
</svg>
