<?xml version="1.0" encoding="utf-8"?>
<!-- Generator: Adobe Illustrator 16.0.4, SVG Export Plug-In . SVG Version: 6.00 Build 0)  -->
<!DOCTYPE svg PUBLIC "-//W3C//DTD SVG 1.1//EN" "http://www.w3.org/Graphics/SVG/1.1/DTD/svg11.dtd">
<svg version="1.1" id="skillset" xmlns="http://www.w3.org/2000/svg" xmlns:xlink="http://www.w3.org/1999/xlink" x="0px" y="0px"
	 width="20px" height="20px" viewBox="0 0 20 20" enable-background="new 0 0 20 20" xml:space="preserve">
<rect opacity="0.5" fill="#44494C" width="20" height="20"/>
<g>
	<polygon fill="#FFFFFF" points="10.147,8.958 10.147,8.956 7.578,8.956 7.879,5.68 9.911,5.625 9.911,5.629 10.294,5.629 
		12.423,5.756 12.616,7.912 13.745,7.912 14.711,7.912 14.346,3.88 10.143,3.449 10.138,3.449 5.991,3.449 5.837,4.987 
		5.346,10.483 5.296,11.042 5.857,11.042 9.859,11.042 9.859,11.042 12.429,11.042 12.188,13.751 9.867,14.377 9.867,14.375 
		9.857,14.379 7.532,13.753 7.383,12.088 6.253,12.088 5.289,12.088 5.582,15.364 9.855,16.551 9.867,16.549 9.867,16.549 
		14.138,15.364 14.169,15.011 14.659,9.516 14.711,8.958 14.147,8.958 	"/>
</g>
</svg>
