<?xml version="1.0" encoding="utf-8"?>
<!-- Generator: Adobe Illustrator 16.0.4, SVG Export Plug-In . SVG Version: 6.00 Build 0)  -->
<!DOCTYPE svg PUBLIC "-//W3C//DTD SVG 1.1//EN" "http://www.w3.org/Graphics/SVG/1.1/DTD/svg11.dtd">
<svg version="1.1" id="skillset" xmlns="http://www.w3.org/2000/svg" xmlns:xlink="http://www.w3.org/1999/xlink" x="0px" y="0px"
	 width="20px" height="20px" viewBox="0 0 20 20" enable-background="new 0 0 20 20" xml:space="preserve">
<rect opacity="0.5" fill="#C03B2A" width="20" height="20.001"/>
<g>
	<g>
		<g opacity="0.1">
			<path d="M4.703,5.864c0.574-0.104,1.368-0.182,2.45-0.182c1.172,0,2.032,0.247,2.593,0.718c0.521,0.429,0.86,1.12,0.86,1.94
				c0,0.835-0.26,1.526-0.757,1.994c-0.637,0.64-1.642,0.939-2.775,0.939c-0.3,0-0.574-0.015-0.781-0.053v3.309H4.703V5.864z
				 M6.294,9.957c0.194,0.051,0.456,0.065,0.781,0.065c1.2,0,1.929-0.588,1.929-1.616c0-0.978-0.678-1.498-1.785-1.498
				c-0.443,0-0.757,0.039-0.925,0.077V9.957z"/>
		</g>
		<g>
			<path fill="#FFFFFF" d="M4.703,5.687c0.574-0.104,1.368-0.182,2.45-0.182c1.172,0,2.032,0.247,2.593,0.718
				c0.521,0.429,0.86,1.12,0.86,1.94c0,0.835-0.26,1.526-0.757,1.994c-0.637,0.64-1.642,0.939-2.775,0.939
				c-0.3,0-0.574-0.015-0.781-0.053v3.309H4.703V5.687z M6.294,9.779C6.488,9.831,6.75,9.845,7.075,9.845
				c1.2,0,1.929-0.588,1.929-1.616c0-0.978-0.678-1.498-1.785-1.498c-0.443,0-0.757,0.039-0.925,0.077V9.779z"/>
		</g>
	</g>
	<g>
		<g opacity="0.1">
			<path d="M11.102,13.059c0.365,0.221,1.056,0.455,1.629,0.455c0.703,0,1.016-0.285,1.016-0.703c0-0.431-0.26-0.652-1.041-0.924
				c-1.238-0.432-1.761-1.11-1.747-1.852c0-1.121,0.924-1.993,2.397-1.993c0.703,0,1.316,0.182,1.682,0.378l-0.312,1.132
				c-0.273-0.156-0.783-0.363-1.342-0.363c-0.574,0-0.887,0.272-0.887,0.664c0,0.404,0.301,0.599,1.107,0.887
				c1.146,0.417,1.682,1.003,1.694,1.941c0,1.146-0.898,1.994-2.581,1.994c-0.769,0-1.459-0.195-1.928-0.456L11.102,13.059z"/>
		</g>
		<g>
			<path fill="#FFFFFF" d="M11.102,12.881c0.365,0.221,1.056,0.455,1.629,0.455c0.703,0,1.016-0.285,1.016-0.703
				c0-0.431-0.26-0.652-1.041-0.924c-1.238-0.432-1.761-1.11-1.747-1.852c0-1.121,0.924-1.993,2.397-1.993
				c0.703,0,1.316,0.182,1.682,0.378l-0.312,1.132c-0.273-0.156-0.783-0.363-1.342-0.363c-0.574,0-0.887,0.272-0.887,0.664
				c0,0.404,0.301,0.599,1.107,0.887c1.146,0.417,1.682,1.003,1.694,1.941c0,1.146-0.898,1.994-2.581,1.994
				c-0.769,0-1.459-0.195-1.928-0.456L11.102,12.881z"/>
		</g>
	</g>
</g>
</svg>
