<?xml version="1.0" encoding="utf-8"?>
<!-- Generator: Adobe Illustrator 16.0.4, SVG Export Plug-In . SVG Version: 6.00 Build 0)  -->
<!DOCTYPE svg PUBLIC "-//W3C//DTD SVG 1.1//EN" "http://www.w3.org/Graphics/SVG/1.1/DTD/svg11.dtd">
<svg version="1.1" id="skillset" xmlns="http://www.w3.org/2000/svg" xmlns:xlink="http://www.w3.org/1999/xlink" x="0px" y="0px"
	 width="96px" height="90px" viewBox="0 0 96 90" enable-background="new 0 0 96 90" xml:space="preserve">
<g>
	<circle opacity="0.5" fill="#C03B2A" enable-background="new    " cx="29.479" cy="29.479" r="28.479"/>
	<ellipse opacity="0.5" fill="#44494C" enable-background="new    " cx="66.52" cy="29.479" rx="28.48" ry="28.475"/>
	<ellipse opacity="0.5" fill="#CACACA" enable-background="new    " cx="47.998" cy="60.529" rx="28.48" ry="28.475"/>
	<g>
		<path fill="#44494C" d="M9.882,28.888H9.858c-0.072-0.006-0.132-0.066-0.132-0.144v-3.91c0-0.078,0.066-0.144,0.144-0.144h0.018
			h0.768c1.157,0,2.099,0.948,2.099,2.105s-0.941,2.093-2.099,2.093H9.882z M10.656,28.594c0.996,0,1.805-0.803,1.805-1.799
			c0-1.001-0.81-1.805-1.805-1.811H10.02v3.61H10.656z"/>
		<path fill="#44494C" d="M13.764,27.425c0-0.815,0.636-1.475,1.427-1.475c0.756,0,1.355,0.6,1.416,1.367v0.006v0.018
			c0,0.078-0.066,0.132-0.144,0.132h-2.411c0.03,0.642,0.534,1.127,1.139,1.127c0.39,0,0.75-0.204,0.948-0.534
			c0.042-0.072,0.132-0.083,0.192-0.048c0.066,0.048,0.09,0.132,0.048,0.204c-0.252,0.402-0.689,0.666-1.188,0.666
			C14.4,28.888,13.764,28.229,13.764,27.425z M14.07,27.191h2.225c-0.096-0.551-0.563-0.953-1.104-0.953
			C14.64,26.238,14.178,26.633,14.07,27.191z"/>
		<path fill="#44494C" d="M17.424,28.276c0.048-0.06,0.138-0.072,0.204-0.018c0.204,0.15,0.528,0.342,0.899,0.342
			c0.228,0,0.426-0.072,0.558-0.18c0.144-0.096,0.222-0.228,0.222-0.36c-0.006-0.138-0.06-0.234-0.21-0.36
			c-0.126-0.096-0.336-0.168-0.624-0.216l-0.012-0.006c-0.264-0.048-0.498-0.108-0.666-0.228c-0.186-0.108-0.318-0.3-0.318-0.528
			c0-0.234,0.132-0.438,0.318-0.576c0.174-0.12,0.42-0.198,0.72-0.198c0.378,0,0.647,0.174,0.875,0.318
			c0.066,0.048,0.084,0.138,0.042,0.204c-0.042,0.066-0.132,0.084-0.198,0.042c-0.216-0.144-0.432-0.294-0.72-0.294
			c-0.24,0-0.432,0.066-0.558,0.168c-0.12,0.096-0.186,0.216-0.186,0.335c0,0.12,0.054,0.204,0.168,0.294
			c0.132,0.09,0.33,0.162,0.6,0.204h0.012c0.282,0.042,0.51,0.126,0.714,0.24c0.192,0.126,0.33,0.354,0.33,0.6
			c0,0.246-0.138,0.444-0.335,0.594c-0.204,0.15-0.444,0.234-0.732,0.234c-0.474-0.006-0.845-0.228-1.085-0.42
			C17.382,28.415,17.376,28.337,17.424,28.276z"/>
		<path fill="#44494C" d="M20.586,25.134c0-0.078,0.066-0.144,0.144-0.144c0.084,0,0.15,0.066,0.15,0.144v0.138
			c0,0.084-0.066,0.156-0.15,0.156c-0.078,0-0.144-0.072-0.144-0.156V25.134z M20.586,26.094c0-0.084,0.066-0.144,0.144-0.144
			c0.084,0,0.15,0.06,0.15,0.144v2.65c0,0.078-0.066,0.144-0.15,0.144c-0.078,0-0.144-0.066-0.144-0.144V26.094z"/>
		<path fill="#44494C" d="M24.833,28.654c0,0.762-0.618,1.379-1.385,1.379c-0.216,0-0.42-0.054-0.612-0.138
			c-0.06-0.042-0.096-0.126-0.06-0.192c0.036-0.078,0.12-0.108,0.192-0.066c0.15,0.072,0.3,0.108,0.48,0.108
			c0.611,0,1.097-0.486,1.097-1.091v-0.36c-0.246,0.354-0.647,0.576-1.097,0.576c-0.768,0-1.379-0.653-1.379-1.463
			c0-0.792,0.612-1.458,1.379-1.458c0.45,0,0.851,0.228,1.097,0.576v-0.431c0-0.078,0.066-0.144,0.15-0.144
			c0.072,0,0.138,0.066,0.138,0.144V28.654z M24.545,27.407c0-0.654-0.492-1.169-1.097-1.169c-0.6,0-1.092,0.516-1.092,1.169
			c0,0.659,0.492,1.181,1.092,1.181C24.053,28.588,24.545,28.066,24.545,27.407z"/>
		<path fill="#44494C" d="M28.325,27.149c0-0.498-0.402-0.905-0.906-0.905c-0.498,0-0.899,0.408-0.912,0.905v1.595v0.024
			c-0.006,0.024-0.012,0.048-0.03,0.066c-0.024,0.036-0.066,0.054-0.108,0.054h-0.036c-0.042-0.012-0.078-0.042-0.096-0.078
			c-0.006-0.006-0.006-0.012-0.006-0.018s-0.006-0.012-0.006-0.012v-0.036v-1.595v-0.048V26.1c0-0.078,0.06-0.144,0.144-0.144
			c0.078,0,0.138,0.066,0.138,0.144v0.282c0.216-0.258,0.546-0.426,0.912-0.426c0.66,0,1.193,0.54,1.193,1.193v1.595
			c0,0.084-0.066,0.144-0.144,0.144c-0.078,0-0.144-0.06-0.144-0.144L28.325,27.149L28.325,27.149z"/>
	</g>
	<g>
		<path fill="#44494C" d="M31.133,65.429c0-0.077,0.066-0.144,0.144-0.144h0.018h1.169c0.66,0,1.193,0.539,1.193,1.199
			c0,0.658-0.534,1.192-1.193,1.192l-1.038,0.013v1.647c0,0.078-0.066,0.146-0.15,0.146c-0.078,0-0.144-0.066-0.144-0.146
			L31.133,65.429L31.133,65.429z M32.465,67.396c0.498-0.007,0.905-0.414,0.905-0.912s-0.408-0.905-0.905-0.905h-1.038v1.817H32.465
			z"/>
		<path fill="#44494C" d="M34.607,65.429c0-0.077,0.066-0.144,0.144-0.144c0.084,0,0.15,0.064,0.15,0.144v3.909
			c0,0.078-0.066,0.145-0.15,0.145c-0.078,0-0.144-0.065-0.144-0.145V65.429z"/>
		<path fill="#44494C" d="M38.524,66.688v2.65c0,0.078-0.066,0.145-0.144,0.145s-0.144-0.065-0.144-0.145V68.9
			c-0.252,0.348-0.653,0.582-1.103,0.582c-0.774,0-1.392-0.666-1.392-1.47c0-0.805,0.618-1.47,1.392-1.47
			c0.45,0,0.851,0.229,1.103,0.574v-0.432c0-0.084,0.066-0.144,0.144-0.144S38.524,66.604,38.524,66.688z M38.236,68.014
			c0-0.66-0.498-1.188-1.103-1.188c-0.6,0-1.104,0.527-1.104,1.188c0,0.659,0.503,1.182,1.104,1.182
			C37.738,69.195,38.236,68.673,38.236,68.014z"/>
		<path fill="#44494C" d="M39.713,66.682c0-0.078,0.066-0.138,0.138-0.138c0.084,0,0.15,0.06,0.15,0.138v1.596
			c0,0.504,0.402,0.906,0.899,0.906c0.504,0,0.906-0.402,0.912-0.906v-1.596c0-0.023,0.006-0.054,0.024-0.072
			c0-0.006,0.006-0.012,0.006-0.018c0.006,0,0.006-0.006,0.012-0.006c0.012-0.018,0.036-0.029,0.054-0.036h0.012
			c0.006,0,0.012-0.006,0.018-0.006h0.018h0.018c0.024,0.006,0.048,0.019,0.072,0.03c0.012,0.012,0.03,0.029,0.036,0.048
			c0.012,0.019,0.018,0.042,0.018,0.06v1.596v0.055v0.917c0,0.769-0.624,1.38-1.397,1.38c-0.216,0-0.42-0.055-0.605-0.139
			c-0.066-0.043-0.096-0.127-0.06-0.191c0.036-0.07,0.114-0.09,0.186-0.07c0.144,0.07,0.312,0.112,0.479,0.112
			c0.612,0,1.104-0.485,1.109-1.092v-0.19c-0.222,0.252-0.546,0.42-0.912,0.42c-0.653-0.007-1.187-0.541-1.187-1.199V66.682
			L39.713,66.682z"/>
		<path fill="#44494C" d="M45.617,66.977c-0.168-0.181-0.264-0.42-0.264-0.678c0-0.564,0.456-1.014,1.014-1.014
			c0.558,0,1.013,0.449,1.013,1.014c0,0.077-0.066,0.143-0.15,0.143c-0.078,0-0.144-0.064-0.144-0.143
			c0-0.402-0.324-0.721-0.72-0.721s-0.72,0.318-0.72,0.721c0,0.239,0.126,0.455,0.306,0.581c0.054,0.042,0.078,0.114,0.048,0.174
			c-0.006,0.03-0.03,0.054-0.054,0.071c-0.018,0.013-0.03,0.02-0.048,0.025c-0.348,0.186-0.582,0.539-0.582,0.959
			c0,0.594,0.485,1.078,1.079,1.078c0.594,0,1.08-0.484,1.08-1.078c0-0.084-0.012-0.168-0.03-0.246
			c-0.066-0.012-0.125-0.012-0.18-0.012c-0.384,0-0.576,0.09-0.672,0.186c-0.096,0.096-0.12,0.21-0.12,0.307
			c0,0.059,0.012,0.102,0.018,0.125c0.018,0.084-0.024,0.162-0.096,0.186c-0.018,0.007-0.03,0.007-0.042,0.007
			c-0.072,0-0.126-0.035-0.144-0.103c-0.006-0.006-0.03-0.096-0.03-0.215c0-0.145,0.036-0.349,0.21-0.51
			c0.168-0.168,0.444-0.275,0.875-0.275c0.066,0,0.144,0,0.21,0.012h0.036h0.018h0.043c0.066-0.012,0.125-0.037,0.168-0.065
			c0.048-0.049,0.084-0.097,0.084-0.224c0-0.041,0-0.096-0.012-0.155c-0.024-0.077,0.029-0.155,0.107-0.174
			c0.084-0.019,0.156,0.036,0.18,0.108c0.012,0.084,0.019,0.155,0.019,0.221c0.012,0.199-0.078,0.361-0.204,0.451
			c-0.061,0.041-0.114,0.07-0.174,0.096c0.018,0.091,0.029,0.187,0.029,0.281c0,0.756-0.618,1.373-1.374,1.373
			c-0.755,0-1.373-0.617-1.373-1.373C45.023,67.648,45.257,67.229,45.617,66.977z"/>
		<path fill="#44494C" d="M51.484,69.482h-0.012c-0.078,0-0.146-0.065-0.146-0.145v-3.909c0-0.077,0.065-0.144,0.146-0.144
			c0.084,0,0.149,0.064,0.149,0.144v3.761h2.008c0.084,0,0.149,0.064,0.149,0.148c0,0.078-0.065,0.145-0.149,0.145H51.484z"/>
		<path fill="#44494C" d="M54.371,68.02c0-0.815,0.635-1.476,1.428-1.476c0.756,0,1.355,0.601,1.414,1.367v0.007v0.018
			c0,0.078-0.064,0.133-0.143,0.133h-2.412c0.031,0.642,0.535,1.127,1.141,1.127c0.389,0,0.748-0.205,0.947-0.534
			c0.041-0.071,0.131-0.083,0.191-0.048c0.065,0.048,0.09,0.132,0.049,0.203c-0.252,0.402-0.689,0.666-1.188,0.666
			C55.006,69.482,54.371,68.822,54.371,68.02z M54.678,67.785h2.225c-0.098-0.551-0.563-0.953-1.104-0.953
			C55.246,66.832,54.785,67.229,54.678,67.785z"/>
		<path fill="#44494C" d="M60.699,66.688v2.65c0,0.078-0.066,0.145-0.145,0.145c-0.08,0-0.144-0.065-0.144-0.145V68.9
			c-0.252,0.348-0.654,0.582-1.104,0.582c-0.772,0-1.393-0.666-1.393-1.47c0-0.805,0.619-1.47,1.393-1.47
			c0.449,0,0.853,0.229,1.104,0.574v-0.432c0-0.084,0.063-0.144,0.144-0.144C60.633,66.542,60.699,66.604,60.699,66.688z
			 M60.412,68.014c0-0.66-0.498-1.188-1.104-1.188c-0.601,0-1.104,0.527-1.104,1.188c0,0.659,0.504,1.182,1.104,1.182
			C59.914,69.195,60.412,68.673,60.412,68.014z"/>
		<path fill="#44494C" d="M61.949,66.693c0-0.084,0.064-0.145,0.148-0.145c0.071,0,0.139,0.061,0.139,0.145v0.647
			c0.012-0.024,0.022-0.049,0.043-0.071c0.221-0.349,0.611-0.721,1.174-0.721c0.078,0,0.145,0.061,0.145,0.145
			c0,0.078-0.065,0.145-0.145,0.145c-0.383,0-0.646,0.216-0.852,0.479c-0.197,0.266-0.312,0.563-0.354,0.686
			c-0.013,0.023-0.013,0.035-0.013,0.047v1.289c0,0.084-0.065,0.145-0.139,0.145c-0.084,0-0.147-0.061-0.147-0.145L61.949,66.693
			L61.949,66.693z"/>
		<path fill="#44494C" d="M66.682,67.743c0-0.497-0.402-0.905-0.906-0.905c-0.496,0-0.897,0.408-0.909,0.905v1.595v0.023
			c-0.007,0.024-0.013,0.049-0.031,0.065c-0.022,0.037-0.063,0.056-0.106,0.056h-0.035c-0.043-0.013-0.078-0.043-0.096-0.078
			c-0.009-0.006-0.009-0.012-0.009-0.019c0-0.006-0.006-0.012-0.006-0.012v-0.037v-1.595v-0.049v-1.002
			c0-0.076,0.062-0.144,0.146-0.144c0.078,0,0.139,0.065,0.139,0.144v0.283c0.215-0.259,0.545-0.427,0.91-0.427
			c0.66,0,1.193,0.54,1.193,1.192v1.596c0,0.084-0.064,0.145-0.144,0.145s-0.146-0.061-0.146-0.145V67.743z"/>
	</g>
	<g>
		<path fill="#44494C" d="M65.275,29.222h-0.023c-0.072-0.006-0.133-0.066-0.133-0.144v-3.91c0-0.078,0.066-0.144,0.145-0.144h0.019
			h0.768c1.158,0,2.101,0.948,2.101,2.105s-0.941,2.093-2.101,2.093H65.275L65.275,29.222z M66.049,28.928
			c0.996,0,1.805-0.803,1.805-1.799c0-1.001-0.809-1.805-1.805-1.811h-0.635v3.61H66.049z"/>
		<path fill="#44494C" d="M69.158,27.758c0-0.815,0.635-1.475,1.426-1.475c0.756,0,1.355,0.6,1.416,1.367v0.006v0.018
			c0,0.078-0.066,0.132-0.145,0.132h-2.41c0.029,0.642,0.533,1.127,1.139,1.127c0.391,0,0.75-0.204,0.949-0.534
			c0.041-0.072,0.131-0.083,0.191-0.048c0.065,0.048,0.09,0.132,0.047,0.204c-0.252,0.402-0.689,0.666-1.188,0.666
			C69.793,29.222,69.158,28.562,69.158,27.758z M69.463,27.525h2.225c-0.096-0.551-0.562-0.953-1.104-0.953
			C70.033,26.571,69.572,26.967,69.463,27.525z"/>
		<path fill="#44494C" d="M73.812,29.198c-0.019-0.018-0.035-0.036-0.047-0.066l-1.104-2.626c-0.031-0.072,0.006-0.156,0.071-0.186
			c0.07-0.03,0.16,0.006,0.187,0.078l0.978,2.314l0.979-2.314c0.023-0.072,0.113-0.108,0.186-0.078
			c0.072,0.03,0.103,0.114,0.072,0.186l-1.098,2.603c-0.006,0.024-0.018,0.048-0.037,0.072c-0.023,0.03-0.064,0.042-0.096,0.042
			c-0.019,0-0.029,0-0.047-0.006c-0.006,0-0.006,0-0.013-0.006C73.83,29.21,73.824,29.204,73.812,29.198z"/>
		<path fill="#44494C" d="M75.973,27.758c0-0.815,0.637-1.475,1.428-1.475c0.757,0,1.355,0.6,1.416,1.367v0.006v0.018
			c0,0.078-0.065,0.132-0.145,0.132h-2.41c0.029,0.642,0.533,1.127,1.139,1.127c0.392,0,0.75-0.204,0.947-0.534
			c0.043-0.072,0.133-0.083,0.193-0.048c0.064,0.048,0.09,0.132,0.047,0.204c-0.252,0.402-0.689,0.666-1.188,0.666
			C76.609,29.222,75.973,28.562,75.973,27.758z M76.279,27.525h2.225c-0.096-0.551-0.562-0.953-1.104-0.953
			C76.85,26.571,76.387,26.967,76.279,27.525z"/>
		<path fill="#44494C" d="M79.879,25.168c0-0.078,0.066-0.144,0.145-0.144c0.084,0,0.15,0.066,0.15,0.144v3.91
			c0,0.078-0.066,0.144-0.15,0.144c-0.078,0-0.145-0.066-0.145-0.144V25.168z"/>
		<path fill="#44494C" d="M82.584,26.283c0.773,0,1.393,0.672,1.393,1.469c0,0.798-0.619,1.469-1.393,1.469
			c-0.768,0-1.391-0.671-1.391-1.469C81.193,26.955,81.816,26.283,82.584,26.283z M82.584,28.934c0.6,0,1.104-0.528,1.104-1.182
			c0-0.654-0.504-1.188-1.104-1.188s-1.104,0.534-1.104,1.188C81.48,28.406,81.984,28.934,82.584,28.934z"/>
		<path fill="#44494C" d="M85.082,27.8v-0.06v-0.06v-1.253c0-0.078,0.064-0.144,0.143-0.144c0.084,0,0.15,0.066,0.15,0.144v0.426
			c0.252-0.342,0.66-0.57,1.115-0.57c0.791,0,1.422,0.654,1.422,1.458c0,0.797-0.631,1.463-1.422,1.463
			c-0.455,0-0.863-0.228-1.115-0.576v1.679c0,0.078-0.066,0.144-0.15,0.144c-0.078,0-0.143-0.066-0.143-0.144V27.8z M85.375,27.741
			c0,0.647,0.51,1.169,1.115,1.175c0.623-0.006,1.127-0.528,1.127-1.175c0-0.648-0.504-1.164-1.127-1.164
			c-0.594,0-1.092,0.492-1.115,1.115V27.741z"/>
	</g>
</g>
</svg>
