<?xml version="1.0" encoding="utf-8"?>
<!-- Generator: Adobe Illustrator 16.0.4, SVG Export Plug-In . SVG Version: 6.00 Build 0)  -->
<!DOCTYPE svg PUBLIC "-//W3C//DTD SVG 1.1//EN" "http://www.w3.org/Graphics/SVG/1.1/DTD/svg11.dtd">
<svg version="1.1" id="Layer_1" xmlns="http://www.w3.org/2000/svg" xmlns:xlink="http://www.w3.org/1999/xlink" x="0px" y="0px"
	 width="368px" height="74px" viewBox="0.5 72.5 368 74" enable-background="new 0.5 72.5 368 74" xml:space="preserve">
<path fill="#C44436" d="M367.5,109.5c0,19.882-16.118,36-36,36h-294c-19.882,0-36-16.118-36-36l0,0c0-19.882,16.118-36,36-36h294
	C351.382,73.5,367.5,89.618,367.5,109.5L367.5,109.5z"/>
<g>
	<path fill="#FFFFFF" d="M178.809,119.266c-0.06-0.062-0.119-0.091-0.209-0.15c0-0.029-0.03-0.029-0.03-0.09
		c-0.06-0.062-0.12-0.121-0.149-0.18c0,0-0.031,0-0.031-0.031c-0.029-0.06-0.09-0.181-0.149-0.238l-7.35-17.52
		c-0.36-0.811,0.03-1.801,0.899-2.131c0.811-0.359,1.771,0.03,2.131,0.87l5.85,13.89l5.85-13.89c0.359-0.84,1.35-1.229,2.16-0.87
		c0.84,0.33,1.229,1.32,0.898,2.131l-7.409,17.52c-0.03,0.059-0.061,0.18-0.121,0.238c0,0.031,0,0.031-0.029,0.031
		c-0.03,0.059-0.12,0.118-0.15,0.18c-0.029,0.061-0.029,0.061-0.06,0.09c-0.06,0.061-0.12,0.09-0.181,0.15c0,0,0,0-0.06,0.028
		c-0.06,0.03-0.149,0.121-0.239,0.149c-0.031,0-0.031,0-0.061,0.031c-0.09,0-0.15,0.029-0.24,0.06c0,0-0.029,0-0.06,0
		c-0.12,0.03-0.21,0.03-0.3,0.03s-0.211,0-0.301-0.03c0,0-0.029,0-0.06,0c-0.06-0.029-0.181-0.06-0.24-0.06
		c0-0.031-0.03-0.031-0.03-0.031s0,0-0.029,0c-0.061-0.028-0.18-0.119-0.27-0.18C178.84,119.266,178.84,119.266,178.809,119.266z"/>
	<path fill="#FFFFFF" d="M196.811,100.814c0,0.9-0.69,1.65-1.621,1.65c-0.898,0-1.619-0.75-1.619-1.65v-0.629
		c0-0.9,0.721-1.621,1.619-1.621c0.931,0,1.621,0.721,1.621,1.621V100.814z M196.811,106.245v11.698c0,0.9-0.69,1.621-1.621,1.621
		c-0.898,0-1.619-0.721-1.619-1.621v-11.698c0-0.96,0.721-1.649,1.619-1.649C196.119,104.596,196.811,105.285,196.811,106.245z"/>
	<path fill="#FFFFFF" d="M200.92,112.064c0.029-4.08,3.209-7.5,7.318-7.5c3.9,0,6.99,2.91,7.229,6.959c0,0.031,0,0.091,0,0.15
		c0,0.061,0,0.21-0.028,0.27c-0.092,0.722-0.722,1.201-1.562,1.201h-9.539c0.149,0.689,0.479,1.47,1.021,1.979
		c0.629,0.721,1.83,1.261,2.879,1.352c1.08,0.09,2.371-0.182,3.121-0.75c0.629-0.66,1.858-0.57,2.25-0.091
		c0.39,0.421,0.688,1.319,0,1.95c-1.471,1.35-3.24,1.979-5.371,1.979C204.129,119.534,200.949,116.145,200.92,112.064z
		 M204.189,110.596h8.488c-0.3-1.201-1.828-2.971-4.439-3.181C205.689,107.535,204.43,109.365,204.189,110.596z"/>
	<path fill="#FFFFFF" d="M238.777,106.965l-4.949,11.641c-0.029,0.061-0.061,0.149-0.119,0.24c0,0.028-0.029,0.028-0.029,0.028
		c-0.031,0.062-0.091,0.121-0.15,0.181c-0.029,0.03-0.061,0.03-0.061,0.03c-0.061,0.06-0.119,0.119-0.181,0.149
		c0,0.029-0.029,0.029-0.029,0.06c-0.09,0.062-0.149,0.121-0.271,0.149c0,0-0.029,0-0.029,0.031c-0.061,0-0.15,0.029-0.24,0.06
		c-0.029,0-0.029,0-0.061,0c-0.09,0.03-0.18,0.03-0.301,0.03c-0.09,0-0.18,0-0.27-0.03c-0.029,0-0.029,0-0.061,0
		c-0.061-0.029-0.12-0.06-0.211-0.06c-0.028-0.031-0.028-0.031-0.028-0.031c-0.03,0-0.03,0-0.03,0c-0.09-0.028-0.18-0.09-0.271-0.18
		c0,0,0,0,0-0.029c-0.09-0.03-0.119-0.09-0.18-0.149c0,0-0.06,0-0.06-0.03c-0.062-0.06-0.12-0.119-0.149-0.181
		c0,0-0.031,0-0.031-0.028c-0.06-0.091-0.09-0.181-0.119-0.24l-2.189-5.189l-2.13,5.189c-0.03,0.061-0.09,0.149-0.149,0.24v0.028
		c-0.061,0.062-0.121,0.121-0.181,0.181c0,0.03-0.03,0.03-0.03,0.03c-0.06,0.06-0.119,0.119-0.18,0.181
		c-0.12,0.09-0.18,0.149-0.27,0.18h-0.062c0,0-0.03,0-0.03,0.029c-0.06,0-0.148,0.03-0.18,0.061c-0.061,0-0.061,0-0.061,0
		c-0.119,0.029-0.209,0.029-0.301,0.029c-0.119,0-0.209,0-0.299-0.029c-0.031,0-0.031,0-0.091,0c-0.06-0.029-0.12-0.061-0.18-0.061
		c-0.03-0.029-0.03-0.029-0.062-0.029c-0.09-0.029-0.209-0.09-0.27-0.18c-0.03,0-0.03,0-0.03-0.031
		c-0.03-0.029-0.09-0.09-0.18-0.148c0,0,0,0-0.062-0.029c-0.029-0.061-0.09-0.121-0.119-0.182c-0.029,0-0.029,0-0.029-0.029
		c-0.061-0.09-0.09-0.18-0.15-0.24l-4.92-11.64c-0.359-0.81,0.03-1.71,0.87-2.069c0.72-0.33,1.649,0.029,1.979,0.899l3.539,8.069
		l2.102-5.01c0.27-0.6,0.84-0.959,1.47-0.959c0.66,0,1.229,0.359,1.47,0.959l2.131,5.01l3.539-8.069
		c0.301-0.87,1.26-1.229,2.01-0.899C238.719,105.255,239.139,106.154,238.777,106.965z"/>
	<path fill="#FFFFFF" d="M253.719,108.766c0.03-5.939,5.012-10.771,11.01-10.8c2.641,0,5.041,0.87,6.931,2.341
		c0.721,0.6,0.84,1.649,0.3,2.399c-0.6,0.75-1.709,0.87-2.398,0.33c-1.32-1.08-2.971-1.65-4.83-1.65
		c-2.069,0-3.989,0.841-5.399,2.16c-1.351,1.38-2.19,3.181-2.19,5.22c0,2.041,0.842,3.9,2.19,5.221c1.41,1.32,3.33,2.16,5.399,2.16
		c1.859,0,3.479-0.569,4.83-1.649c0.689-0.511,1.799-0.392,2.398,0.33c0.54,0.75,0.421,1.83-0.3,2.399
		c-1.89,1.469-4.29,2.34-6.931,2.34C258.729,119.564,253.749,114.734,253.719,108.766z"/>
	<path fill="#FFFFFF" d="M284.619,119.266c-0.061-0.062-0.12-0.091-0.21-0.15c0-0.029-0.03-0.029-0.03-0.09
		c-0.061-0.062-0.12-0.121-0.15-0.18c0,0-0.028,0-0.028-0.031c-0.03-0.06-0.091-0.181-0.15-0.238l-7.35-17.52
		c-0.36-0.811,0.03-1.801,0.899-2.131c0.811-0.359,1.771,0.03,2.129,0.87l5.852,13.89l5.85-13.89c0.359-0.84,1.351-1.229,2.16-0.87
		c0.84,0.33,1.229,1.32,0.899,2.131l-7.409,17.52c-0.03,0.059-0.061,0.18-0.12,0.238c0,0.031,0,0.031-0.03,0.031
		c-0.029,0.059-0.119,0.118-0.149,0.18c-0.029,0.061-0.029,0.061-0.06,0.09c-0.061,0.061-0.121,0.09-0.181,0.15c0,0,0,0-0.062,0.028
		c-0.06,0.03-0.148,0.121-0.239,0.149c-0.029,0-0.029,0-0.06,0.031c-0.091,0-0.15,0.029-0.24,0.06c0,0-0.029,0-0.061,0
		c-0.119,0.03-0.21,0.03-0.3,0.03c-0.091,0-0.21,0-0.301-0.03c0,0-0.029,0-0.06,0c-0.061-0.029-0.181-0.06-0.24-0.06
		c0-0.031-0.029-0.031-0.029-0.031s0,0-0.03,0c-0.062-0.028-0.18-0.119-0.271-0.18C284.648,119.266,284.648,119.266,284.619,119.266
		z"/>
</g>
<g id="profile_icon">
	<g>
		<path fill="#FFFFFF" d="M49.963,115.327c2.446-1.781,4.663-1.271,7.047-0.188c0.788,0.356,1.623,0.604,2.44,0.897
			c3.888,1.405,3.964,2.81,4.011,6.972c0.023,2.045-0.724,2.854-2.754,2.822H34.256c-2.028,0.031-2.776-0.773-2.756-2.82
			c0.047-4.16,0.129-5.564,4.011-6.972c0.816-0.295,1.654-0.541,2.44-0.897c2.387-1.084,4.6-1.595,7.046,0.188
			c0,0,1.162,0.938,2.484,0.938C48.806,116.268,49.963,115.327,49.963,115.327z"/>
		<path fill="#FFFFFF" d="M47.485,113.445c3.088,0.05,6.806-3.569,7.119-7.297c0.09-1.034,0.017-2.086,0.017-3.129
			c0.004,0,0.01,0,0.016,0c0-0.885,0.037-1.77-0.007-2.649c-0.179-3.759-2.919-6.427-6.682-6.537h-0.927
			c-3.762,0.11-6.503,2.778-6.682,6.537c-0.044,0.879-0.006,1.766-0.006,2.649c0.005,0,0.011,0,0.018,0
			c0,1.043-0.074,2.095,0.012,3.129C40.676,109.876,44.394,113.495,47.485,113.445"/>
		<path fill="#FFFFFF" d="M92.5,95.288c0,0.804-0.638,1.455-1.424,1.455H74.921c-0.784-0.001-1.421-0.652-1.421-1.455l0,0
			c0-0.804,0.637-1.455,1.421-1.455h16.154C91.862,93.831,92.5,94.484,92.5,95.288L92.5,95.288z"/>
		<path fill="#FFFFFF" d="M97.25,101.105c0,0.805-0.639,1.453-1.426,1.453H74.921c-0.784,0-1.421-0.652-1.421-1.453l0,0
			c0-0.804,0.637-1.455,1.421-1.455h20.903C96.612,99.65,97.25,100.302,97.25,101.105L97.25,101.105z"/>
		<path fill="#FFFFFF" d="M111.5,106.925c0,0.804-0.641,1.453-1.427,1.453H74.921c-0.784,0-1.421-0.649-1.421-1.453l0,0
			c0-0.804,0.637-1.452,1.421-1.452h35.152C110.86,105.468,111.5,106.121,111.5,106.925L111.5,106.925z"/>
		<path fill="#FFFFFF" d="M106.751,112.741c0,0.804-0.64,1.454-1.427,1.454H74.921c-0.784,0-1.421-0.652-1.421-1.454l0,0
			c0-0.806,0.637-1.452,1.421-1.452h30.403C106.112,111.287,106.751,111.938,106.751,112.741L106.751,112.741z"/>
		<path fill="#FFFFFF" d="M102,118.562c0,0.803-0.636,1.455-1.424,1.455H74.921c-0.784,0-1.421-0.652-1.421-1.455l0,0
			c0-0.805,0.637-1.455,1.421-1.455h25.654C101.364,117.104,102,117.758,102,118.562L102,118.562z"/>
		<path fill="#FFFFFF" d="M106.751,124.376c0,0.806-0.64,1.457-1.427,1.457H74.921c-0.784,0-1.421-0.651-1.421-1.457l0,0
			c0-0.804,0.637-1.452,1.421-1.452h30.403C106.112,122.924,106.751,123.576,106.751,124.376L106.751,124.376z"/>
	</g>
</g>
</svg>
