<?xml version="1.0" encoding="utf-8"?>
<!-- Generator: Adobe Illustrator 16.0.4, SVG Export Plug-In . SVG Version: 6.00 Build 0)  -->
<!DOCTYPE svg PUBLIC "-//W3C//DTD SVG 1.1//EN" "http://www.w3.org/Graphics/SVG/1.1/DTD/svg11.dtd">
<svg version="1.1" id="Layer_1" xmlns="http://www.w3.org/2000/svg" xmlns:xlink="http://www.w3.org/1999/xlink" x="0px" y="0px"
	 width="368px" height="74px" viewBox="0 0 368 74" enable-background="new 0 0 368 74" xml:space="preserve">
<path fill="#44494C" d="M367,37c0,19.882-16.118,36-36,36H37C17.118,73,1,56.882,1,37l0,0C1,17.118,17.118,1,37,1h294
	C350.882,1,367,17.118,367,37L367,37z"/>
<g>
	<path fill="#FFFFFF" d="M178.309,46.766c-0.06-0.062-0.119-0.091-0.209-0.149c0-0.029-0.03-0.029-0.03-0.091
		c-0.06-0.062-0.12-0.121-0.149-0.18c0,0-0.031,0-0.031-0.031c-0.029-0.06-0.09-0.181-0.149-0.237l-7.35-17.521
		c-0.36-0.811,0.03-1.801,0.899-2.131c0.811-0.359,1.771,0.03,2.131,0.87l5.85,13.89l5.85-13.89c0.359-0.84,1.35-1.229,2.16-0.87
		c0.84,0.33,1.229,1.32,0.898,2.131l-7.41,17.521c-0.03,0.06-0.061,0.18-0.121,0.237c0,0.031,0,0.031-0.029,0.031
		c-0.03,0.059-0.12,0.118-0.15,0.18c-0.029,0.062-0.029,0.062-0.06,0.091c-0.06,0.061-0.12,0.09-0.181,0.149c0,0,0,0-0.06,0.028
		c-0.06,0.03-0.149,0.121-0.239,0.149c-0.031,0-0.031,0-0.061,0.031c-0.09,0-0.15,0.028-0.24,0.06c0,0-0.029,0-0.06,0
		c-0.12,0.03-0.21,0.03-0.3,0.03s-0.211,0-0.301-0.03c0,0-0.029,0-0.06,0c-0.06-0.029-0.181-0.06-0.24-0.06
		c0-0.031-0.03-0.031-0.03-0.031s0,0-0.029,0c-0.061-0.028-0.18-0.119-0.27-0.18C178.34,46.766,178.34,46.766,178.309,46.766z"/>
	<path fill="#FFFFFF" d="M196.311,28.314c0,0.899-0.689,1.649-1.621,1.649c-0.897,0-1.619-0.75-1.619-1.649v-0.629
		c0-0.9,0.722-1.621,1.619-1.621c0.932,0,1.621,0.721,1.621,1.621V28.314z M196.311,33.745v11.698c0,0.899-0.689,1.621-1.621,1.621
		c-0.897,0-1.619-0.722-1.619-1.621V33.745c0-0.96,0.722-1.649,1.619-1.649C195.619,32.096,196.311,32.785,196.311,33.745z"/>
	<path fill="#FFFFFF" d="M200.42,39.564c0.029-4.08,3.209-7.5,7.318-7.5c3.9,0,6.99,2.91,7.229,6.959c0,0.031,0,0.091,0,0.149
		c0,0.062,0,0.21-0.027,0.271c-0.092,0.722-0.723,1.201-1.562,1.201h-9.539c0.148,0.688,0.479,1.47,1.021,1.979
		c0.629,0.721,1.83,1.261,2.879,1.352c1.08,0.09,2.371-0.182,3.121-0.75c0.629-0.66,1.857-0.57,2.25-0.091
		c0.39,0.421,0.688,1.319,0,1.95c-1.471,1.35-3.24,1.979-5.371,1.979C203.629,47.034,200.449,43.645,200.42,39.564z M203.689,38.096
		h8.487c-0.3-1.201-1.827-2.971-4.438-3.181C205.189,35.035,203.93,36.865,203.689,38.096z"/>
	<path fill="#FFFFFF" d="M238.277,34.465l-4.949,11.641c-0.029,0.062-0.061,0.149-0.119,0.24c0,0.028-0.029,0.028-0.029,0.028
		c-0.031,0.062-0.091,0.121-0.15,0.181c-0.028,0.03-0.061,0.03-0.061,0.03c-0.061,0.06-0.119,0.119-0.181,0.149
		c0,0.029-0.029,0.029-0.029,0.06c-0.09,0.062-0.149,0.121-0.271,0.149c0,0-0.029,0-0.029,0.031c-0.061,0-0.15,0.028-0.24,0.06
		c-0.029,0-0.029,0-0.061,0c-0.09,0.03-0.18,0.03-0.301,0.03c-0.09,0-0.181,0-0.271-0.03c-0.028,0-0.028,0-0.062,0
		c-0.061-0.029-0.119-0.06-0.211-0.06c-0.027-0.031-0.027-0.031-0.027-0.031c-0.03,0-0.03,0-0.03,0
		c-0.09-0.028-0.18-0.09-0.271-0.18c0,0,0,0,0-0.029c-0.09-0.03-0.119-0.09-0.18-0.149c0,0-0.061,0-0.061-0.03
		c-0.062-0.06-0.12-0.119-0.148-0.181c0,0-0.031,0-0.031-0.028c-0.061-0.091-0.09-0.181-0.119-0.24l-2.189-5.188l-2.13,5.188
		c-0.03,0.062-0.09,0.149-0.149,0.24v0.028c-0.061,0.062-0.121,0.121-0.181,0.181c0,0.03-0.03,0.03-0.03,0.03
		c-0.06,0.06-0.119,0.119-0.18,0.181c-0.12,0.09-0.18,0.149-0.27,0.18h-0.062c0,0-0.029,0-0.029,0.029
		c-0.061,0-0.148,0.03-0.181,0.062c-0.062,0-0.062,0-0.062,0c-0.118,0.028-0.209,0.028-0.301,0.028c-0.119,0-0.209,0-0.299-0.028
		c-0.031,0-0.031,0-0.091,0c-0.06-0.029-0.12-0.062-0.181-0.062c-0.029-0.029-0.029-0.029-0.062-0.029
		c-0.09-0.028-0.209-0.09-0.27-0.18c-0.03,0-0.03,0-0.03-0.031c-0.029-0.028-0.09-0.09-0.18-0.147c0,0,0,0-0.062-0.028
		c-0.029-0.062-0.09-0.121-0.119-0.183c-0.029,0-0.029,0-0.029-0.028c-0.061-0.091-0.09-0.181-0.149-0.24l-4.92-11.641
		c-0.358-0.81,0.03-1.71,0.87-2.068c0.72-0.33,1.648,0.028,1.979,0.898l3.539,8.069l2.103-5.011c0.27-0.6,0.84-0.959,1.47-0.959
		c0.66,0,1.229,0.359,1.471,0.959l2.131,5.011l3.539-8.069c0.301-0.87,1.26-1.229,2.01-0.898
		C238.219,32.755,238.639,33.654,238.277,34.465z"/>
	<path fill="#FFFFFF" d="M253.219,36.266c0.03-5.938,5.012-10.771,11.01-10.8c2.642,0,5.041,0.87,6.932,2.341
		c0.721,0.601,0.84,1.649,0.3,2.399c-0.601,0.75-1.709,0.87-2.397,0.33c-1.32-1.08-2.972-1.65-4.83-1.65
		c-2.069,0-3.989,0.841-5.399,2.16c-1.351,1.38-2.19,3.181-2.19,5.22c0,2.041,0.842,3.9,2.19,5.221c1.41,1.32,3.33,2.16,5.399,2.16
		c1.858,0,3.479-0.568,4.83-1.648c0.688-0.512,1.799-0.393,2.397,0.33c0.54,0.75,0.421,1.83-0.3,2.398
		c-1.891,1.469-4.29,2.34-6.932,2.34C258.229,47.064,253.249,42.234,253.219,36.266z"/>
	<path fill="#FFFFFF" d="M284.119,46.766c-0.061-0.062-0.12-0.091-0.21-0.149c0-0.029-0.03-0.029-0.03-0.091
		c-0.061-0.062-0.12-0.121-0.15-0.18c0,0-0.027,0-0.027-0.031c-0.03-0.06-0.092-0.181-0.15-0.237l-7.35-17.521
		c-0.36-0.811,0.029-1.801,0.898-2.131c0.812-0.359,1.771,0.03,2.129,0.87l5.853,13.89l5.851-13.89
		c0.358-0.84,1.351-1.229,2.159-0.87c0.841,0.33,1.229,1.32,0.899,2.131l-7.409,17.521c-0.03,0.06-0.062,0.18-0.12,0.237
		c0,0.031,0,0.031-0.029,0.031c-0.029,0.059-0.119,0.118-0.149,0.18c-0.029,0.062-0.029,0.062-0.06,0.091
		c-0.062,0.061-0.121,0.09-0.182,0.149c0,0,0,0-0.062,0.028c-0.06,0.03-0.147,0.121-0.238,0.149c-0.029,0-0.029,0-0.061,0.031
		c-0.091,0-0.15,0.028-0.24,0.06c0,0-0.028,0-0.061,0c-0.119,0.03-0.21,0.03-0.3,0.03c-0.091,0-0.21,0-0.302-0.03
		c0,0-0.028,0-0.06,0c-0.061-0.029-0.181-0.06-0.239-0.06c0-0.031-0.029-0.031-0.029-0.031s0,0-0.03,0
		c-0.062-0.028-0.18-0.119-0.271-0.18C284.148,46.766,284.148,46.766,284.119,46.766z"/>
</g>
<g id="profile_icon">
	<g>
		<path fill="#FFFFFF" d="M49.463,42.827c2.446-1.781,4.663-1.271,7.047-0.188c0.788,0.356,1.623,0.604,2.44,0.897
			c3.888,1.405,3.964,2.81,4.011,6.972c0.023,2.045-0.724,2.854-2.754,2.822H33.756c-2.028,0.031-2.776-0.773-2.756-2.82
			c0.047-4.16,0.129-5.564,4.011-6.972c0.816-0.295,1.654-0.541,2.44-0.897c2.387-1.084,4.6-1.595,7.046,0.188
			c0,0,1.162,0.938,2.484,0.938C48.306,43.768,49.463,42.827,49.463,42.827z"/>
		<path fill="#FFFFFF" d="M46.985,40.945c3.088,0.05,6.806-3.569,7.119-7.297c0.09-1.034,0.017-2.086,0.017-3.129
			c0.004,0,0.01,0,0.016,0c0-0.886,0.037-1.771-0.007-2.649c-0.179-3.759-2.919-6.427-6.682-6.537h-0.927
			c-3.762,0.11-6.503,2.778-6.682,6.537c-0.044,0.879-0.006,1.766-0.006,2.649c0.005,0,0.011,0,0.018,0
			c0,1.043-0.074,2.095,0.012,3.129C40.176,37.376,43.894,40.995,46.985,40.945"/>
		<path fill="#FFFFFF" d="M92,22.788c0,0.804-0.638,1.455-1.424,1.455H74.421C73.637,24.242,73,23.591,73,22.788l0,0
			c0-0.804,0.637-1.455,1.421-1.455h16.154C91.362,21.331,92,21.984,92,22.788L92,22.788z"/>
		<path fill="#FFFFFF" d="M96.75,28.605c0,0.805-0.639,1.453-1.426,1.453H74.421c-0.784,0-1.421-0.652-1.421-1.453l0,0
			c0-0.805,0.637-1.455,1.421-1.455h20.903C96.112,27.15,96.75,27.802,96.75,28.605L96.75,28.605z"/>
		<path fill="#FFFFFF" d="M111,34.425c0,0.804-0.641,1.453-1.427,1.453H74.421c-0.784,0-1.421-0.649-1.421-1.453l0,0
			c0-0.804,0.637-1.452,1.421-1.452h35.152C110.36,32.968,111,33.621,111,34.425L111,34.425z"/>
		<path fill="#FFFFFF" d="M106.251,40.241c0,0.804-0.64,1.454-1.427,1.454H74.421c-0.784,0-1.421-0.652-1.421-1.454l0,0
			c0-0.806,0.637-1.452,1.421-1.452h30.403C105.612,38.787,106.251,39.438,106.251,40.241L106.251,40.241z"/>
		<path fill="#FFFFFF" d="M101.5,46.062c0,0.803-0.636,1.455-1.424,1.455H74.421c-0.784,0-1.421-0.652-1.421-1.455l0,0
			c0-0.806,0.637-1.455,1.421-1.455h25.654C100.864,44.604,101.5,45.258,101.5,46.062L101.5,46.062z"/>
		<path fill="#FFFFFF" d="M106.251,51.876c0,0.806-0.64,1.457-1.427,1.457H74.421c-0.784,0-1.421-0.651-1.421-1.457l0,0
			c0-0.804,0.637-1.452,1.421-1.452h30.403C105.612,50.424,106.251,51.076,106.251,51.876L106.251,51.876z"/>
	</g>
</g>
</svg>
