<?xml version="1.0" encoding="utf-8"?>
<!-- Generator: Adobe Illustrator 16.0.4, SVG Export Plug-In . SVG Version: 6.00 Build 0)  -->
<!DOCTYPE svg PUBLIC "-//W3C//DTD SVG 1.1//EN" "http://www.w3.org/Graphics/SVG/1.1/DTD/svg11.dtd">
<svg version="1.1" id="Layer_1" xmlns="http://www.w3.org/2000/svg" xmlns:xlink="http://www.w3.org/1999/xlink" x="0px" y="0px"
	 width="31px" height="22px" viewBox="0 0 31 22" enable-background="new 0 0 31 22" xml:space="preserve">
<path fill="#C0392B" d="M30,3c0,1.104-0.876,2-1.957,2H2.957C1.876,5,1,4.105,1,3l0,0c0-1.105,0.876-2,1.957-2h25.086
	C29.124,1,30,1.895,30,3L30,3z"/>
<path fill="#C0392B" d="M30,11c0,1.105-0.876,2-1.957,2H2.957C1.876,13,1,12.105,1,11l0,0c0-1.105,0.876-2,1.957-2h25.086
	C29.124,9,30,9.895,30,11L30,11z"/>
<path fill="#C0392B" d="M30,19c0,1.105-0.876,2-1.957,2H2.957C1.876,21,1,20.105,1,19l0,0c0-1.105,0.876-2,1.957-2h25.086
	C29.124,17,30,17.895,30,19L30,19z"/>
</svg>
