<?xml version="1.0" encoding="utf-8"?>
<!-- Generator: Adobe Illustrator 16.0.4, SVG Export Plug-In . SVG Version: 6.00 Build 0)  -->
<!DOCTYPE svg PUBLIC "-//W3C//DTD SVG 1.1//EN" "http://www.w3.org/Graphics/SVG/1.1/DTD/svg11.dtd">
<svg version="1.1" id="pinterest-icon" xmlns="http://www.w3.org/2000/svg" xmlns:xlink="http://www.w3.org/1999/xlink" x="0px"
	 y="0px" width="20px" height="20px" viewBox="0 0 20 20" enable-background="new 0 0 20 20" xml:space="preserve">
<path fill="#454A4D" d="M9.999,3C6.135,3,3,6.133,3,10c0,2.868,1.723,5.33,4.19,6.412c-0.02-0.49-0.004-1.078,0.121-1.609
	c0.135-0.566,0.901-3.814,0.901-3.814s-0.223-0.445-0.223-1.109c0-1.036,0.602-1.809,1.351-1.809c0.636,0,0.945,0.477,0.945,1.049
	c0,0.639-0.409,1.601-0.618,2.482c-0.176,0.745,0.373,1.349,1.103,1.349c1.326,0,2.222-1.705,2.222-3.72
	c0-1.535-1.035-2.683-2.913-2.683c-2.124,0-3.447,1.583-3.447,3.353c0,0.608,0.18,1.04,0.46,1.372
	c0.131,0.152,0.148,0.217,0.101,0.392c-0.033,0.128-0.109,0.438-0.142,0.562c-0.048,0.178-0.189,0.238-0.35,0.176
	C5.721,12,5.265,10.93,5.265,9.727c0-1.989,1.677-4.374,5.004-4.374c2.67,0,4.43,1.934,4.43,4.01c0,2.746-1.527,4.797-3.774,4.797
	c-0.756,0-1.467-0.41-1.71-0.869c0,0-0.407,1.613-0.493,1.92c-0.149,0.543-0.439,1.08-0.705,1.501C8.645,16.9,9.311,17,9.999,17
	C13.865,17,17,13.867,17,10C17,6.133,13.865,3,9.999,3z"/>
</svg>
