<?xml version="1.0" encoding="utf-8"?>
<!-- Generator: Adobe Illustrator 16.0.4, SVG Export Plug-In . SVG Version: 6.00 Build 0)  -->
<!DOCTYPE svg PUBLIC "-//W3C//DTD SVG 1.1//EN" "http://www.w3.org/Graphics/SVG/1.1/DTD/svg11.dtd">
<svg version="1.1" id="googlePlus-icon" xmlns="http://www.w3.org/2000/svg" xmlns:xlink="http://www.w3.org/1999/xlink" x="0px"
	 y="0px" width="20px" height="20px" viewBox="0 0 20 20" enable-background="new 0 0 20 20" xml:space="preserve">
<path fill="#454A4D" d="M9.705,3.663c0.116,0.071,0.247,0.176,0.391,0.314c0.139,0.144,0.275,0.321,0.41,0.529
	c0.128,0.197,0.24,0.43,0.34,0.7c0.082,0.269,0.123,0.583,0.123,0.941c-0.012,0.658-0.157,1.185-0.441,1.579
	c-0.137,0.191-0.282,0.368-0.438,0.53C9.92,8.416,9.739,8.581,9.547,8.749C9.435,8.862,9.335,8.99,9.241,9.134
	c-0.11,0.149-0.165,0.322-0.165,0.52c0,0.193,0.055,0.352,0.17,0.477c0.096,0.119,0.188,0.224,0.277,0.314l0.629,0.511
	c0.39,0.317,0.731,0.667,1.025,1.05c0.28,0.388,0.422,0.896,0.434,1.523c0,0.892-0.396,1.68-1.188,2.368
	C9.604,16.607,8.419,16.976,6.87,17c-1.295-0.013-2.263-0.287-2.901-0.822C3.323,15.675,3,15.075,3,14.377
	c0-0.34,0.104-0.719,0.315-1.137c0.203-0.418,0.572-0.784,1.105-1.102c0.598-0.338,1.227-0.566,1.888-0.68
	c0.654-0.095,1.195-0.149,1.627-0.161c-0.132-0.175-0.252-0.361-0.356-0.56c-0.122-0.191-0.183-0.424-0.183-0.694
	c0-0.161,0.024-0.298,0.069-0.405c0.04-0.115,0.079-0.219,0.113-0.315C7.369,9.346,7.17,9.358,6.985,9.358
	C6,9.346,5.25,9.038,4.734,8.435C4.191,7.873,3.922,7.218,3.922,6.471c0-0.903,0.383-1.722,1.148-2.458
	c0.526-0.43,1.073-0.71,1.641-0.842C7.271,3.057,7.798,3,8.287,3h3.7l-1.14,0.663H9.705z M10.418,14.248
	c0-0.469-0.152-0.873-0.458-1.219c-0.324-0.332-0.83-0.734-1.519-1.213c-0.12-0.013-0.258-0.018-0.417-0.018
	c-0.094-0.012-0.335,0-0.725,0.035c-0.382,0.055-0.774,0.14-1.176,0.26c-0.094,0.037-0.226,0.091-0.397,0.162
	c-0.171,0.078-0.343,0.189-0.521,0.332c-0.171,0.148-0.315,0.335-0.435,0.557c-0.136,0.232-0.201,0.515-0.201,0.844
	c0,0.645,0.294,1.178,0.882,1.595c0.562,0.419,1.326,0.635,2.298,0.647c0.871-0.013,1.539-0.203,1.997-0.573
	C10.196,15.291,10.418,14.822,10.418,14.248z M7.839,8.857c0.487-0.018,0.894-0.192,1.218-0.522
	c0.157-0.233,0.259-0.473,0.302-0.718c0.027-0.246,0.041-0.452,0.041-0.62c0-0.724-0.187-1.456-0.561-2.192
	c-0.174-0.354-0.405-0.642-0.69-0.863c-0.293-0.209-0.628-0.32-1.006-0.333c-0.5,0.013-0.917,0.213-1.251,0.602
	C5.611,4.619,5.477,5.074,5.49,5.577c0,0.665,0.195,1.356,0.586,2.076c0.19,0.335,0.435,0.619,0.736,0.854
	C7.11,8.741,7.453,8.857,7.839,8.857z"/>
<polygon fill="#454A4D" points="17,5.009 15.059,5.009 15.059,3.078 14.117,3.078 14.117,5.009 12.176,5.009 12.176,5.942 
	14.117,5.942 14.117,7.872 15.059,7.872 15.059,5.942 17,5.942 "/>
</svg>
