<?xml version="1.0" encoding="utf-8"?>
<!-- Generator: Adobe Illustrator 16.0.4, SVG Export Plug-In . SVG Version: 6.00 Build 0)  -->
<!DOCTYPE svg PUBLIC "-//W3C//DTD SVG 1.1//EN" "http://www.w3.org/Graphics/SVG/1.1/DTD/svg11.dtd">
<svg version="1.1" id="mail-icon" xmlns="http://www.w3.org/2000/svg" xmlns:xlink="http://www.w3.org/1999/xlink" x="0px" y="0px"
	 width="20px" height="20px" viewBox="0 0 20 20" enable-background="new 0 0 20 20" xml:space="preserve">
<path fill="#454A4D" d="M10,18c-4.412,0-8-3.591-8-8c0-4.41,3.588-8,8-8c4.411,0,8,3.59,8,8C18,14.409,14.411,18,10,18z
	 M16.746,11.095c-0.233-0.073-2.115-0.634-4.258-0.292c0.896,2.457,1.259,4.456,1.328,4.872
	C15.35,14.639,16.44,12.997,16.746,11.095z M12.669,16.301c-0.103-0.601-0.499-2.688-1.458-5.182l-0.045,0.016
	C7.312,12.478,5.929,15.15,5.805,15.4c1.158,0.906,2.614,1.444,4.195,1.444C10.945,16.845,11.848,16.65,12.669,16.301z
	 M4.922,14.578c0.156-0.263,2.031-3.368,5.554-4.508c0.09-0.03,0.18-0.056,0.269-0.081c-0.17-0.389-0.358-0.776-0.553-1.159
	C6.78,9.85,3.469,9.808,3.17,9.801c-0.001,0.071-0.004,0.14-0.004,0.21C3.166,11.766,3.832,13.369,4.922,14.578z M3.31,8.611
	c0.306,0.004,3.122,0.016,6.316-0.833C8.496,5.766,7.275,4.074,7.094,3.827C5.183,4.729,3.753,6.491,3.31,8.611z M8.398,3.367
	c0.189,0.252,1.43,1.943,2.549,4c2.431-0.911,3.459-2.294,3.583-2.469C13.323,3.829,11.735,3.177,10,3.177
	C9.449,3.177,8.911,3.243,8.398,3.367z M15.289,5.689c-0.146,0.195-1.29,1.663-3.815,2.693c0.157,0.327,0.311,0.658,0.453,0.991
	c0.05,0.117,0.099,0.236,0.146,0.353c2.273-0.288,4.533,0.172,4.759,0.219C16.815,8.333,16.24,6.852,15.289,5.689z"/>
</svg>
